<?xml version="1.0" standalone="no"?>
<!DOCTYPE svg PUBLIC "-//W3C//DTD SVG 20010904//EN"
 "http://www.w3.org/TR/2001/REC-SVG-20010904/DTD/svg10.dtd">
<svg version="1.0" xmlns="http://www.w3.org/2000/svg"
 width="300.000000pt" height="225.000000pt" viewBox="0 0 300.000000 225.000000"
 preserveAspectRatio="xMidYMid meet">

<g transform="translate(0.000000,225.000000) scale(0.100000,-0.100000)"
fill="#000000" stroke="none">
<path d="M1602 1979 l3 -142 -50 -12 c-27 -7 -114 -15 -193 -18 -82 -3 -148
-10 -156 -16 -9 -8 -117 -14 -313 -18 l-300 -6 -30 32 c-21 22 -40 62 -62 131
-23 73 -38 104 -58 120 -15 12 -29 18 -30 13 -2 -4 -33 -6 -69 -5 -64 4 -65 3
-54 -18 6 -11 11 -47 11 -78 0 -31 1 -86 4 -122 2 -36 4 -69 5 -75 0 -6 3 -5
8 1 8 13 92 24 92 12 0 -18 -45 -22 -178 -15 -65 3 -60 -10 6 -16 78 -7 127
-12 438 -47 409 -44 672 -96 814 -159 47 -21 113 -49 148 -61 57 -21 62 -25
62 -52 0 -78 63 -126 157 -120 34 3 91 59 99 96 l6 33 296 7 c163 3 318 9 343
12 42 6 47 4 52 -17 6 -22 7 -22 26 -5 11 10 17 24 14 32 -3 8 0 14 6 14 6 0
11 -7 11 -15 0 -8 6 -15 13 -15 6 0 4 -5 -6 -11 -14 -8 -16 -14 -7 -24 7 -8 9
-19 6 -24 -11 -17 14 -23 30 -7 8 9 18 16 22 16 4 0 6 19 4 42 -12 170 -13
202 -6 195 5 -4 13 -22 19 -40 9 -29 14 -32 60 -37 58 -6 39 -20 -26 -20 -32
0 -39 -3 -39 -19 0 -30 16 -34 63 -13 76 34 121 114 85 150 -10 10 -10 15 2
22 13 8 12 10 -2 10 -10 0 -18 6 -18 13 0 8 -9 22 -20 32 -11 10 -20 29 -20
43 0 14 -3 23 -6 19 -12 -12 6 -77 21 -77 8 0 15 -4 15 -9 0 -4 -10 -7 -22 -6
-119 15 -205 29 -213 35 -5 4 -28 8 -50 7 -25 0 -39 4 -38 11 4 14 1 15 -31 2
-15 -5 -26 -6 -26 0 0 5 -16 6 -37 3 -33 -6 -36 -4 -31 15 4 12 2 22 -3 22 -5
0 -9 21 -10 48 0 26 -4 65 -8 87 -8 34 -9 28 -10 -42 -1 -67 -4 -83 -16 -83
-9 0 -15 -9 -15 -25 0 -26 -15 -34 -23 -12 -4 10 -6 10 -6 0 -1 -15 -41 -18
-41 -3 0 6 8 10 18 10 10 0 4 7 -15 16 -18 9 -33 23 -33 30 0 8 -9 14 -20 14
-20 0 -20 4 -15 140 5 136 5 140 -15 140 -19 0 -20 -6 -20 -140 l0 -140 -25 0
c-14 0 -25 -6 -25 -12 0 -7 -5 -5 -11 5 -5 9 -19 17 -31 17 -11 0 -27 -8 -34
-17 -12 -16 -13 -13 -14 25 0 23 -5 42 -11 42 -6 0 -9 -14 -7 -32 l3 -33 -69
-3 -69 -3 5 146 c6 138 5 145 -13 145 -18 0 -19 -9 -19 -142 l0 -143 -130 0
-130 0 0 143 c0 137 -1 142 -21 142 -19 0 -20 -4 -17 -141z m-1194 -71 c-1
-51 -3 -74 -5 -50 -4 35 -8 42 -26 43 -21 2 -21 2 1 6 17 3 23 11 22 26 -3 34
0 67 5 67 3 0 4 -42 3 -92z m-21 -54 c-3 -3 -12 -4 -19 -1 -8 3 -5 6 6 6 11 1
17 -2 13 -5z m1763 -29 c0 -8 -9 -15 -20 -15 -11 0 -20 7 -20 15 0 8 9 15 20
15 11 0 20 -7 20 -15z m-358 -6 c3 -8 10 -8 25 2 24 14 40 8 28 -11 -6 -9 -10
-9 -16 1 -6 10 -9 11 -9 2 0 -7 -11 -13 -25 -13 -16 0 -25 6 -25 15 0 18 17
20 22 4z m-1394 -16 c-10 -2 -28 -2 -40 0 -13 2 -5 4 17 4 22 1 32 -1 23 -4z
m90 0 c-10 -2 -26 -2 -35 0 -10 3 -2 5 17 5 19 0 27 -2 18 -5z m1072 -9 c0 -8
-5 -12 -10 -9 -6 4 -8 11 -5 16 9 14 15 11 15 -7z m-150 -10 c0 -2 -13 -4 -30
-4 -16 0 -30 4 -30 8 0 5 14 7 30 4 17 -2 30 -6 30 -8z m110 7 c0 -6 -4 -13
-10 -16 -5 -3 -10 1 -10 9 0 9 5 16 10 16 6 0 10 -4 10 -9z m438 -9 c2 -7 -3
-12 -12 -12 -9 0 -16 7 -16 16 0 17 22 14 28 -4z m172 2 c0 -8 -5 -12 -10 -9
-6 4 -8 11 -5 16 9 14 15 11 15 -7z m-663 0 c-3 -3 -12 -4 -19 -1 -8 3 -5 6 6
6 11 1 17 -2 13 -5z m183 -8 c0 -2 -11 -6 -25 -8 -14 -3 -25 -1 -25 3 0 5 11
9 25 9 14 0 25 -2 25 -4z m190 0 c0 -2 -11 -6 -25 -8 -14 -3 -25 -1 -25 3 0 5
11 9 25 9 14 0 25 -2 25 -4z m67 -2 c-3 -3 -12 -4 -19 -1 -8 3 -5 6 6 6 11 1
17 -2 13 -5z m-217 -39 c0 -14 -4 -25 -9 -25 -4 0 -6 11 -3 25 2 14 6 25 8 25
2 0 4 -11 4 -25z m121 -10 c5 4 9 -1 9 -10 0 -9 -4 -14 -9 -10 -6 3 -12 -14
-14 -37 -2 -30 -4 -23 -4 22 0 36 1 57 4 47 2 -9 9 -15 14 -12z m-64 -7 c-3
-8 -6 -5 -6 6 -1 11 2 17 5 13 3 -3 4 -12 1 -19z m571 3 c52 -1 72 -5 70 -13
-4 -12 -130 -14 -420 -7 -106 2 -138 6 -138 16 0 11 41 12 208 9 114 -3 240
-5 280 -5z m222 -5 c8 -2 -11 -4 -42 -5 -32 0 -58 2 -58 7 0 7 64 6 100 -2z
m-113 -2 c-3 -3 -12 -4 -19 -1 -8 3 -5 6 6 6 11 1 17 -2 13 -5z m213 -32 c0
-27 -2 -29 -45 -28 -47 1 -57 14 -29 36 12 11 15 11 12 0 -2 -8 6 -16 17 -18
16 -4 17 -2 7 11 -11 13 -10 16 10 20 13 2 24 5 26 6 1 0 2 -12 2 -27z m-230
-8 c0 -8 -4 -12 -10 -9 -5 3 -10 13 -10 21 0 8 5 12 10 9 6 -3 10 -13 10 -21z
m303 11 c-3 -9 -8 -14 -10 -11 -3 3 -2 9 2 15 9 16 15 13 8 -4z m-793 -5 c0
-5 -4 -10 -10 -10 -5 0 -10 5 -10 10 0 6 5 10 10 10 6 0 10 -4 10 -10z m80 0
c0 -5 -4 -10 -10 -10 -5 0 -10 5 -10 10 0 6 5 10 10 10 6 0 10 -4 10 -10z m80
0 c0 -5 -5 -10 -11 -10 -5 0 -7 5 -4 10 3 6 8 10 11 10 2 0 4 -4 4 -10z m85 0
c3 -5 -1 -10 -10 -10 -9 0 -13 5 -10 10 3 6 8 10 10 10 2 0 7 -4 10 -10z m85
2 c0 -13 -12 -22 -22 -16 -10 6 -1 24 13 24 5 0 9 -4 9 -8z m80 -7 c0 -8 -4
-15 -10 -15 -5 0 -10 7 -10 15 0 8 5 15 10 15 6 0 10 -7 10 -15z m183 -1 c4
-1 12 -2 17 -3 19 -2 10 -17 -10 -17 -11 0 -20 4 -20 8 0 4 -7 5 -15 2 -8 -4
-15 -2 -15 3 0 15 12 23 24 15 6 -4 14 -7 19 -8z m291 -8 c-5 -20 -2 -25 18
-28 l23 -3 -23 -7 c-25 -7 -48 22 -38 48 9 24 27 16 20 -10z m-103 -13 c9 -59
8 -73 -6 -73 -11 0 -15 11 -15 40 0 22 5 40 10 40 6 0 11 -3 11 -7z m-51 -78
c0 -5 -5 -3 -10 5 -5 8 -10 20 -10 25 0 6 5 3 10 -5 5 -8 10 -19 10 -25z
m-930 15 c0 -5 -7 -10 -15 -10 -8 0 -15 5 -15 10 0 6 7 10 15 10 8 0 15 -4 15
-10z m818 -1 c-13 -7 -599 -14 -796 -9 -7 0 -11 3 -9 8 3 4 189 8 414 9 267 1
402 -1 391 -8z m-288 -39 c0 -5 -9 -10 -19 -10 -11 0 -23 5 -26 10 -4 6 5 10
19 10 14 0 26 -4 26 -10z m40 0 c0 -5 -4 -10 -9 -10 -6 0 -13 5 -16 10 -3 6 1
10 9 10 9 0 16 -4 16 -10z m70 0 c0 -5 -2 -10 -4 -10 -3 0 -8 5 -11 10 -3 6
-1 10 4 10 6 0 11 -4 11 -10z m70 0 c0 -5 -11 -10 -25 -10 -14 0 -25 5 -25 10
0 6 11 10 25 10 14 0 25 -4 25 -10z m240 0 c-36 -12 -100 -12 -100 0 0 6 27
10 63 9 46 -1 56 -3 37 -9z m65 0 c3 -5 -1 -10 -9 -10 -9 0 -16 5 -16 10 0 6
4 10 9 10 6 0 13 -4 16 -10z m-5 -40 c0 -11 -4 -20 -10 -20 -5 0 -10 9 -10 20
0 11 5 20 10 20 6 0 10 -9 10 -20z m-960 0 c0 -5 -7 -7 -15 -4 -8 4 -15 8 -15
10 0 2 7 4 15 4 8 0 15 -4 15 -10z m87 -42 c-3 -7 -5 -2 -5 12 0 14 2 19 5 13
2 -7 2 -19 0 -25z m-122 -18 c3 -5 -1 -10 -9 -10 -9 0 -16 5 -16 10 0 6 4 10
9 10 6 0 13 -4 16 -10z m73 -37 c5 -21 10 -30 11 -20 1 23 25 17 29 -7 3 -13
-2 -17 -20 -14 -15 2 -24 11 -26 26 -4 25 -14 27 -44 11 -27 -15 -35 -3 -13
21 29 32 52 25 63 -17z m32 21 c0 -8 -4 -12 -10 -9 -5 3 -10 10 -10 16 0 5 5
9 10 9 6 0 10 -7 10 -16z m75 -4 c8 -13 -15 -13 -35 0 -12 8 -11 10 7 10 12 0
25 -4 28 -10z m35 1 c0 -6 -4 -13 -10 -16 -5 -3 -10 1 -10 9 0 9 5 16 10 16 6
0 10 -4 10 -9z m-37 -28 c21 -7 22 -36 1 -53 -12 -11 -18 -10 -31 3 -15 15
-15 17 0 23 22 8 22 22 1 20 -9 0 -19 5 -22 13 -3 11 0 12 14 6 11 -4 27 -10
37 -12z m-129 -8 c-6 -16 -24 -21 -24 -7 0 11 11 22 21 22 5 0 6 -7 3 -15z
m-8 -29 c15 -12 16 -17 7 -27 -10 -10 -17 -9 -33 6 -36 33 -14 50 26 21z m92
-27 c2 -11 -5 -18 -20 -21 -35 -6 -47 0 -41 23 7 25 56 23 61 -2z"/>
<path d="M1672 1875 c0 -16 2 -22 5 -12 2 9 2 23 0 30 -3 6 -5 -1 -5 -18z"/>
<path d="M1778 1853 c6 -2 18 -2 25 0 6 3 1 5 -13 5 -14 0 -19 -2 -12 -5z"/>
<path d="M2647 1803 c-4 -3 -7 -11 -7 -17 0 -6 5 -5 12 2 6 6 9 14 7 17 -3 3
-9 2 -12 -2z"/>
<path d="M2605 1770 c-19 -8 -19 -9 3 -9 12 -1 22 4 22 9 0 6 -1 10 -2 9 -2 0
-12 -4 -23 -9z"/>
<path d="M2648 1763 c7 -3 16 -2 19 1 4 3 -2 6 -13 5 -11 0 -14 -3 -6 -6z"/>
<path d="M2680 1359 c0 -5 5 -7 10 -4 6 3 10 8 10 11 0 2 -4 4 -10 4 -5 0 -10
-5 -10 -11z"/>
<path d="M2705 1340 c-3 -5 -1 -10 4 -10 6 0 11 5 11 10 0 6 -2 10 -4 10 -3 0
-8 -4 -11 -10z"/>
<path d="M2740 1339 c0 -5 5 -7 10 -4 6 3 10 8 10 11 0 2 -4 4 -10 4 -5 0 -10
-5 -10 -11z"/>
<path d="M1700 943 c1 -71 1 -137 1 -148 -1 -22 -48 -50 -54 -32 -2 6 -10 6
-24 -2 -12 -6 -26 -11 -32 -11 -7 0 -11 55 -13 153 -3 127 -5 152 -18 152 -12
0 -16 -20 -18 -112 -1 -64 -7 -113 -12 -113 -6 0 -10 -11 -10 -25 0 -17 -6
-25 -17 -25 -15 0 -16 -2 -3 -10 11 -7 4 -8 -24 -6 l-38 3 0 137 c0 127 -1
136 -19 136 -18 0 -19 -9 -19 -143 l0 -142 -40 -13 c-22 -6 -52 -12 -67 -12
-16 0 -41 -7 -57 -15 -19 -10 -59 -15 -127 -15 -117 0 -112 -6 -129 137 -13
113 -16 123 -44 123 -21 0 -22 -3 -21 -125 0 -124 0 -125 23 -125 13 0 21 -4
17 -9 -3 -5 -21 -7 -40 -4 -71 11 -32 -13 73 -46 165 -52 158 -48 138 -70 -20
-23 -76 -17 -76 8 0 18 -18 41 -32 41 -4 0 -3 -12 3 -26 5 -15 8 -28 6 -30 -2
-2 -22 -5 -45 -7 l-42 -3 22 25 c22 25 22 25 -7 -1 l-31 -27 -453 -6 c-250 -3
-456 -7 -458 -9 -8 -8 92 -18 272 -26 239 -12 277 -12 250 0 -12 5 56 9 173 9
170 1 192 -1 192 -15 0 -9 -6 -14 -13 -11 -8 3 -20 1 -28 -4 -11 -7 -9 -9 9
-9 12 0 22 -4 22 -9 0 -4 -12 -7 -26 -5 -30 3 -28 -16 3 -30 12 -6 26 -24 32
-40 l11 -31 -5 33 c-4 27 -1 32 15 32 11 0 20 5 20 10 0 6 -6 10 -14 10 -8 0
-18 5 -21 11 -5 7 3 9 21 7 17 -2 28 -8 27 -15 -2 -9 10 -13 36 -13 43 0 60
-21 39 -48 -10 -11 -5 -10 15 3 l29 18 -6 -44 c-8 -54 10 -93 44 -97 l25 -4
-21 24 c-28 30 -37 59 -28 93 l7 26 33 -32 c37 -36 46 -68 24 -87 -13 -11 -13
-11 1 -7 10 4 20 -5 30 -26 32 -72 85 -54 96 32 3 24 11 47 17 51 8 5 7 8 -1
8 -7 0 -13 8 -13 18 0 32 -21 91 -38 108 -16 16 -15 17 13 10 17 -4 38 -16 47
-26 10 -10 26 -21 38 -25 27 -9 25 -21 -7 -40 -16 -9 -20 -14 -10 -11 50 16
67 17 67 7 0 -5 -18 -16 -40 -22 -22 -7 -38 -14 -35 -17 2 -3 26 3 52 13 39
15 48 16 51 4 7 -19 73 -81 80 -75 3 3 -1 12 -7 20 -19 22 -9 57 21 79 35 26
39 21 23 -25 -12 -35 -11 -38 6 -38 11 0 24 -11 31 -25 12 -27 16 -29 37 -16
10 7 9 11 -6 22 -22 15 -38 75 -23 84 5 3 14 -12 21 -34 13 -42 27 -51 90 -51
31 0 38 -4 49 -30 14 -35 41 -53 65 -44 18 7 40 43 31 52 -3 3 -6 0 -6 -6 0
-7 -4 -12 -10 -12 -5 0 -10 6 -10 14 0 10 20 15 73 18 39 3 76 1 82 -4 14 -13
23 -9 21 9 -1 13 10 19 43 24 36 5 51 14 82 50 21 24 39 51 39 59 0 12 12 14
57 12 32 -2 62 -7 66 -11 4 -5 -1 -32 -12 -62 -25 -64 -26 -76 -6 -59 8 7 17
28 21 49 14 85 22 87 48 11 14 -41 14 -46 -1 -57 -11 -9 -13 -13 -4 -13 28 0
90 76 97 117 6 40 7 41 52 46 61 7 87 -7 101 -52 6 -21 23 -48 38 -62 20 -17
23 -18 10 -3 -23 28 -22 36 16 62 18 12 25 22 17 22 -9 0 -26 -7 -39 -16 -19
-14 -25 -14 -32 -3 -15 24 -10 39 14 40 12 0 37 2 55 3 22 3 35 -2 42 -13 6
-10 9 -12 10 -3 0 7 4 11 9 7 5 -3 12 -1 16 5 5 8 68 -10 83 -24 7 -7 -29 -67
-43 -72 -7 -3 -16 -12 -19 -20 -4 -11 0 -10 19 3 34 26 67 105 63 156 l-3 42
48 0 c26 0 47 3 47 7 0 4 7 5 15 2 8 -4 15 -1 15 5 0 7 -24 11 -65 11 -58 0
-68 3 -102 32 -32 27 -34 28 -14 5 l24 -27 -25 0 c-32 0 -68 -47 -47 -61 8 -5
9 -9 4 -9 -6 0 -17 6 -24 13 -11 10 -13 9 -8 -5 7 -19 -8 -25 -18 -8 -8 13
-25 13 -25 0 0 -5 6 -10 14 -10 8 0 18 -5 22 -12 5 -8 -2 -9 -27 -4 -19 3 -35
11 -37 16 -2 6 -11 10 -20 9 -11 0 -12 -2 -4 -6 6 -2 12 -9 12 -14 0 -4 -7 -6
-15 -3 -8 4 -15 14 -15 24 0 19 19 30 51 30 19 0 19 2 5 21 -13 19 -13 24 2
47 16 24 16 25 -5 13 -12 -6 -26 -18 -31 -27 -7 -13 -29 -16 -105 -17 -84 -2
-98 0 -119 19 -12 12 -30 24 -38 28 -8 4 -3 -2 13 -14 34 -27 34 -35 0 -37
-15 0 -29 -7 -31 -13 -3 -7 -13 -21 -23 -31 -11 -11 -19 -24 -19 -30 0 -8 -5
-7 -15 1 -9 7 -19 10 -22 6 -4 -4 -1 -11 7 -16 32 -20 -2 -21 -40 -1 -22 11
-40 16 -40 11 0 -6 5 -10 10 -10 6 0 10 -4 10 -10 0 -5 -7 -7 -15 -4 -9 4 -15
19 -15 39 0 39 17 55 28 28 4 -11 18 -18 34 -18 24 -1 26 1 13 15 -18 20 -19
61 -2 80 8 9 4 9 -13 -2 -14 -9 -24 -24 -23 -34 1 -11 0 -13 -3 -6 -4 8 -10 9
-17 4 -26 -20 -60 -20 -96 -1 -19 10 -28 19 -19 19 11 0 15 6 11 20 -4 14 0
20 11 20 11 0 16 8 15 28 -1 16 -3 20 -6 10 -3 -13 -14 -18 -41 -17 -52 1 -90
13 -74 23 20 12 14 24 -15 28 -26 3 -28 6 -29 56 -1 74 -14 78 -14 4 0 -35 -4
-62 -10 -62 -5 0 -10 -8 -10 -19 0 -20 -25 -31 -72 -31 -18 0 -28 5 -28 15 0
8 5 15 11 15 5 0 7 -4 4 -10 -3 -5 -1 -10 4 -10 6 0 11 4 11 8 0 5 14 7 30 4
17 -2 30 0 30 5 0 6 -11 9 -25 8 -14 -2 -27 1 -30 5 -3 5 -12 7 -19 4 -7 -3
-16 2 -19 11 -4 8 -18 20 -32 25 l-26 10 3 155 3 155 -23 0 c-23 0 -23 0 -22
-127z m35 -203 c-3 -5 -11 -10 -16 -10 -6 0 -7 5 -4 10 3 6 11 10 16 10 6 0 7
-4 4 -10z m29 -31 c-3 -6 0 -15 7 -20 10 -6 8 -9 -8 -9 -34 0 -29 30 5 39 2 1
0 -4 -4 -10z m-417 -21 c-3 -8 -6 -5 -6 6 -1 11 2 17 5 13 3 -3 4 -12 1 -19z
m283 8 c0 -2 -7 -6 -15 -10 -8 -3 -15 -1 -15 4 0 6 7 10 15 10 8 0 15 -2 15
-4z m340 -47 c0 -5 -4 -7 -10 -4 -5 3 -10 -1 -10 -9 0 -9 -4 -16 -10 -16 -14
0 -12 27 3 33 20 9 27 8 27 -4z m-65 -9 c3 -5 1 -10 -4 -10 -6 0 -11 5 -11 10
0 6 2 10 4 10 3 0 8 -4 11 -10z m135 -10 c0 -11 -7 -20 -15 -20 -8 0 -15 5
-15 11 0 5 5 7 10 4 6 -3 10 -2 10 4 0 5 -6 12 -12 14 -8 3 -6 6 5 6 11 1 17
-6 17 -19z m-50 0 c0 -5 -8 -10 -17 -10 -15 0 -16 2 -3 10 19 12 20 12 20 0z
m-440 -67 c0 -18 6 -23 25 -23 14 0 25 5 25 12 0 6 2 9 6 6 3 -3 -2 -21 -10
-39 -9 -19 -13 -24 -10 -11 4 16 1 22 -11 22 -12 0 -15 -6 -10 -22 l6 -23 -19
24 c-11 13 -17 33 -14 46 2 12 -1 26 -7 29 -6 4 -11 15 -11 24 1 28 30 -17 30
-45z m76 19 c-18 -16 -18 -16 -6 6 6 13 14 21 18 18 3 -4 -2 -14 -12 -24z
m-452 2 c23 -9 20 -24 -4 -24 -11 0 -20 7 -20 15 0 17 2 18 24 9z m1611 -14
c-3 -5 0 -7 8 -4 11 4 16 -7 22 -41 7 -51 3 -63 -17 -48 -7 6 -26 13 -43 17
l-30 8 25 18 c21 16 22 18 5 21 -18 4 -18 5 -1 22 19 18 41 24 31 7z m-790
-26 c0 -25 -26 -24 -35 2 -7 17 -4 20 13 19 14 -1 22 -8 22 -21z m143 -5 c8
-12 10 -33 6 -54 -8 -43 -22 -47 -16 -5 3 19 -2 38 -10 48 -26 30 -29 40 -10
35 10 -2 24 -13 30 -24z m337 18 c22 2 51 0 65 -3 23 -6 24 -7 5 -14 -29 -12
-93 -12 -100 0 -3 6 -14 10 -24 10 -21 0 -36 -39 -21 -54 6 -6 10 -19 9 -30 0
-12 -3 -15 -6 -9 -2 7 -23 18 -46 24 -37 10 -40 12 -24 24 18 13 24 31 7 20
-16 -10 -12 12 6 30 12 12 25 14 52 8 21 -4 55 -7 77 -6z m-1000 -7 c-3 -5 3
-10 14 -10 13 0 18 -5 15 -13 -3 -8 7 -19 23 -27 15 -7 23 -14 17 -17 -6 -2
-34 8 -63 22 -55 28 -68 55 -25 55 14 0 23 -4 19 -10z m-500 -16 c23 -15 27
-15 49 -1 23 15 24 15 31 -6 5 -17 8 -19 13 -7 9 19 42 22 42 4 0 -15 -12 -24
-42 -29 -12 -3 -25 -10 -30 -17 -6 -10 -14 -9 -39 4 -18 11 -40 16 -54 12 -28
-7 -40 9 -25 36 13 24 23 25 55 4z m434 1 c-3 -2 -62 -5 -132 -6 -70 0 -129
-5 -133 -10 -3 -5 -10 -9 -16 -9 -7 0 -6 6 2 15 10 12 40 15 148 15 74 0 133
-2 131 -5z m400 1 c-7 -7 -179 -9 -186 -2 -3 3 38 6 92 6 54 0 96 -2 94 -4z
m-599 -33 c0 -8 -4 -11 -10 -8 -13 8 -50 -12 -50 -27 0 -9 3 -9 12 0 19 19 30
14 18 -7 -5 -11 -9 -28 -9 -38 1 -17 2 -17 6 0 2 9 8 17 13 17 9 0 25 -58 18
-65 -2 -3 -23 5 -45 16 -37 18 -41 23 -36 50 4 25 1 29 -18 29 -33 0 -9 22 39
36 50 14 62 13 62 -3z m480 -5 c-20 -22 -80 -35 -80 -18 0 7 71 37 93 39 4 1
-2 -9 -13 -21z m-393 6 c-3 -3 -12 -4 -19 -1 -8 3 -5 6 6 6 11 1 17 -2 13 -5z
m143 -28 c0 -11 15 -16 53 -18 l52 -3 -52 -27 c-29 -16 -57 -28 -62 -28 -14 0
-22 31 -11 45 6 7 8 20 4 29 -3 9 -1 16 5 16 6 0 11 -7 11 -14z m-210 -23 c0
-21 3 -24 10 -13 14 23 24 -13 11 -39 -10 -17 -9 -20 4 -15 17 7 21 -11 4 -22
-8 -4 -7 -9 2 -15 7 -4 10 -11 7 -14 -13 -13 -26 6 -33 45 -4 22 -11 38 -16
34 -5 -3 -9 11 -9 30 0 20 5 36 10 36 6 0 10 -12 10 -27z m1143 -5 c32 -16 33
-23 5 -68 l-21 -35 -7 25 c-4 14 -15 40 -24 58 -16 30 -16 32 2 32 10 0 30 -6
45 -12z m-695 -34 c30 -20 28 -29 -8 -32 -16 -1 -30 3 -30 8 0 6 6 8 13 5 6
-4 3 1 -7 9 -11 9 -23 16 -28 16 -4 0 -8 5 -8 11 0 12 34 4 68 -17z m352 -4
c0 -5 -2 -10 -4 -10 -3 0 -8 5 -11 10 -3 6 -1 10 4 10 6 0 11 -4 11 -10z
m-560 -67 c0 -13 -3 -13 -15 -3 -8 7 -15 16 -15 21 0 5 7 6 15 3 8 -4 15 -13
15 -21z m-276 2 c-6 -16 -24 -21 -24 -7 0 11 11 22 21 22 5 0 6 -7 3 -15z m11
-63 c-6 -23 -8 -24 -16 -9 -7 11 -6 24 2 39 15 28 24 9 14 -30z m53 7 c4 -36
-11 -32 -22 6 -3 11 -4 1 -2 -22 3 -33 1 -43 -11 -43 -14 0 -13 23 4 83 8 29
28 14 31 -24z m512 11 c0 -11 -4 -20 -10 -20 -5 0 -10 2 -10 4 0 2 -3 11 -6
20 -4 11 -1 16 10 16 9 0 16 -8 16 -20z m30 -10 c0 -11 0 -23 1 -27 0 -4 -4
-9 -10 -11 -6 -2 -11 10 -11 27 0 17 5 31 10 31 6 0 10 -9 10 -20z"/>
<path d="M990 506 c0 -2 7 -7 16 -10 8 -3 12 -2 9 4 -6 10 -25 14 -25 6z"/>
<path d="M1660 490 c-9 -6 -10 -10 -3 -10 6 0 15 5 18 10 8 12 4 12 -15 0z"/>
<path d="M1824 815 c0 -49 1 -71 3 -48 2 23 2 64 0 90 -2 26 -3 8 -3 -42z"/>
<path d="M1331 814 c0 -11 3 -14 6 -6 3 7 2 16 -1 19 -3 4 -6 -2 -5 -13z"/>
<path d="M1331 774 c0 -11 3 -14 6 -6 3 7 2 16 -1 19 -3 4 -6 -2 -5 -13z"/>
<path d="M813 683 c9 -2 23 -2 30 0 6 3 -1 5 -18 5 -16 0 -22 -2 -12 -5z"/>
<path d="M2090 610 c0 -6 7 -10 15 -10 8 0 15 2 15 4 0 2 -7 6 -15 10 -8 3
-15 1 -15 -4z"/>
<path d="M2670 583 c0 -5 5 -15 10 -23 8 -12 10 -11 10 8 0 12 -4 22 -10 22
-5 0 -10 -3 -10 -7z"/>
<path d="M2260 566 c0 -8 5 -18 10 -21 6 -3 10 3 10 14 0 12 -4 21 -10 21 -5
0 -10 -6 -10 -14z"/>
<path d="M688 513 c12 -2 30 -2 40 0 9 3 -1 5 -23 4 -22 0 -30 -2 -17 -4z"/>
<path d="M761 496 c2 -2 20 -6 39 -10 25 -4 31 -3 20 4 -14 9 -69 15 -59 6z"/>
<path d="M2205 430 c-21 -11 -42 -17 -46 -14 -22 13 -6 -20 24 -49 17 -18 23
-23 13 -10 -19 23 -19 23 9 45 16 13 33 26 39 30 26 17 -4 16 -39 -2z"/>
<path d="M2736 410 c7 -28 12 -35 18 -29 2 2 -2 15 -10 29 l-15 25 7 -25z"/>
<path d="M2668 382 c-9 -23 -12 -42 -7 -42 12 0 31 48 27 69 -2 9 -11 -3 -20
-27z"/>
<path d="M958 312 c18 -19 36 -32 38 -29 2 2 -2 19 -10 38 -14 30 -15 31 -16
10 0 -24 0 -24 -23 -5 -13 10 -8 4 11 -14z"/>
<path d="M2001 263 c-1 -16 -7 -23 -21 -23 -11 0 -20 -4 -20 -10 0 -5 7 -7 15
-4 10 4 15 0 15 -12 0 -16 2 -16 20 4 21 22 27 37 11 27 -5 -3 -12 5 -14 17
l-4 23 -2 -22z"/>
</g>
</svg>
