<?xml version="1.0" standalone="no"?>
<!DOCTYPE svg PUBLIC "-//W3C//DTD SVG 20010904//EN"
 "http://www.w3.org/TR/2001/REC-SVG-20010904/DTD/svg10.dtd">
<svg version="1.0" xmlns="http://www.w3.org/2000/svg"
 width="519.000000pt" height="481.000000pt" viewBox="0 0 519.000000 481.000000"
 preserveAspectRatio="xMidYMid meet">

<g transform="translate(0.000000,481.000000) scale(0.100000,-0.100000)"
fill="#000000" stroke="none">
<path d="M4507 4540 c-101 -16 -286 -107 -270 -133 3 -5 1 -7 -4 -4 -13 8 -80
-55 -121 -115 -41 -60 -65 -121 -95 -246 l-24 -102 56 -34 c101 -60 95 -59
148 -33 76 38 178 60 285 61 54 1 98 3 98 6 1 31 24 142 36 170 34 80 68 142
81 147 7 3 13 10 13 17 0 10 32 44 167 179 l43 42 -88 21 c-105 26 -245 36
-325 24z m263 -90 c0 -5 -2 -10 -4 -10 -3 0 -8 5 -11 10 -3 6 -1 10 4 10 6 0
11 -4 11 -10z"/>
<path d="M2545 4116 c-257 -29 -572 -97 -590 -127 -4 -5 -11 -9 -17 -9 -7 0
-6 6 2 15 18 21 -4 19 -23 -3 -18 -20 -47 -122 -46 -162 0 -23 1 -23 9 -5 5
11 9 34 9 50 1 17 8 40 16 51 8 12 13 23 12 26 -1 2 5 -4 15 -14 10 -11 23
-16 35 -12 16 6 17 6 2 -7 -10 -8 -20 -25 -24 -39 -7 -24 -6 -24 8 -6 8 12 20
17 31 13 11 -4 16 -1 17 11 0 10 3 12 6 5 8 -22 23 -14 23 11 0 19 10 29 45
46 25 12 50 20 56 18 13 -4 -33 -60 -47 -57 -22 4 -35 -2 -28 -12 4 -8 9 -7
15 2 5 8 6 -3 2 -26 -3 -22 -10 -41 -15 -43 -17 -7 -7 -24 12 -19 11 3 20 1
20 -5 0 -5 10 -6 21 -3 19 6 21 4 17 -24 -3 -22 -1 -28 7 -21 17 14 27 0 13
-18 -17 -20 -20 -54 -6 -64 10 -6 10 -8 1 -8 -7 0 -16 0 -20 -1 -9 0 -27 -40
-25 -51 1 -5 -2 -8 -7 -8 -6 0 -22 -11 -37 -25 -31 -29 -44 -32 -44 -10 0 8
-4 15 -10 15 -5 0 -10 7 -10 15 0 8 -7 15 -16 15 -11 0 -14 6 -9 23 5 16 4 18
-4 8 -8 -13 -12 -13 -27 0 -16 13 -17 12 -10 -6 14 -35 12 -49 -9 -53 -15 -2
-17 -1 -6 6 18 13 -4 56 -26 48 -9 -4 -13 -1 -10 6 2 7 13 12 23 10 11 -2 15
0 8 5 -6 4 -11 15 -12 23 -2 56 -16 110 -26 99 -5 -6 -15 -144 -16 -221 0 -61
-2 -68 -20 -68 -16 0 -20 7 -20 30 0 19 -7 34 -20 42 -24 16 -25 26 -3 50 13
14 13 18 2 18 -21 0 -66 43 -64 60 2 8 4 22 6 30 3 9 -3 14 -13 14 -10 -1 -18
2 -18 7 0 5 6 9 13 9 7 0 22 7 33 16 18 15 18 15 -9 9 -26 -5 -27 -4 -15 15
14 23 25 25 30 8 3 -8 12 -4 26 10 12 12 22 24 22 27 0 3 9 15 20 27 10 12 17
26 13 31 -3 6 -1 7 5 3 14 -8 23 7 13 23 -11 17 -145 -45 -137 -64 3 -8 -2
-19 -10 -25 -11 -10 -14 -9 -14 9 0 21 -1 21 -30 6 -16 -8 -35 -15 -43 -15
-40 0 -64 -66 -79 -222 -6 -65 -15 -118 -20 -118 -9 0 -10 12 -8 95 1 53 9
106 26 170 4 16 0 15 -20 -8 -14 -15 -26 -25 -26 -20 0 18 -99 -93 -121 -135
-34 -68 -34 -187 0 -255 22 -43 91 -115 180 -189 26 -22 31 -32 25 -50 -4 -13
-15 -29 -25 -36 -34 -24 -18 -82 22 -82 9 0 24 -10 33 -22 l17 -23 -11 22 c-8
18 -7 29 6 48 9 14 14 28 11 31 -3 3 3 14 14 25 18 18 21 17 139 -38 113 -53
121 -58 118 -83 -2 -15 -11 -35 -21 -44 -27 -27 -21 -54 16 -76 32 -19 37 -30
82 -182 27 -88 50 -157 52 -152 1 5 -19 81 -46 168 -44 143 -48 161 -34 171 9
7 16 25 15 41 0 16 6 38 14 48 13 19 17 19 151 -12 299 -69 474 -87 763 -78
211 6 349 24 463 60 23 7 67 20 97 29 30 8 86 25 124 36 49 15 73 18 80 11 7
-7 7 -13 1 -18 -11 -7 -45 -78 -45 -90 1 -4 8 6 16 22 14 25 18 27 31 13 13
-13 1 -42 -111 -263 -123 -245 -178 -342 -136 -240 41 97 13 53 -41 -67 -31
-67 -59 -120 -64 -119 -4 2 -12 -2 -17 -10 -7 -10 -11 -10 -15 0 -6 14 -33 16
-33 2 0 -5 -12 -12 -27 -16 -59 -13 -132 -38 -129 -43 2 -3 -8 -6 -23 -7 -54
-2 -169 -55 -220 -100 -27 -24 -51 -44 -54 -44 -4 0 -9 28 -24 133 l-5 37 72
0 73 0 -6 36 c-13 76 -49 90 -188 73 -156 -19 -185 -46 -182 -169 2 -94 -18
-173 -69 -268 -37 -67 -42 -72 -73 -72 -24 0 -55 -15 -107 -49 l-73 -49 -3 61
c-1 34 -5 69 -9 77 -3 8 -6 18 -5 22 1 3 -5 9 -13 12 -13 4 -15 -13 -17 -107
l-2 -112 -5 105 c-4 58 -10 100 -14 93 -4 -7 -14 -10 -21 -7 -8 3 -17 1 -21
-5 -3 -6 -21 -11 -38 -11 -26 0 -29 2 -17 11 12 9 11 9 -5 4 -11 -5 -32 -10
-47 -13 -26 -4 -28 -2 -28 27 0 24 6 34 25 41 14 5 25 14 25 19 0 11 -61 30
-100 32 -21 1 -19 2 9 9 27 6 99 3 219 -10 1 0 2 -8 2 -17 0 -14 2 -15 9 -4 7
11 11 10 20 -5 10 -18 11 -18 17 3 3 12 15 25 25 28 24 8 27 70 3 79 -8 3 -12
10 -9 16 10 16 -4 48 -25 55 -13 4 -25 25 -36 60 -10 30 -20 53 -22 50 -2 -2
3 -25 12 -51 17 -49 14 -64 -10 -64 -8 0 -12 -5 -8 -11 4 -8 9 -8 17 0 27 27
74 -1 63 -36 -8 -24 -46 -25 -67 -1 -15 17 -17 17 -23 2 -6 -15 -18 -16 -104
-10 -118 9 -142 14 -142 32 0 8 -7 14 -15 14 -25 0 -17 37 9 44 19 5 25 14 28
39 3 32 3 32 78 43 41 7 78 10 81 8 3 -1 3 10 1 27 -2 16 -10 29 -18 29 -8 0
-14 6 -14 13 0 9 -2 9 -9 -1 -6 -10 -48 -13 -172 -13 -90 0 -169 -3 -175 -7
-12 -8 -26 -92 -15 -92 12 0 8 -74 -5 -88 -7 -6 -26 -12 -43 -12 -36 0 -48 29
-35 85 13 51 30 39 26 -17 -3 -39 -1 -48 12 -48 10 0 16 10 17 28 3 51 -2 135
-7 144 -7 10 -57 6 -85 -6 -11 -5 -21 3 -35 30 -19 36 -76 74 -111 74 -17 0
-18 13 -18 174 0 96 4 178 8 182 21 21 -5 126 -34 136 -13 4 24 205 47 252 9
19 11 33 5 40 -6 7 -6 27 -2 48 9 39 1 52 -46 77 -26 13 -31 7 -41 -51 l-8
-43 -145 -5 c-97 -3 -151 -9 -161 -18 -36 -29 -47 -164 -22 -268 5 -19 0 -22
-44 -28 -39 -5 -51 -11 -60 -32 -17 -37 -15 -99 4 -115 13 -10 14 -22 8 -54
-4 -22 -9 -91 -10 -153 -1 -62 -4 -115 -7 -118 -3 -3 -21 -1 -40 5 -32 11 -36
16 -41 59 -3 26 -6 189 -8 362 l-3 315 88 5 c92 5 113 19 50 33 -38 9 -352 2
-361 -8 -13 -13 17 -20 99 -23 49 -2 89 -5 89 -5 5 -16 16 -704 12 -709 -11
-11 -187 69 -190 86 -4 20 -2 20 -142 0 -104 -15 -150 -31 -150 -54 0 -4 45
-27 100 -51 90 -39 100 -46 100 -70 0 -14 3 -47 6 -72 l6 -45 -47 -22 c-43
-20 -46 -23 -32 -37 9 -9 38 -18 66 -21 34 -3 51 -9 51 -18 0 -8 5 -14 10 -14
6 0 10 5 10 10 0 21 39 10 42 -12 2 -18 11 -24 36 -26 18 -2 36 -10 39 -18 3
-8 9 -14 15 -14 5 0 7 4 3 9 -8 13 41 7 58 -7 8 -7 17 -9 21 -5 4 4 4 0 1 -9
-4 -9 -1 -19 6 -24 9 -5 11 2 7 27 -7 43 -1 59 22 59 10 0 20 4 22 9 2 5 17
11 33 13 25 3 31 -1 33 -22 2 -13 10 -29 18 -35 11 -8 14 -64 14 -285 1 -151
1 -285 0 -297 0 -16 -4 -21 -15 -16 -13 4 -12 -3 5 -36 19 -36 21 -51 16 -128
-10 -160 -17 -197 -37 -211 -11 -7 -19 -21 -19 -31 0 -22 -48 -45 -93 -43 -63
3 -107 -30 -74 -55 15 -12 129 -53 146 -53 12 0 41 -24 41 -34 0 -3 -17 -13
-37 -22 -102 -45 -123 -56 -123 -65 0 -5 4 -9 10 -9 6 0 5 -10 -2 -25 -12 -28
-43 -33 -52 -10 -10 27 -23 16 -24 -20 -1 -19 3 -35 8 -35 6 0 10 5 10 10 0 6
9 10 20 10 26 0 25 -8 -4 -31 -32 -25 -68 -121 -60 -157 10 -40 40 -78 72 -91
16 -7 45 -32 65 -55 89 -107 233 -116 356 -22 19 14 45 26 58 26 13 0 40 15
60 33 32 30 37 41 41 90 5 66 -9 109 -47 138 -14 11 -33 40 -42 64 l-16 43 31
6 c17 3 52 8 77 11 l47 7 7 -61 7 -61 59 0 c43 0 61 -4 65 -14 3 -8 28 -22 54
-31 40 -13 87 -16 261 -13 159 2 213 6 217 16 7 21 22 13 22 -13 0 -14 5 -25
12 -25 9 0 9 -3 0 -12 -8 -8 -50 -11 -132 -10 l-120 2 0 -29 c0 -16 6 -33 13
-39 13 -11 242 -19 267 -9 8 3 40 8 70 12 69 8 134 36 154 67 9 13 24 89 36
183 23 173 29 205 39 205 12 -1 48 -96 60 -160 31 -170 167 -349 321 -423 107
-51 195 -70 305 -65 265 14 490 184 571 431 23 70 27 100 28 199 l0 118 58 0
c50 0 58 3 58 18 0 12 -14 25 -40 37 -30 14 -40 24 -40 42 l0 23 160 0 160 0
10 26 c13 33 13 67 -1 97 -11 24 -12 24 -120 19 -103 -5 -109 -4 -109 14 0 11
-7 29 -15 41 -12 18 -22 21 -50 16 -21 -3 -35 -2 -35 5 0 5 28 13 63 18 56 6
59 8 32 16 -16 5 -45 6 -62 3 -33 -6 -33 -6 -33 35 0 24 7 48 15 57 14 14 14
18 0 39 -17 26 -20 54 -6 54 17 0 21 33 6 50 -19 21 -19 39 2 62 13 14 14 23
5 41 -6 12 -14 54 -17 92 -16 172 -80 277 -213 345 -24 12 -42 26 -40 31 2 4
57 79 123 165 66 87 119 164 117 172 -2 8 1 11 6 8 5 -3 16 2 23 11 10 12 10
14 2 9 -7 -4 -13 -3 -13 3 0 10 19 26 32 26 3 0 10 4 15 9 5 5 3 6 -4 2 -7 -4
-13 -4 -13 0 0 9 281 393 293 401 6 4 8 -2 5 -15 -3 -12 -1 -23 4 -24 6 -2 21
-45 34 -96 31 -123 64 -183 154 -272 129 -130 253 -180 445 -180 107 0 277 28
298 49 5 5 -25 38 -68 77 -118 106 -191 203 -239 314 -12 28 -36 141 -36 170
0 3 -28 4 -62 2 -125 -7 -357 58 -372 105 -4 10 -16 29 -27 43 l-21 25 16 -27
c20 -34 20 -39 0 -31 -14 5 -14 3 -4 -14 17 -26 5 -70 -20 -78 -29 -9 -55 10
-84 61 -25 45 -25 46 -5 41 27 -7 49 1 49 19 0 8 10 18 23 23 25 10 168 154
186 189 12 22 16 23 119 20 137 -4 317 0 310 7 -3 4 -47 10 -98 16 -50 5 -97
12 -103 17 -7 4 -34 7 -62 8 -27 0 -72 1 -98 2 l-48 2 3 36 3 36 200 -1 c110
-1 225 3 255 9 30 6 81 13 113 16 31 4 57 10 57 15 0 4 -13 17 -30 29 -28 20
-38 21 -152 15 -68 -4 -148 -13 -179 -21 -32 -8 -106 -14 -167 -14 l-110 0
-21 33 c-11 17 -47 59 -80 92 -64 62 -70 77 -46 109 17 22 20 40 6 31 -5 -3
-12 -1 -16 5 -3 5 -16 10 -28 10 -12 0 -37 9 -55 20 -39 24 -46 25 -38 4 5
-12 2 -15 -11 -9 -10 4 -27 10 -38 12 -11 3 -74 31 -140 63 -138 65 -359 124
-600 160 -183 27 -504 34 -670 16z m-165 -46 c0 -5 -7 -10 -15 -10 -8 0 -15 5
-15 10 0 6 7 10 15 10 8 0 15 -4 15 -10z m183 3 c-7 -2 -19 -2 -25 0 -7 3 -2
5 12 5 14 0 19 -2 13 -5z m206 -50 c2 -2 -2 -3 -10 -3 -8 0 -20 10 -28 23
l-14 22 24 -20 c13 -11 26 -21 28 -22z m-162 5 c7 -5 16 -7 20 -5 5 3 9 -2 10
-12 1 -14 -5 -16 -28 -13 -19 3 -29 0 -29 -8 0 -7 -8 -10 -20 -7 -11 3 -20 1
-20 -4 0 -4 -7 -6 -15 -3 -8 4 -13 9 -11 13 3 4 -4 7 -14 7 -26 0 -13 -23 21
-38 29 -13 39 -28 18 -28 -6 0 -9 -7 -5 -15 3 -8 1 -15 -4 -15 -5 0 -10 12
-12 27 -4 34 -26 41 -36 12 l-9 -22 -17 24 c-16 23 -18 23 -31 6 -7 -11 -11
-25 -8 -33 4 -10 0 -12 -11 -8 -19 7 -50 -21 -40 -37 4 -8 3 -9 -4 -5 -8 5
-12 0 -12 -13 0 -22 -24 -29 -36 -9 -4 7 -3 8 4 4 16 -10 15 5 -2 30 -9 12
-11 26 -6 34 4 7 6 19 3 27 -7 18 5 17 24 -3 14 -13 14 -17 2 -24 -7 -5 -10
-12 -6 -16 4 -4 16 3 27 16 11 13 22 21 25 18 3 -2 33 23 68 57 59 59 64 62
102 57 22 -2 45 -9 52 -14z m-327 -3 c0 -8 -4 -15 -10 -15 -5 0 -7 7 -4 15 4
8 8 15 10 15 2 0 4 -7 4 -15z m85 -5 c3 -5 1 -10 -4 -10 -6 0 -11 5 -11 10 0
6 2 10 4 10 3 0 8 -4 11 -10z m-290 -10 c-3 -5 -11 -10 -16 -10 -6 0 -7 5 -4
10 3 6 11 10 16 10 6 0 7 -4 4 -10z m155 -11 c0 -14 -37 -10 -43 4 -4 10 2 13
19 9 13 -2 24 -8 24 -13z m594 -3 c-4 -11 0 -13 15 -9 12 3 21 1 22 -3 7 -78
1 -102 -16 -74 -4 6 -12 7 -18 3 -7 -4 -6 1 2 11 12 15 12 19 1 26 -7 4 -19 6
-27 3 -17 -7 -17 2 3 32 18 28 26 33 18 11z m-634 -51 c0 -16 -6 -25 -15 -25
-8 0 -15 5 -15 10 0 6 5 10 10 10 6 0 10 7 10 15 0 8 2 15 5 15 3 0 5 -11 5
-25z m546 -21 c-4 -9 -9 -15 -11 -12 -3 3 -3 13 1 22 4 9 9 15 11 12 3 -3 3
-13 -1 -22z m-126 -15 c0 -6 -4 -7 -10 -4 -5 3 -10 11 -10 16 0 6 5 7 10 4 6
-3 10 -11 10 -16z m-147 -3 c4 -10 1 -13 -8 -9 -21 7 -31 -26 -15 -51 12 -20
12 -20 -6 -6 -31 24 -33 32 -16 56 19 27 37 30 45 10z m267 -21 c-7 -8 -16
-12 -21 -9 -13 8 -1 24 18 24 13 0 13 -3 3 -15z m-620 -5 c0 -5 -7 -10 -16
-10 -8 0 -12 5 -9 10 3 6 10 10 16 10 5 0 9 -4 9 -10z m37 -12 c-3 -8 -6 -5
-6 6 -1 11 2 17 5 13 3 -3 4 -12 1 -19z m468 12 c-6 -9 14 -14 40 -11 6 1 1
-6 -9 -14 -11 -8 -27 -15 -37 -15 -19 0 -32 37 -15 44 19 8 27 6 21 -4z m80
-10 c3 -5 1 -10 -4 -10 -6 0 -11 5 -11 10 0 6 2 10 4 10 3 0 8 -4 11 -10z
m-275 -53 c0 -5 -7 -6 -16 -3 -9 3 -20 6 -25 6 -5 0 -9 7 -9 15 0 12 4 13 25
3 14 -6 25 -15 25 -21z m-120 -16 c-4 -16 -5 -33 -2 -37 4 -4 1 -5 -6 -3 -15
5 -15 8 -6 44 3 14 10 25 14 25 5 0 5 -13 0 -29z m80 -11 c0 -23 -31 -50 -37
-32 -3 6 -9 10 -14 6 -5 -3 -9 2 -9 10 0 9 5 16 10 16 6 0 9 3 9 8 -3 16 2 20
21 15 11 -3 20 -13 20 -23z m-200 0 c0 -5 -5 -10 -11 -10 -5 0 -7 5 -4 10 3 6
8 10 11 10 2 0 4 -4 4 -10z m1560 -29 c5 -11 10 -46 10 -79 0 -45 -3 -59 -15
-59 -12 0 -15 13 -15 56 0 31 -3 66 -6 79 -8 27 11 30 26 3z m-2089 -45 c-7
-8 -9 -20 -6 -27 4 -6 11 -27 15 -45 7 -29 4 -37 -14 -52 -13 -9 -21 -22 -19
-28 2 -6 -4 -17 -13 -25 -15 -12 -16 -12 -10 9 5 14 3 22 -4 22 -6 0 -8 5 -4
12 9 15 9 47 0 69 -4 10 5 28 26 52 18 20 34 34 37 32 2 -3 -2 -11 -8 -19z
m-175 -81 c-12 -85 -13 -88 -22 -55 -10 34 -8 47 19 123 16 45 16 28 3 -68z
m664 16 c0 -12 -20 -25 -27 -18 -7 7 6 27 18 27 5 0 9 -4 9 -9z m-710 -41
c-12 -22 -40 -27 -40 -7 0 19 10 27 32 27 16 0 17 -3 8 -20z m526 -44 c0 -16
-9 -29 -25 -38 -15 -7 -29 -17 -33 -23 -5 -6 -8 -5 -8 2 0 7 9 18 20 25 11 7
20 18 20 23 0 9 19 35 25 35 1 0 1 -11 1 -24z m2092 -23 c-6 -7 -18 -13 -27
-13 -14 1 -14 2 2 11 9 5 17 18 17 27 0 14 2 15 10 2 5 -9 5 -19 -2 -27z
m-2033 7 c3 -5 1 -10 -4 -10 -6 0 -11 5 -11 10 0 6 2 10 4 10 3 0 8 -4 11 -10z
m2262 -36 c-3 -3 -12 -4 -19 -1 -8 3 -5 6 6 6 11 1 17 -2 13 -5z m-144 -21
c-13 -2 -33 -2 -45 0 -13 2 -3 4 22 4 25 0 35 -2 23 -4z m-370 -363 c-15 -15
-73 -22 -73 -10 0 7 6 10 14 7 8 -3 22 0 32 8 19 13 43 9 27 -5z m-2560 4 c93
-8 102 -24 15 -25 -137 -1 -162 -31 -153 -181 l6 -88 -45 0 c-41 0 -46 3 -53
28 -4 15 -8 70 -8 123 0 132 3 136 141 147 12 1 55 -1 97 -4z m2787 -19 c0 -7
-9 -17 -20 -20 -24 -7 -25 -23 -5 -49 8 -11 15 -26 15 -33 0 -7 -118 -174
-261 -371 -144 -196 -277 -378 -296 -404 -33 -46 -53 -60 -53 -37 0 6 32 73
71 150 39 76 68 143 65 148 -7 11 87 221 142 320 58 104 48 52 -12 -66 -30
-59 -53 -109 -51 -111 8 -9 126 241 120 256 -7 18 3 52 16 52 5 0 9 -10 9 -22
0 -15 3 -19 10 -12 7 7 7 19 2 35 -11 27 10 79 30 79 7 0 23 11 37 24 27 25
161 86 174 79 4 -2 7 -10 7 -18z m-190 -36 c0 -10 -2 -19 -4 -19 -2 0 -13 -3
-23 -6 -17 -6 -17 -6 1 8 12 10 17 21 13 32 -4 10 -3 15 3 11 6 -3 10 -15 10
-26z m-2530 -9 c0 -13 10 -24 25 -30 29 -11 30 -12 7 -115 l-18 -80 -96 -3
c-112 -3 -108 -8 -108 124 0 112 9 122 123 123 61 1 67 -1 67 -19z m335 -11
c9 -26 -13 -51 -39 -47 -27 4 -34 47 -11 64 21 16 42 8 50 -17z m2120 -7 c-8
-8 -25 10 -25 26 0 13 2 13 14 -4 8 -10 13 -21 11 -22z m-11 -46 c14 6 14 -1
-6 -42 -29 -62 -26 -60 -40 -46 -8 8 -8 15 1 26 9 11 10 20 1 36 -14 25 -4 46
15 30 7 -6 20 -7 29 -4z m-1774 -101 c26 -31 -13 -82 -44 -56 -16 14 -22 52
-9 64 11 12 40 8 53 -8z m-1426 -591 c12 -5 16 -21 16 -65 0 -59 0 -59 -30
-59 l-30 0 0 65 c0 67 5 74 44 59z m77 -24 c5 0 9 -4 9 -10 0 -5 -8 -10 -17
-10 -15 0 -16 -2 -3 -10 8 -5 32 -10 53 -10 30 0 37 -4 37 -19 0 -21 -26 -31
-81 -31 -36 0 -37 1 -41 43 -6 49 -2 60 19 53 8 -3 19 -6 24 -6z m2774 -46
c-8 -20 -15 -38 -15 -40 0 -2 -5 -4 -10 -4 -6 0 -1 18 10 40 25 50 35 52 15 4z
m-2645 -20 c0 -31 -23 -28 -28 4 -2 15 2 22 12 22 11 0 16 -9 16 -26z m260 -5
c0 -19 -5 -20 -82 -17 -68 3 -83 7 -86 21 -3 15 7 17 82 17 80 0 86 -1 86 -21z
m50 1 c0 -11 -7 -20 -15 -20 -8 0 -15 9 -15 20 0 11 7 20 15 20 8 0 15 -9 15
-20z m227 10 c21 0 71 -78 78 -120 10 -59 29 -50 23 11 -3 30 -14 62 -27 80
-12 16 -18 29 -14 29 22 0 51 -34 78 -90 27 -57 28 -62 12 -71 -21 -12 -22
-55 -1 -63 37 -14 53 -6 60 29 5 31 9 35 28 29 11 -4 21 -7 22 -8 0 0 -1 -33
-4 -73 l-4 -72 -29 6 c-28 5 -29 5 -18 -26 6 -17 15 -29 20 -26 17 11 49 -20
49 -48 0 -26 -2 -28 -32 -22 -18 3 -43 7 -55 8 -13 1 -23 5 -23 9 0 4 -6 5
-14 2 -10 -4 -14 0 -12 13 2 10 1 12 -1 6 -3 -7 -17 -13 -31 -14 -26 -1 -88
-5 -124 -8 -9 0 -31 -22 -49 -48 -26 -38 -33 -59 -33 -100 -1 -39 -7 -58 -23
-75 -20 -21 -53 -87 -53 -105 0 -4 14 15 30 44 41 72 52 75 48 16 -3 -41 -6
-48 -25 -51 -23 -3 -28 -16 -24 -60 1 -12 -5 -25 -14 -28 -8 -3 -15 -14 -15
-23 0 -30 -24 -49 -65 -53 l-40 -3 -6 50 c-4 30 -6 -2 -5 -78 0 -70 -2 -127
-5 -127 -9 0 -19 246 -20 489 0 150 -4 207 -10 186 -5 -18 -7 -128 -3 -266 5
-171 3 -238 -5 -243 -8 -5 -11 28 -11 121 0 70 -3 230 -7 356 -3 125 -2 227 2
227 4 0 14 -8 22 -17 8 -10 12 -12 8 -5 -4 7 0 12 9 12 9 0 21 9 28 20 10 16
24 20 68 20 l55 1 -37 22 c-21 12 -38 25 -38 28 0 3 15 10 32 15 39 11 50 43
19 51 -12 3 -21 11 -21 18 0 14 65 27 97 19 12 -3 30 -1 40 5 10 6 27 9 38 6
11 -3 26 -5 32 -5z m-624 -137 c-32 -3 -41 -8 -36 -19 3 -8 -1 -14 -11 -14 -9
0 -16 8 -16 20 0 18 6 20 53 18 49 -1 50 -2 10 -5z m67 -7 c0 -2 -7 -7 -16
-10 -8 -3 -12 -2 -9 4 6 10 25 14 25 6z m1097 -22 c-3 -3 -12 -4 -19 -1 -8 3
-5 6 6 6 11 1 17 -2 13 -5z m-1067 -35 c0 -6 -4 -7 -10 -4 -5 3 -10 11 -10 16
0 6 5 7 10 4 6 -3 10 -11 10 -16z m849 -58 c8 -5 11 -16 8 -25 -4 -9 -2 -16 3
-16 6 0 10 -11 10 -25 0 -26 -15 -32 -40 -15 -13 9 -13 11 0 20 12 8 9 10 -12
10 -23 0 -28 5 -28 23 0 13 3 27 7 30 9 10 35 8 52 -2z m341 -71 c0 -5 -4 -10
-9 -10 -6 0 -13 5 -16 10 -3 6 1 10 9 10 9 0 16 -4 16 -10z m-182 -18 c2 -7
-3 -12 -12 -12 -9 0 -16 7 -16 16 0 17 22 14 28 -4z m118 -57 c4 -8 16 -16 28
-16 15 -1 13 -3 -9 -8 -16 -3 -48 -4 -70 -2 -24 3 -32 6 -20 9 11 2 24 10 28
18 11 18 36 18 43 -1z m-179 -22 c3 -9 -8 -10 -35 -4 -2 1 0 6 3 12 8 12 27 7
32 -8z m53 -3 c0 -5 -4 -10 -10 -10 -5 0 -10 5 -10 10 0 6 5 10 10 10 6 0 10
-4 10 -10z m460 -40 c0 -22 -3 -40 -8 -40 -4 0 -6 18 -4 40 2 22 6 40 8 40 2
0 4 -18 4 -40z m-1006 -76 c3 -8 2 -12 -4 -9 -6 3 -10 10 -10 16 0 14 7 11 14
-7z m586 -156 c0 -20 -13 -35 -37 -42 -29 -9 -29 1 -1 31 24 26 38 29 38 11z
m1176 -63 c-16 -16 -76 -21 -76 -6 0 11 23 18 63 20 25 1 27 -1 13 -14z
m-1809 -87 c-2 -13 -4 -5 -4 17 -1 22 1 32 4 23 2 -10 2 -28 0 -40z m1633 48
c0 -2 -7 -7 -16 -10 -8 -3 -12 -2 -9 4 6 10 25 14 25 6z m-70 -46 c-14 -11
-40 -27 -57 -35 -34 -16 -46 -32 -17 -21 14 5 15 4 4 -9 -7 -8 -21 -15 -32
-15 -18 0 -19 2 -7 17 22 26 103 83 119 83 10 0 7 -7 -10 -20z m-1560 -40 c0
-5 -2 -10 -4 -10 -3 0 -8 5 -11 10 -3 6 -1 10 4 10 6 0 11 -4 11 -10z m440
-25 c0 -8 -4 -15 -9 -15 -13 0 -22 16 -14 24 11 11 23 6 23 -9z m275 6 c7 -12
-12 -24 -25 -16 -11 7 -4 25 10 25 5 0 11 -4 15 -9z m-925 -66 c0 -36 -3 -65
-8 -65 -4 0 -7 29 -7 65 0 36 3 65 8 65 4 0 7 -29 7 -65z m722 13 c-7 -7 -12
-8 -12 -2 0 14 12 26 19 19 2 -3 -1 -11 -7 -17z m873 3 c-3 -6 -11 -8 -17 -5
-6 4 -5 9 3 15 16 10 23 4 14 -10z m-1183 -53 c-2 -10 -8 -15 -13 -12 -11 6
-12 58 -2 68 10 9 21 -33 15 -56z m768 42 c-13 -9 -13 -11 0 -20 10 -6 11 -10
3 -10 -7 0 -13 -7 -13 -15 0 -8 -4 -15 -10 -15 -5 0 -10 16 -10 35 0 30 3 35
23 35 18 0 19 -2 7 -10z m375 -14 c19 -14 19 -15 1 -35 -18 -20 -56 -28 -69
-15 -9 10 22 64 36 64 7 0 22 -6 32 -14z m-1445 -21 c28 -14 50 -29 50 -34 0
-4 -18 -14 -40 -21 -22 -7 -40 -17 -40 -22 0 -4 -4 -8 -8 -8 -9 0 -32 67 -32
94 0 22 12 20 70 -9z m1286 -10 c-7 -26 -36 -35 -36 -11 0 16 30 50 37 42 3
-3 3 -17 -1 -31z m364 5 c0 -5 -7 -7 -15 -4 -8 4 -15 8 -15 10 0 2 7 4 15 4 8
0 15 -4 15 -10z m-410 -15 c0 -8 -4 -15 -10 -15 -5 0 -10 7 -10 15 0 8 5 15
10 15 6 0 10 -7 10 -15z m202 -47 c-7 -7 -12 -8 -12 -2 0 14 12 26 19 19 2 -3
-1 -11 -7 -17z m-1552 -30 c-1 -33 -3 -39 -10 -26 -11 18 -10 68 2 68 4 0 8
-19 8 -42z m1418 35 c-16 -2 -40 -2 -55 0 -16 2 -3 4 27 4 30 0 43 -2 28 -4z
m92 -3 c-19 -13 -30 -13 -30 0 0 6 10 10 23 10 18 0 19 -2 7 -10z m395 -91 c5
-5 -16 -9 -52 -9 -40 0 -65 5 -72 14 -10 12 -2 13 51 9 35 -3 67 -9 73 -14z
m-1905 -10 c0 -5 -4 -9 -10 -9 -5 0 -10 7 -10 16 0 8 5 12 10 9 6 -3 10 -10
10 -16z m1465 1 c3 -5 -1 -10 -10 -10 -9 0 -13 5 -10 10 3 6 8 10 10 10 2 0 7
-4 10 -10z m-1475 -30 c0 -5 -2 -10 -4 -10 -3 0 -8 5 -11 10 -3 6 -1 10 4 10
6 0 11 -4 11 -10z m1675 -29 c5 0 -13 -16 -40 -35 -54 -37 -66 -36 -58 6 6 31
29 38 98 29z m103 -39 c-12 -20 -27 -45 -32 -54 -9 -15 -25 -18 -88 -18 -43 0
-78 4 -78 9 0 12 146 94 180 102 39 9 43 0 18 -39z m466 40 c8 -14 -59 -61
-74 -52 -21 13 14 60 45 60 13 0 26 -4 29 -8z m340 -14 c3 -13 6 -37 6 -55 l0
-32 -127 -3 c-71 -2 -133 -2 -139 0 -9 2 -8 15 2 48 7 25 16 49 19 54 3 6 57
10 119 10 109 0 114 -1 120 -22z m-1264 5 c0 -33 -23 -140 -32 -148 -7 -7 -8
12 -3 65 4 41 9 78 11 82 7 10 24 10 24 1z m84 -15 c3 -13 -1 -59 -9 -103 -8
-44 -21 -127 -29 -184 -10 -73 -19 -109 -33 -122 -22 -22 -121 -49 -181 -49
l-43 0 3 42 3 43 60 6 c41 3 67 1 81 -8 20 -13 20 -11 23 85 2 68 7 102 17
113 8 9 20 56 26 108 l11 91 32 0 c25 0 34 -5 39 -22z m736 18 c0 -11 -19 -15
-25 -6 -3 5 1 10 9 10 9 0 16 -2 16 -4z m-290 -56 l0 -50 -35 0 c-41 0 -43 8
-12 60 31 55 47 52 47 -10z m-359 -17 c-9 -16 -10 -16 -11 4 0 12 3 30 7 40 7
16 8 16 11 -4 2 -12 -1 -30 -7 -40z m-925 -4 c-8 -19 -15 -29 -15 -22 -1 18
19 67 25 61 3 -3 -2 -21 -10 -39z m1341 25 c3 -8 17 -20 30 -25 33 -12 20 -29
-23 -29 -32 0 -34 2 -34 35 0 36 16 47 27 19z m313 -24 c0 -5 -5 -10 -11 -10
-5 0 -7 5 -4 10 3 6 8 10 11 10 2 0 4 -4 4 -10z m-2227 -17 c-7 -2 -21 -2 -30
0 -10 3 -4 5 12 5 17 0 24 -2 18 -5z m1714 -56 c8 -9 -44 -87 -58 -87 -20 0
-79 53 -79 71 0 13 9 19 33 21 47 4 96 2 104 -5z m141 -41 c2 -33 7 -44 15
-40 7 4 9 4 5 0 -3 -4 -9 -7 -12 -6 -4 0 -29 -11 -57 -26 -49 -27 -50 -27 -85
-11 l-35 17 22 38 c51 84 47 80 97 78 l47 -3 3 -47z m117 35 c0 -6 -19 -23
-42 -37 l-43 -25 0 34 c0 18 2 36 4 38 10 9 81 1 81 -10z m625 -10 c0 -47 -46
-181 -63 -181 -18 0 -267 144 -267 155 0 6 7 21 16 33 14 21 21 22 165 22
l149 0 0 -29z m-2057 -11 c-3 -12 -8 -19 -11 -16 -5 6 5 36 12 36 2 0 2 -9 -1
-20z m1477 -26 c0 -3 -12 -25 -26 -50 -21 -36 -31 -44 -55 -44 -16 0 -32 -1
-36 -2 -5 -2 -9 6 -11 17 -2 15 10 28 50 52 51 30 78 39 78 27z m-1508 -36
c-8 -8 -9 -4 -5 13 4 13 8 18 11 10 2 -7 -1 -18 -6 -23z m2098 -5 c-11 -17
-11 -17 -6 0 3 10 6 24 7 30 0 9 2 9 5 0 3 -7 0 -20 -6 -30z m-232 -63 c73
-41 132 -81 132 -88 0 -19 -124 -142 -143 -142 -8 0 -47 57 -92 136 -74 131
-76 136 -59 155 10 11 20 18 24 17 4 -2 66 -37 138 -78z m-2389 26 c-2 -2 -17
-6 -34 -10 -22 -5 -26 -4 -15 4 14 9 59 15 49 6z m1871 -16 c0 -5 -4 -10 -10
-10 -5 0 -10 5 -10 10 0 6 5 10 10 10 6 0 10 -4 10 -10z m-100 -5 c0 -8 -61
-37 -67 -32 -3 3 8 12 24 21 29 16 43 19 43 11z m489 -127 c68 -122 72 -133
56 -145 -20 -14 -101 -38 -157 -46 l-38 -6 0 149 c0 142 1 150 22 164 12 9 27
16 33 16 5 -1 43 -60 84 -132z m-608 102 c22 -13 25 -30 4 -30 -8 0 -19 9 -25
20 -12 23 -7 25 21 10z m425 -297 c-7 -7 -126 17 -168 34 -21 8 -38 20 -38 25
0 5 23 49 51 98 51 86 53 88 103 102 l51 13 3 -134 c1 -73 1 -136 -2 -138z
m-223 241 c37 -4 67 -8 67 -11 0 -10 -53 -102 -73 -127 l-24 -30 -29 21 c-36
26 -124 119 -124 131 0 17 45 32 80 27 19 -3 65 -8 103 -11z m-1818 -104 c3
-5 -3 -10 -15 -10 -12 0 -18 5 -15 10 3 6 10 10 15 10 5 0 12 -4 15 -10z m49
-145 c-6 -14 -44 -22 -44 -10 0 4 29 19 47 24 1 1 0 -6 -3 -14z"/>
<path d="M2465 3960 c3 -5 8 -10 11 -10 2 0 4 5 4 10 0 6 -5 10 -11 10 -5 0
-7 -4 -4 -10z"/>
<path d="M3565 2619 c-4 -6 -5 -12 -2 -15 2 -3 7 2 10 11 7 17 1 20 -8 4z"/>
<path d="M3537 2563 c-4 -3 -7 -11 -7 -17 0 -6 5 -5 12 2 6 6 9 14 7 17 -3 3
-9 2 -12 -2z"/>
<path d="M3517 2523 c-4 -3 -7 -11 -7 -17 0 -6 5 -5 12 2 6 6 9 14 7 17 -3 3
-9 2 -12 -2z"/>
<path d="M1420 1909 c0 -5 5 -7 10 -4 6 3 10 8 10 11 0 2 -4 4 -10 4 -5 0 -10
-5 -10 -11z"/>
<path d="M1395 1890 c-3 -5 -1 -10 4 -10 6 0 11 5 11 10 0 6 -2 10 -4 10 -3 0
-8 -4 -11 -10z"/>
<path d="M1916 3932 c-8 -13 0 -47 10 -46 13 1 17 34 4 34 -6 0 -8 5 -5 10 3
6 4 10 1 10 -3 0 -7 -4 -10 -8z"/>
<path d="M1900 3791 c0 -11 5 -23 12 -27 8 -5 9 0 6 14 -4 12 -2 20 3 16 5 -3
9 0 9 5 0 6 -7 11 -15 11 -8 0 -15 -9 -15 -19z"/>
<path d="M1778 3788 c-7 -16 7 -46 17 -37 3 4 2 16 -3 29 -7 18 -10 20 -14 8z"/>
<path d="M1750 3749 c0 -5 5 -7 10 -4 6 3 10 8 10 11 0 2 -4 4 -10 4 -5 0 -10
-5 -10 -11z"/>
<path d="M1801 3713 c-7 -8 -11 -16 -8 -19 2 -2 10 2 17 11 17 20 9 27 -9 8z"/>
<path d="M1787 3614 c-8 -8 1 -24 14 -24 5 0 9 7 9 15 0 15 -12 20 -23 9z"/>
<path d="M4068 3123 c-38 -9 -27 -63 13 -63 28 0 42 34 21 52 -9 8 -24 13 -34
11z"/>
<path d="M1645 2900 c9 -16 18 -30 21 -30 2 0 -2 14 -11 30 -9 17 -18 30 -21
30 -2 0 2 -13 11 -30z"/>
<path d="M3587 2825 c-24 -50 -20 -58 4 -12 11 22 19 41 17 43 -3 2 -12 -12
-21 -31z"/>
<path d="M1700 2800 c6 -11 13 -20 16 -20 2 0 0 9 -6 20 -6 11 -13 20 -16 20
-2 0 0 -9 6 -20z"/>
<path d="M3547 2735 c-24 -50 -20 -58 4 -12 11 22 19 41 17 43 -3 2 -12 -12
-21 -31z"/>
<path d="M3829 2753 c-13 -16 -12 -17 4 -4 9 7 17 15 17 17 0 8 -8 3 -21 -13z"/>
<path d="M1740 2730 c6 -11 13 -20 16 -20 2 0 0 9 -6 20 -6 11 -13 20 -16 20
-2 0 0 -9 6 -20z"/>
<path d="M1790 2640 c6 -11 13 -20 16 -20 2 0 0 9 -6 20 -6 11 -13 20 -16 20
-2 0 0 -9 6 -20z"/>
<path d="M3497 2625 c-24 -50 -20 -58 4 -12 11 22 19 41 17 43 -3 2 -12 -12
-21 -31z"/>
<path d="M3457 2535 c-24 -50 -20 -58 4 -12 11 22 19 41 17 43 -3 2 -12 -12
-21 -31z"/>
<path d="M2031 2485 c-2 -15 63 -219 66 -209 1 5 -13 56 -31 114 -19 58 -35
101 -35 95z"/>
<path d="M2101 2244 c0 -11 3 -14 6 -6 3 7 2 16 -1 19 -3 4 -6 -2 -5 -13z"/>
<path d="M2090 2100 c6 -11 13 -20 16 -20 2 0 0 9 -6 20 -6 11 -13 20 -16 20
-2 0 0 -9 6 -20z"/>
<path d="M650 1993 c0 -10 5 -25 10 -33 7 -11 10 -7 10 18 0 17 -4 32 -10 32
-5 0 -10 -8 -10 -17z"/>
<path d="M627 1902 c-21 -3 -27 -8 -25 -23 2 -14 -10 -27 -45 -48 -42 -24 -46
-29 -28 -34 20 -5 21 -12 21 -110 l0 -105 31 -11 c40 -14 174 -14 200 -1 16 9
17 14 8 32 -9 16 -9 23 -1 26 8 2 8 11 1 28 -15 41 -11 115 7 128 14 11 10 16
-26 40 -33 22 -41 33 -38 50 3 13 0 23 -6 24 -36 5 -75 7 -99 4z m-24 -135 c4
3 7 -33 7 -80 0 -80 -2 -87 -20 -87 -14 0 -20 6 -19 23 0 19 1 19 8 4 3 -10 7
13 6 51 0 77 -14 89 -16 14 -1 -26 -4 -36 -6 -23 -3 13 -2 44 2 68 5 34 9 42
19 34 7 -6 16 -8 19 -4z m143 -6 c12 10 14 -2 14 -75 0 -48 -4 -86 -10 -86
-20 0 -30 42 -28 112 1 40 3 65 6 55 3 -14 7 -16 18 -6z m-57 -67 c2 -64 0
-74 -18 -83 -25 -14 -27 -10 -30 71 -3 75 1 87 27 85 15 -1 18 -12 21 -73z"/>
<path d="M2141 1864 c0 -11 3 -14 6 -6 3 7 2 16 -1 19 -3 4 -6 -2 -5 -13z"/>
<path d="M1970 1831 c0 -17 18 -21 24 -6 3 9 0 15 -9 15 -8 0 -15 -4 -15 -9z"/>
<path d="M808 1563 c7 -3 16 -2 19 1 4 3 -2 6 -13 5 -11 0 -14 -3 -6 -6z"/>
<path d="M805 1540 c-8 -13 5 -13 25 0 13 8 13 10 -2 10 -9 0 -20 -4 -23 -10z"/>
<path d="M815 1520 c-3 -5 -2 -10 3 -10 5 0 13 -9 18 -20 7 -14 13 -17 24 -10
12 8 12 10 -5 10 -17 0 -17 2 -5 10 12 8 12 10 -5 10 -17 0 -17 2 -5 10 13 8
13 10 -2 10 -9 0 -20 -4 -23 -10z"/>
<path d="M860 1460 c-9 -6 -10 -10 -3 -10 6 0 15 5 18 10 8 12 4 12 -15 0z"/>
<path d="M709 888 c-1 -2 -3 -24 -4 -50 -2 -36 1 -45 11 -41 8 3 14 13 14 22
0 9 5 22 11 28 15 15 4 43 -16 43 -8 0 -16 -1 -16 -2z"/>
</g>
</svg>
