<?xml version="1.0" standalone="no"?>
<!DOCTYPE svg PUBLIC "-//W3C//DTD SVG 20010904//EN"
 "http://www.w3.org/TR/2001/REC-SVG-20010904/DTD/svg10.dtd">
<svg version="1.0" xmlns="http://www.w3.org/2000/svg"
 width="500.000000pt" height="500.000000pt" viewBox="0 0 500.000000 500.000000"
 preserveAspectRatio="xMidYMid meet">

<g transform="translate(0.000000,500.000000) scale(0.100000,-0.100000)"
fill="#000000" stroke="none">
<path d="M4471 4601 c-10 -6 -10 -10 -1 -16 13 -8 24 -1 19 14 -3 6 -10 7 -18
2z"/>
<path d="M4629 4581 c9 -6 10 -11 2 -15 -6 -4 -11 -12 -11 -19 0 -12 29 23 30
36 0 4 -8 7 -17 7 -14 0 -15 -2 -4 -9z"/>
<path d="M4670 4568 c13 -16 13 -31 0 -23 -13 8 -40 -12 -40 -29 0 -6 7 -3 15
8 13 18 41 14 30 -5 -4 -5 1 -9 10 -9 12 0 15 6 10 23 -4 12 -13 28 -21 35 -9
7 -10 8 -4 0z"/>
<path d="M4354 4554 c3 -8 2 -12 -4 -9 -6 3 -10 1 -10 -5 0 -6 -6 -10 -12 -8
-21 4 -85 -22 -100 -39 -9 -12 -2 -10 30 6 62 32 50 12 -24 -39 -135 -93 -148
-104 -136 -108 6 -2 12 -9 12 -15 0 -19 -40 -91 -58 -104 -8 -7 -13 -15 -11
-18 3 -3 19 8 35 23 35 33 100 82 109 82 4 0 30 20 59 45 28 25 80 67 116 93
41 30 66 56 68 70 2 12 8 20 13 17 5 -4 9 -1 9 4 0 17 -37 13 -44 -4 -6 -17
-36 -21 -36 -4 0 5 5 7 10 4 6 -3 10 -2 10 3 0 6 -7 13 -16 16 -23 9 -27 8
-20 -10z"/>
<path d="M4506 4496 c-10 -26 -16 -61 -14 -77 3 -21 1 -28 -7 -25 -8 3 -12 -5
-12 -20 0 -13 3 -24 8 -24 5 0 9 5 9 10 0 6 5 10 11 10 5 0 7 -4 4 -10 -3 -5
-1 -10 5 -10 7 0 9 -8 5 -19 -7 -23 4 -53 17 -45 5 3 4 -3 -4 -15 -7 -12 -17
-21 -22 -21 -4 0 -1 -11 8 -24 19 -29 12 -57 -12 -49 -15 4 -15 3 -2 -7 11 -9
12 -13 3 -17 -18 -7 -16 -23 2 -23 8 0 15 5 15 11 0 19 43 104 47 93 2 -6 -5
-35 -17 -63 -11 -29 -17 -58 -13 -64 5 -7 8 -25 9 -41 0 -24 -1 -26 -11 -12
-18 24 -26 19 -13 -9 13 -29 48 -34 48 -7 1 13 4 11 15 -8 l14 -25 1 25 c1 24
1 24 15 6 14 -19 15 -18 15 10 0 22 3 26 10 14 7 -11 10 -3 10 30 1 43 1 44
14 21 10 -17 15 -20 21 -11 12 20 15 83 4 96 -6 8 -6 14 -1 18 6 4 6 21 1 47
-5 22 -7 45 -3 50 3 6 -4 7 -18 4 -16 -4 -29 -1 -38 10 -12 14 -11 16 12 10
15 -4 29 -2 32 4 7 11 -6 15 -33 11 -9 -1 -12 4 -7 15 3 9 2 13 -4 10 -13 -8
-37 45 -34 78 3 28 -19 39 -29 15 -3 -7 -6 2 -6 20 -1 21 -6 32 -15 32 -8 0
-16 5 -18 12 -2 6 -12 -10 -22 -36z m44 4 c0 -5 -4 -10 -10 -10 -5 0 -10 5
-10 10 0 6 5 10 10 10 6 0 10 -4 10 -10z m-10 -260 c0 -5 -2 -10 -4 -10 -3 0
-8 5 -11 10 -3 6 -1 10 4 10 6 0 11 -4 11 -10z"/>
<path d="M4386 4387 c-38 -67 -82 -143 -98 -168 -15 -25 -28 -51 -28 -57 0 -6
-10 -23 -23 -39 -13 -15 -38 -55 -57 -88 -18 -33 -43 -79 -56 -102 -13 -24
-21 -43 -17 -43 3 0 -2 -9 -11 -19 -13 -14 -14 -20 -5 -23 8 -3 10 -11 5 -24
-8 -19 -8 -19 -16 1 -6 17 -11 13 -31 -30 -13 -27 -32 -57 -42 -67 -10 -11
-15 -23 -12 -28 4 -6 -1 -18 -10 -27 -13 -12 -16 -28 -12 -60 2 -24 1 -46 -4
-49 -5 -3 -9 13 -9 36 0 27 -4 39 -11 34 -6 -3 -9 -24 -7 -45 3 -37 -11 -57
-32 -44 -4 3 -11 -3 -14 -12 -4 -11 2 -26 18 -42 29 -28 43 -23 26 9 -6 12 -9
24 -7 27 3 3 13 -10 22 -29 10 -18 27 -44 40 -58 12 -14 30 -38 40 -55 9 -16
11 -23 4 -14 -56 65 -81 90 -85 86 -8 -8 105 -130 140 -150 23 -14 26 -15 11
-2 -11 9 -26 20 -33 24 -27 16 -21 73 15 139 19 34 44 71 56 83 19 17 19 19 3
13 -14 -5 -17 -3 -14 7 3 8 13 13 22 13 12 -1 15 3 11 17 -4 13 -2 19 9 19 10
0 13 6 10 15 -8 20 3 19 32 -4 16 -13 20 -21 12 -23 -8 -3 -5 -9 9 -16 21 -12
21 -12 -25 -120 -26 -59 -52 -116 -59 -127 -12 -20 -12 -20 -28 0 -15 18 -15
17 0 -13 9 -18 13 -38 9 -45 -4 -7 0 -5 9 3 8 8 28 49 45 90 16 42 45 109 64
150 19 41 52 113 73 160 20 47 44 94 51 105 22 32 18 53 -6 27 -11 -12 -20
-25 -20 -29 0 -10 -42 -113 -53 -131 -5 -7 -12 -10 -16 -7 -5 2 -6 -7 -3 -20
5 -31 1 -31 -43 -2 -38 24 -44 41 -18 55 14 8 12 15 -22 56 -20 25 -42 46 -47
46 -5 0 -7 10 -4 23 3 12 3 16 0 10 -8 -17 -24 -16 -24 1 0 8 7 17 16 20 9 3
14 13 10 21 -3 8 -1 17 4 20 6 4 10 1 10 -4 0 -19 54 -89 73 -94 10 -3 21 2
27 13 5 10 25 23 42 29 29 9 33 15 33 45 0 19 -2 33 -5 31 -3 -2 -10 3 -17 10
-15 16 3 34 29 30 9 -2 15 2 12 9 -2 6 3 20 11 31 16 19 16 19 10 -5 -5 -19
-4 -21 4 -10 6 8 8 24 5 35 -3 14 3 28 17 40 l22 20 -13 -24 c-10 -20 -10 -25
4 -33 19 -11 22 -30 4 -23 -7 3 -24 -11 -37 -30 -13 -19 -26 -33 -30 -31 -3 2
-7 -6 -7 -18 -1 -15 8 -29 26 -40 31 -18 32 -17 49 34 6 19 28 75 49 124 l39
89 -34 31 c-19 16 -39 40 -44 53 -5 13 -15 23 -23 23 -10 0 -12 11 -8 45 2 25
2 45 -1 45 -4 0 -16 -17 -27 -37 -23 -41 -23 -38 0 20 9 24 19 36 28 32 7 -2
10 0 7 5 -4 6 1 18 10 27 9 9 14 24 12 35 -3 10 3 35 14 56 10 20 18 31 19 23
0 -8 2 -12 5 -9 3 3 2 14 -2 26 -7 17 -19 1 -77 -101z m-36 -192 c0 -14 -4
-25 -9 -25 -4 0 -6 11 -3 25 2 14 6 25 8 25 2 0 4 -11 4 -25z m-49 -120 c-12
-24 -28 -49 -37 -56 -9 -7 -5 7 11 35 15 26 24 50 21 53 -3 4 0 13 6 21 22 26
22 -8 -1 -53z m-21 12 c0 -8 -9 -22 -20 -32 -11 -10 -20 -26 -20 -37 0 -28
-25 -21 -28 8 -1 14 2 23 8 19 6 -3 10 -1 10 4 0 6 7 11 15 11 8 0 14 3 14 8
-3 18 2 32 11 32 6 0 10 -6 10 -13z m35 -76 c3 -5 1 -12 -5 -16 -5 -3 -10 1
-10 9 0 18 6 21 15 7z m-148 -43 c-3 -8 -6 -5 -6 6 -1 11 2 17 5 13 3 -3 4
-12 1 -19z m125 -57 c22 -19 25 -27 16 -38 -9 -11 -16 -8 -40 19 -15 18 -33
41 -39 51 -9 16 -8 17 13 5 13 -7 35 -24 50 -37z m-123 12 c0 -12 -2 -13 -6
-5 -4 10 -9 9 -20 -5 -13 -17 -13 -16 -3 5 13 26 30 29 29 5z m39 -53 c-14
-22 -24 -19 -15 5 4 8 11 15 17 15 6 0 6 -7 -2 -20z m-141 -167 c-6 -16 -21
-45 -33 -66 -17 -31 -23 -35 -28 -21 -3 9 0 21 7 28 8 6 24 28 36 49 27 44 36
49 18 10z m-37 -2 c0 -17 -18 -21 -24 -6 -3 9 0 15 9 15 8 0 15 -4 15 -9z m-5
-151 c-15 -29 -24 -54 -21 -57 10 -10 46 41 40 57 -3 8 -2 11 2 7 4 -4 13 -2
21 4 19 17 17 -4 -6 -52 -11 -22 -18 -51 -15 -64 6 -35 -7 -31 -37 13 -34 50
-42 72 -28 88 6 8 8 25 5 38 -3 14 -2 27 3 31 15 9 23 -32 11 -56 -7 -12 -8
-19 -3 -16 5 3 18 24 29 46 10 22 20 34 22 26 2 -7 -9 -37 -23 -65z m98 55
c-3 -9 -8 -14 -10 -11 -3 3 -2 9 2 15 9 16 15 13 8 -4z"/>
<path d="M4575 4500 c-3 -5 -1 -10 4 -10 6 0 11 5 11 10 0 6 -2 10 -4 10 -3 0
-8 -4 -11 -10z"/>
<path d="M4698 4494 c-8 -7 2 -44 12 -44 4 0 5 11 2 25 -5 27 -6 28 -14 19z"/>
<path d="M4648 4433 c7 -3 16 -2 19 1 4 3 -2 6 -13 5 -11 0 -14 -3 -6 -6z"/>
<path d="M4690 4433 c0 -5 5 -15 10 -23 8 -12 10 -11 10 8 0 12 -4 22 -10 22
-5 0 -10 -3 -10 -7z"/>
<path d="M4295 4384 c-64 -48 -74 -57 -70 -64 2 -4 -4 -15 -15 -25 -11 -10
-20 -22 -20 -28 0 -12 56 39 123 114 20 23 10 25 -18 3z"/>
<path d="M4680 4381 c0 -6 5 -13 10 -16 6 -3 10 1 10 9 0 9 -4 16 -10 16 -5 0
-10 -4 -10 -9z"/>
<path d="M4130 4259 c-104 -78 -170 -155 -77 -90 36 25 146 131 136 131 -2 0
-29 -19 -59 -41z"/>
<path d="M4245 4259 c-24 -22 -47 -41 -52 -41 -4 0 -7 -4 -5 -9 1 -5 -6 -9
-15 -9 -9 0 -24 -6 -32 -13 -19 -16 -108 -68 -116 -67 -6 0 -5 -9 6 -37 6 -16
13 -20 31 -15 20 5 21 3 10 -10 -10 -13 -9 -20 7 -39 l20 -24 -4 43 c-4 47 0
49 35 25 14 -9 22 -13 18 -8 -4 4 2 19 12 33 32 39 26 52 -16 40 -20 -5 -39
-7 -42 -3 -3 3 4 8 16 12 12 3 22 9 22 13 0 4 10 6 23 4 12 -3 29 1 38 8 17
14 101 138 93 138 -2 0 -24 -18 -49 -41z m-101 -157 c3 -5 -1 -9 -9 -9 -8 0
-15 4 -15 9 0 4 4 8 9 8 6 0 12 -4 15 -8z"/>
<path d="M4500 4200 c0 -5 5 -10 10 -10 6 0 10 5 10 10 0 6 -4 10 -10 10 -5 0
-10 -4 -10 -10z"/>
<path d="M4107 4053 c-12 -12 -7 -22 8 -17 8 4 15 10 15 15 0 11 -14 12 -23 2z"/>
<path d="M3990 4035 c7 -8 17 -12 22 -9 6 4 5 10 -3 15 -22 14 -33 10 -19 -6z"/>
<path d="M4486 4015 c-21 -48 -21 -76 -1 -69 8 4 15 17 15 30 0 15 6 24 15 24
19 0 19 9 0 34 -13 17 -15 16 -29 -19z"/>
<path d="M3935 4030 c-3 -5 -4 -10 -2 -10 3 0 -7 -13 -22 -29 -15 -16 -28 -38
-29 -50 -4 -45 -6 -51 -18 -51 -6 0 -19 -11 -28 -25 -21 -32 1 -35 27 -5 10
12 23 18 29 14 8 -5 9 -1 4 11 -5 14 -3 15 6 8 8 -6 22 -7 33 -2 11 4 14 8 6
8 -8 1 -12 3 -9 6 3 3 17 1 32 -5 20 -7 25 -7 20 1 -4 7 0 9 13 5 21 -7 87 31
86 49 0 6 7 16 16 23 14 12 14 13 -4 7 -11 -4 -45 -9 -75 -11 -30 -1 -71 -6
-90 -9 -19 -3 -30 -2 -25 2 6 5 23 19 39 33 17 15 27 19 24 10 -4 -10 2 -15
18 -16 13 -1 24 3 24 9 0 6 -3 8 -6 4 -4 -3 -13 0 -20 8 -8 8 -22 11 -31 8
-11 -4 -14 -3 -9 5 4 7 5 12 2 12 -3 0 -8 -4 -11 -10z m100 -90 c-3 -5 -12
-10 -18 -10 -7 0 -6 4 3 10 19 12 23 12 15 0z m-125 -14 c0 -3 -4 -8 -10 -11
-5 -3 -10 -1 -10 4 0 6 5 11 10 11 6 0 10 -2 10 -4z"/>
<path d="M2630 3870 c13 -23 20 -26 20 -6 0 8 -7 16 -15 20 -13 4 -14 2 -5
-14z"/>
<path d="M3992 3854 c-12 -8 -31 -13 -41 -9 -11 3 -22 1 -26 -5 -4 -6 -14 -9
-23 -5 -9 3 -13 3 -9 -1 4 -4 2 -13 -4 -21 -9 -10 -6 -12 18 -7 24 5 29 2 30
-15 1 -12 -3 -21 -8 -21 -6 0 -7 5 -4 10 3 6 -1 10 -9 10 -19 0 -31 -19 -19
-31 18 -18 73 12 103 56 41 59 38 71 -8 39z m-22 -54 c0 -5 -2 -10 -4 -10 -3
0 -8 5 -11 10 -3 6 -1 10 4 10 6 0 11 -4 11 -10z"/>
<path d="M3835 3818 c-39 -14 -38 -11 -24 -42 13 -27 36 -37 26 -12 -4 10 -1
13 9 9 10 -4 12 0 7 13 -4 11 -3 15 4 11 6 -4 13 2 16 13 6 22 4 23 -38 8z"/>
<path d="M4280 3790 c-6 -11 -8 -20 -6 -20 3 0 10 9 16 20 6 11 8 20 6 20 -3
0 -10 -9 -16 -20z"/>
<path d="M3779 3790 c-1 -8 -1 -18 0 -22 0 -5 -4 -8 -10 -8 -5 0 -8 -4 -4 -9
3 -6 -1 -13 -9 -18 -14 -8 -56 -72 -56 -85 0 -5 10 -8 21 -8 17 0 19 3 10 14
-9 10 -8 15 3 19 8 3 24 23 35 44 11 21 20 32 21 26 0 -7 5 -13 10 -13 6 0 8
12 6 27 -6 31 -25 55 -27 33z"/>
<path d="M4220 3774 c0 -5 7 -18 15 -28 12 -16 15 -17 15 -4 0 8 -7 21 -15 28
-8 7 -15 9 -15 4z"/>
<path d="M3931 3736 c-9 -10 -7 -17 6 -27 15 -12 16 -12 10 3 -4 11 0 21 11
27 15 9 15 10 1 11 -9 0 -22 -6 -28 -14z"/>
<path d="M3842 3714 c-2 -22 0 -23 19 -14 22 12 21 32 -2 35 -9 2 -16 -7 -17
-21z"/>
<path d="M3815 3688 c-10 -26 -2 -43 12 -26 7 8 8 19 3 28 -8 12 -10 12 -15
-2z"/>
<path d="M3870 3691 c0 -5 5 -13 10 -16 19 -12 10 -24 -27 -34 -48 -14 -66
-14 -58 -1 3 6 1 10 -4 10 -6 0 -11 -6 -11 -14 0 -8 -6 -16 -14 -19 -8 -3 -20
-16 -27 -29 -12 -22 -11 -23 8 -5 24 21 33 22 33 1 0 -8 5 -12 11 -9 6 4 8 14
4 22 -4 13 -3 14 10 3 12 -10 16 -8 24 11 10 24 10 24 10 -3 1 -18 -4 -28 -13
-28 -8 0 -18 -4 -21 -10 -4 -6 1 -7 12 -3 16 6 16 4 -2 -16 -11 -12 -21 -18
-23 -12 -5 14 -39 14 -47 1 -4 -6 1 -7 11 -3 10 4 22 0 29 -10 11 -16 13 -16
31 1 10 9 20 24 22 32 2 8 8 20 14 25 8 7 9 5 5 -8 -10 -27 11 -10 28 24 11
20 12 29 4 29 -8 0 -8 4 -1 13 13 16 9 50 -6 55 -7 2 -12 -1 -12 -7z"/>
<path d="M3850 3681 c0 -5 5 -13 10 -16 6 -3 10 -2 10 4 0 5 -4 13 -10 16 -5
3 -10 2 -10 -4z"/>
<path d="M1075 3669 c-22 -5 -69 -15 -105 -23 -36 -8 -80 -18 -99 -22 l-35 -6
62 -29 c60 -28 98 -69 73 -77 -22 -7 -11 -29 12 -25 22 4 57 -18 57 -36 0 -5
-18 -8 -41 -8 -24 0 -45 -6 -49 -14 -12 -19 -3 -28 23 -22 21 5 21 5 3 -9 -13
-10 -15 -17 -8 -22 7 -4 12 -2 12 3 0 6 5 11 11 11 25 0 128 71 123 85 -16 41
67 85 162 85 23 0 44 3 46 8 2 4 18 17 36 28 l33 20 -128 32 c-71 18 -133 32
-138 31 -6 -1 -28 -5 -50 -10z m25 -179 c0 -21 -4 -28 -14 -24 -8 3 -17 0 -21
-5 -10 -17 -25 -3 -25 24 0 22 12 31 48 34 7 1 12 -11 12 -29z"/>
<path d="M2750 3666 c0 -9 5 -16 10 -16 6 0 10 4 10 9 0 6 -4 13 -10 16 -5 3
-10 -1 -10 -9z"/>
<path d="M3661 3588 c-33 -52 -43 -79 -15 -39 13 18 18 20 26 10 6 -10 7 -6 3
10 -5 14 -3 21 3 17 5 -3 15 1 22 9 7 8 9 15 4 16 -5 0 0 4 10 8 19 7 19 8 -1
13 -17 5 -27 -4 -52 -44z"/>
<path d="M2705 3614 c-19 -10 -31 -11 -40 -4 -14 11 -98 2 -91 -9 3 -4 -11 -5
-30 -3 -38 5 -42 -3 -17 -30 15 -17 15 -18 0 -18 -18 0 -20 -11 -11 -47 7 -25
38 -31 51 -10 4 6 7 30 7 52 -1 22 1 32 3 23 6 -24 42 -23 67 1 12 11 35 23
51 27 l30 7 -40 -42 c-33 -35 -37 -43 -25 -51 10 -7 11 -10 3 -10 -7 0 -13 -4
-13 -9 0 -12 88 -46 97 -37 3 3 1 6 -5 6 -7 0 -12 7 -12 15 0 8 7 15 15 15 9
0 15 -9 15 -24 0 -23 16 -36 44 -36 14 0 14 39 0 61 -5 8 -3 9 6 4 9 -6 10 -2
5 16 -10 33 -13 35 -35 21 -29 -18 -35 -15 -16 7 10 11 15 25 11 30 -3 6 -1
11 4 11 6 0 11 -5 11 -12 0 -9 3 -9 11 -1 17 17 -8 58 -26 43 -9 -8 -17 -7
-28 4 -12 13 -18 13 -42 0z m-155 -94 c0 -5 -2 -10 -4 -10 -3 0 -8 5 -11 10
-3 6 -1 10 4 10 6 0 11 -4 11 -10z m150 -30 c0 -5 -4 -10 -10 -10 -5 0 -10 5
-10 10 0 6 5 10 10 10 6 0 10 -4 10 -10z m85 -10 c3 -5 1 -10 -4 -10 -6 0 -11
5 -11 10 0 6 2 10 4 10 3 0 8 -4 11 -10z"/>
<path d="M3103 3535 c0 -22 2 -30 4 -17 2 12 2 30 0 40 -3 9 -5 -1 -4 -23z"/>
<path d="M4174 3554 c-18 -14 -18 -15 4 -4 12 6 22 13 22 15 0 8 -5 6 -26 -11z"/>
<path d="M4136 3525 c-3 -9 -6 -26 -5 -38 1 -14 4 -9 9 13 9 37 7 52 -4 25z"/>
<path d="M1235 3523 c-34 -9 -68 -23 -64 -27 2 -3 38 4 79 14 53 13 65 18 40
18 -19 0 -44 -3 -55 -5z"/>
<path d="M2246 3519 c3 -5 14 -9 24 -9 10 0 22 -4 25 -10 3 -5 11 -10 16 -10
14 0 5 25 -9 26 -7 1 -13 3 -14 4 -8 7 -47 6 -42 -1z"/>
<path d="M2200 3500 c20 -13 33 -13 25 0 -3 6 -14 10 -23 10 -15 0 -15 -2 -2
-10z"/>
<path d="M3621 3494 c0 -11 3 -14 6 -6 3 7 2 16 -1 19 -3 4 -6 -2 -5 -13z"/>
<path d="M3873 3493 c4 -6 -2 -18 -13 -28 -13 -12 -18 -26 -14 -39 3 -14 2
-17 -4 -8 -6 9 -12 6 -21 -14 -8 -19 -9 -30 -1 -39 8 -9 8 -23 1 -47 l-10 -33
2 30 c3 41 -21 39 -45 -4 -16 -28 -16 -33 -4 -28 20 8 20 -12 0 -38 -16 -20
-16 -19 -9 4 5 17 4 22 -6 19 -8 -3 -15 -13 -17 -24 -2 -11 -14 -33 -27 -49
-22 -24 -25 -38 -25 -102 0 -41 4 -72 9 -69 4 3 16 27 26 53 10 26 31 66 47
88 16 22 27 48 25 57 -6 20 8 34 18 19 3 -6 -5 -29 -17 -52 -13 -23 -31 -56
-40 -73 -25 -46 -22 -55 8 -21 l26 30 -21 -37 c-12 -21 -30 -53 -40 -70 -16
-28 -17 -35 -5 -46 8 -7 14 -10 14 -6 0 3 7 1 15 -6 27 -23 7 -23 -30 0 -19
12 -33 26 -29 31 3 5 0 9 -5 9 -6 0 -11 16 -11 35 0 19 -4 35 -9 35 -6 0 -6
12 0 32 14 50 5 43 -29 -21 l-32 -59 21 -26 c15 -19 16 -24 5 -20 -9 3 -16 10
-16 15 0 23 -20 3 -60 -58 -24 -38 -53 -84 -66 -103 -13 -19 -28 -48 -34 -65
-10 -27 -53 -99 -118 -197 -17 -26 -22 -45 -18 -63 4 -14 10 -25 15 -25 4 0
23 -19 41 -42 l34 -43 -41 37 c-58 51 -79 62 -87 42 -4 -9 -2 -12 5 -8 8 4 7
0 0 -15 -7 -11 -14 -21 -17 -21 -3 0 -2 5 2 12 4 6 3 8 -3 5 -12 -7 -92 -143
-130 -219 -25 -51 -38 -64 -48 -48 -3 5 -15 10 -25 10 -14 0 -18 5 -13 16 4
10 1 15 -8 14 -30 -5 -50 0 -44 10 6 10 76 7 93 -4 5 -3 29 35 55 83 25 48 73
134 106 190 34 57 61 105 61 107 0 2 -11 4 -24 4 -42 0 -39 19 4 26 32 5 40
11 40 28 0 17 2 18 9 7 8 -12 11 -8 17 14 4 16 16 38 26 49 10 11 18 26 18 33
0 22 2 28 19 41 13 10 9 11 -24 6 -22 -3 -49 -8 -60 -11 -14 -4 -17 -2 -10 6
6 6 33 14 60 17 28 4 53 11 56 16 4 6 0 37 -9 70 -12 49 -18 59 -33 55 -10 -3
-26 1 -36 9 -15 12 -16 15 -3 23 11 8 9 12 -13 20 -16 6 -30 11 -33 11 -9 0
-3 -20 12 -34 8 -9 13 -16 11 -16 -14 0 -137 33 -170 46 -20 8 -48 14 -61 14
-19 0 -23 4 -19 19 3 11 16 22 29 25 13 4 24 10 24 15 0 5 9 7 20 4 15 -4 19
-1 15 9 -3 8 12 32 36 57 33 33 39 45 28 51 -9 6 -21 -3 -40 -32 -28 -42 -118
-111 -158 -121 -18 -4 -29 0 -43 18 -11 14 -28 24 -38 22 -20 -2 -20 -2 -20
38 0 27 19 26 53 -3 15 -14 17 -13 17 5 0 22 -23 47 -33 36 -4 -3 -17 -2 -30
4 -30 14 -76 30 -172 60 -44 14 -81 28 -83 32 -1 4 -39 2 -85 -5 -45 -6 -109
-14 -142 -17 l-60 -6 49 14 c27 7 79 17 115 21 36 5 69 9 74 10 4 1 16 2 27 3
13 1 20 8 20 22 0 19 -1 19 -16 5 -19 -19 -19 -19 -45 -3 -17 10 -23 9 -26 -1
-3 -6 -9 -10 -14 -6 -5 3 -9 -1 -9 -8 0 -8 -5 -6 -11 5 -8 14 -14 16 -25 6 -8
-6 -25 -9 -38 -7 -16 3 -27 0 -31 -10 -3 -10 -9 -11 -18 -5 -6 6 -32 9 -57 8
-25 -2 -53 2 -62 7 -13 6 -18 5 -18 -4 -1 -8 -5 -7 -14 5 -14 18 -32 24 -21 7
3 -5 -1 -10 -9 -10 -22 0 -20 13 4 28 12 7 20 8 20 2 0 -20 31 -9 42 15 6 14
19 25 29 25 18 0 33 26 23 41 -3 5 -11 9 -17 9 -7 0 -46 11 -87 25 -70 23 -80
24 -147 13 -56 -9 -78 -9 -99 1 -22 10 -30 9 -44 -4 -9 -8 -27 -15 -41 -15
-22 -1 -21 -2 8 -15 18 -7 38 -23 45 -34 15 -25 33 -28 24 -5 -5 12 -2 15 10
10 8 -3 22 -6 30 -6 8 0 14 -7 14 -15 0 -8 7 -15 17 -15 9 0 34 -19 56 -42 22
-23 47 -43 55 -44 8 -2 23 -12 34 -24 15 -16 16 -21 5 -18 -9 2 -16 0 -16 -5
-2 -13 47 -103 63 -116 9 -7 13 -17 10 -22 -2 -5 2 -22 11 -40 9 -17 14 -33
11 -36 -2 -3 -17 19 -32 48 -37 74 -132 227 -146 235 -7 4 -3 -6 9 -22 35 -50
83 -134 83 -147 0 -7 -15 15 -33 49 -18 34 -43 73 -55 88 -11 15 -19 33 -16
40 7 17 -46 36 -100 36 -45 0 -90 -25 -82 -45 3 -9 -2 -11 -17 -7 -20 5 -21 4
-8 -12 24 -29 2 -31 -29 -1 -16 16 -32 26 -34 24 -8 -7 6 -23 41 -47 47 -33
75 -85 79 -148 2 -29 7 -70 13 -89 8 -32 8 -36 -7 -33 -10 2 -16 11 -14 21 7
38 -20 85 -71 128 -43 36 -49 39 -34 16 18 -28 11 -36 -12 -14 -11 10 -13 9
-8 -5 3 -10 2 -20 -3 -23 -6 -4 -10 -15 -10 -26 0 -23 1 -23 -43 -4 -20 8 -53
15 -73 15 -21 0 -35 3 -31 6 3 3 21 6 39 6 32 0 34 2 34 34 0 19 -4 34 -8 34
-4 0 -8 -4 -8 -9 0 -16 -33 -22 -47 -8 -12 12 -12 14 2 14 8 0 15 -5 15 -11 0
-6 5 -3 11 7 6 10 20 22 32 27 17 7 18 9 5 9 -9 1 -20 -3 -23 -9 -3 -5 -19
-10 -35 -10 -31 0 -47 -14 -30 -25 8 -5 7 -11 -1 -21 -6 -8 -9 -23 -6 -34 3
-11 2 -20 -3 -20 -7 0 -21 44 -25 83 -1 10 3 24 10 31 7 6 16 23 20 36 l8 25
-24 -20 -23 -20 16 26 c19 29 15 41 -10 31 -14 -5 -15 -3 -5 9 9 11 8 24 -7
57 -11 23 -22 42 -25 42 -3 0 -4 -4 -1 -8 2 -4 -4 -8 -14 -8 -14 0 -16 3 -8
13 6 7 7 13 2 13 -5 0 -3 4 4 8 9 6 8 17 -8 48 -10 21 -19 32 -20 23 0 -20
-30 -35 -30 -15 0 10 -13 12 -51 8 -31 -3 -60 0 -75 8 -61 33 -249 -40 -354
-136 -100 -94 -107 -111 -110 -284 0 -31 -38 -59 -52 -38 -5 7 -6 27 -3 43 8
45 -12 11 -29 -50 -38 -136 -49 -214 -50 -357 -1 -81 -4 -140 -8 -130 -4 10
-7 12 -7 4 -2 -28 -31 16 -42 65 -11 45 -15 279 -6 368 5 50 52 190 77 230 11
17 31 43 45 59 31 36 32 56 2 51 -12 -2 -61 -9 -109 -16 -77 -11 -92 -16 -128
-47 -38 -33 -55 -62 -27 -46 7 4 9 3 4 -2 -5 -5 -13 -9 -19 -9 -30 0 -128
-263 -128 -342 0 -19 -5 -23 -27 -22 -24 2 -25 2 -5 6 14 3 22 12 22 24 0 24
-26 25 -39 2 -6 -10 -11 -14 -11 -9 0 5 -7 3 -15 -4 -13 -11 -15 -5 -15 43 0
38 5 59 16 68 14 11 18 11 29 -4 11 -16 13 -15 17 8 6 31 0 37 -24 24 -11 -6
-26 -8 -34 -5 -9 3 -12 1 -9 -4 3 -6 1 -10 -4 -10 -7 0 -11 -27 -11 -70 0 -38
-4 -70 -9 -70 -6 0 -8 -31 -6 -71 2 -50 0 -69 -8 -66 -13 4 -22 120 -11 146 3
9 8 30 9 46 2 17 6 44 10 60 5 24 4 26 -5 13 -19 -31 -42 -219 -37 -303 10
-147 43 -252 118 -376 36 -61 40 -74 42 -142 1 -42 4 -77 7 -79 3 -2 17 -12
32 -21 14 -9 28 -27 30 -39 3 -21 5 -20 27 15 26 43 39 43 61 2 8 -16 25 -38
38 -48 12 -10 31 -36 42 -57 11 -22 31 -42 49 -50 29 -11 31 -16 32 -64 1 -46
2 -48 11 -25 20 49 42 53 112 19 35 -16 79 -30 98 -30 18 0 51 -9 73 -20 22
-11 53 -20 70 -20 21 0 40 -9 55 -25 17 -19 27 -22 41 -15 26 15 55 12 69 -5
9 -11 15 -12 20 -5 8 13 115 16 200 6 81 -9 112 -7 137 9 26 17 36 6 27 -29
-6 -26 -19 -29 -229 -41 -381 -23 -627 -49 -662 -72 -12 -8 -29 -13 -39 -11
-9 2 -19 -2 -21 -9 -3 -8 14 -13 54 -16 46 -2 40 -4 -29 -5 -49 -1 -88 -6 -88
-11 0 -5 47 -12 105 -16 58 -4 105 -10 105 -14 0 -3 -59 -2 -130 3 -124 8
-160 5 -132 -13 12 -7 110 -14 220 -15 57 -1 64 -6 29 -21 -12 -6 -21 -16 -20
-23 2 -7 -4 -12 -13 -12 -10 0 -14 6 -11 14 7 18 -15 23 -158 31 -60 4 -106 3
-102 -1 9 -10 8 -9 131 -18 77 -6 103 -12 119 -27 11 -10 16 -19 11 -19 -5 0
-18 -16 -28 -35 -11 -19 -22 -35 -26 -35 -4 0 -10 -9 -13 -20 -6 -24 -42 -25
-194 -7 -79 10 -103 10 -103 1 0 -13 77 -28 127 -25 18 1 38 -1 45 -6 23 -14
59 -14 76 -1 12 10 14 10 8 0 -9 -15 6 -16 22 0 9 9 12 8 12 -4 0 -9 -4 -19
-9 -23 -5 -3 -12 -18 -16 -34 -11 -53 -23 -56 -153 -37 -64 9 -124 16 -132 16
-22 0 -23 -40 -2 -41 14 0 13 -2 -3 -9 -19 -8 -19 -8 -1 -16 18 -7 18 -8 -5
-17 -24 -9 -24 -9 -3 -17 12 -5 39 -11 60 -14 21 -4 53 -11 69 -16 17 -5 52
-12 80 -15 48 -6 63 -11 54 -19 -2 -2 -56 5 -119 15 -140 23 -140 23 -140 4 0
-9 9 -15 23 -15 12 0 29 -5 37 -11 11 -8 5 -9 -22 -4 -37 6 -38 5 -34 -25 2
-19 -1 -30 -9 -30 -8 0 -11 9 -9 23 4 20 4 21 -5 2 -5 -11 -10 -16 -10 -12 -1
12 -41 -12 -41 -25 0 -6 9 -3 19 6 26 23 39 2 15 -25 -13 -14 -14 -19 -3 -19
9 0 5 -8 -10 -22 -16 -16 -25 -19 -28 -10 -3 6 -11 12 -18 12 -7 0 -16 6 -18
13 -4 9 -6 9 -6 0 -1 -6 3 -14 9 -18 5 -3 7 -12 4 -19 -7 -19 33 -31 51 -16
10 8 14 8 18 -2 4 -10 7 -10 15 1 7 10 14 11 28 2 11 -6 14 -11 7 -11 -19 0
-52 -41 -46 -56 3 -8 1 -20 -5 -27 -11 -13 -5 -64 9 -73 5 -3 9 -14 9 -25 0
-16 5 -19 20 -14 15 5 18 3 14 -9 -3 -9 -2 -16 4 -16 6 0 9 -15 8 -32 -2 -18
2 -39 8 -47 6 -8 11 -17 10 -20 -6 -37 34 -55 206 -91 389 -83 786 -115 1300
-105 157 3 312 7 345 10 413 35 769 80 760 95 -2 4 26 7 63 7 69 1 338 42 684
104 59 11 138 24 175 29 112 15 484 80 548 96 116 29 112 24 103 107 -4 40 -7
78 -7 85 -1 6 -12 12 -26 12 -18 0 -25 5 -25 20 0 11 -6 21 -12 21 -7 1 3 5
22 8 39 7 55 -5 37 -28 -9 -12 -9 -13 1 -7 6 4 12 2 12 -3 0 -19 17 -12 23 9
3 12 -1 24 -11 29 -9 5 -13 13 -9 17 5 5 11 4 15 -1 4 -6 16 -12 27 -14 16 -2
13 3 -13 26 -27 23 -33 37 -35 71 0 23 -5 42 -9 42 -4 0 -8 5 -8 11 0 6 7 8
16 5 14 -5 15 -4 4 9 -9 11 -9 15 -1 15 9 0 9 5 1 20 -7 14 -7 20 0 20 13 0
13 27 -1 32 -5 2 -14 29 -18 61 -8 60 -33 97 -81 121 -14 7 -79 28 -145 46
-66 18 -163 45 -215 61 -89 26 -364 100 -420 112 -326 72 -362 78 -516 81 -61
2 -116 6 -123 10 -6 4 -11 3 -11 -3 0 -5 -26 -10 -57 -10 -32 0 -96 -3 -143
-6 -47 -3 -111 -8 -143 -9 -32 -2 -61 -6 -64 -10 -3 -3 -12 -1 -20 5 -10 9
-13 8 -13 -1 0 -7 -7 -10 -16 -6 -9 3 -21 3 -27 -1 -20 -13 -41 -12 -49 0 -6
9 -8 9 -8 0 0 -7 -11 -11 -27 -9 -16 1 -36 -1 -46 -6 -12 -6 -24 -5 -35 4 -11
9 -14 10 -8 1 5 -9 -2 -13 -26 -14 -82 -3 -125 -7 -152 -14 -15 -4 -45 -8 -65
-9 -20 -1 -42 -5 -48 -9 -8 -5 -13 -3 -13 5 0 9 -3 9 -8 2 -4 -6 -19 -14 -34
-17 -20 -5 -28 -3 -31 10 -4 14 -5 12 -6 -4 -1 -15 -7 -23 -20 -23 -29 0 -91
-29 -97 -45 -4 -10 -14 -13 -29 -9 -17 4 -24 0 -29 -18 -4 -17 -8 -20 -15 -10
-7 11 -9 10 -15 -3 -3 -9 -10 -13 -16 -10 -5 3 -10 -3 -10 -14 0 -14 -6 -21
-19 -21 -10 0 -32 -17 -47 -37 -41 -54 -97 -104 -109 -99 -6 2 -91 12 -188 22
-97 10 -177 22 -177 26 0 18 71 38 135 38 36 0 65 -3 65 -7 0 -5 32 -8 70 -8
39 0 70 3 70 8 0 4 -21 7 -47 7 -27 0 -88 5 -137 10 -71 8 -91 8 -98 -2 -6
-10 -8 -10 -8 0 0 17 42 52 53 45 4 -3 54 -7 110 -10 56 -2 129 -8 163 -12 62
-7 84 -5 84 8 0 4 -21 8 -47 9 -27 0 -86 5 -133 11 -46 6 -106 11 -132 11 -26
0 -50 4 -53 10 -3 5 0 10 8 10 8 0 20 7 27 15 8 10 28 15 54 15 23 -1 51 2 64
5 12 4 22 3 22 -1 0 -5 38 -8 85 -6 53 2 83 7 79 13 -3 6 -16 9 -27 8 -12 0
-71 0 -132 1 -98 1 -107 3 -77 14 18 6 31 14 28 16 -2 3 64 4 147 4 l152 -2
-123 8 c-68 5 -126 11 -130 14 -3 3 58 5 136 4 78 -1 145 1 149 5 4 5 -9 7
-30 5 -20 -1 -39 1 -43 5 -8 8 13 10 64 7 17 -1 32 3 32 9 0 6 10 11 23 10 21
0 21 -1 2 -9 -19 -8 -19 -9 3 -9 12 -1 22 3 22 8 0 4 24 11 53 14 28 4 68 9
87 11 95 13 119 16 174 21 33 3 62 8 66 10 9 5 206 14 455 20 116 3 271 7 345
10 74 3 142 5 151 5 12 0 15 7 11 25 -4 23 -2 25 36 25 43 0 112 -27 112 -43
0 -5 5 -5 13 1 6 5 39 13 72 16 90 8 93 9 88 22 -4 10 73 21 182 24 11 1 23 6
27 13 5 8 42 13 108 14 71 1 108 6 124 16 12 9 36 17 52 20 31 4 -30 9 -146
11 -149 3 -203 6 -198 12 4 3 93 5 200 4 187 -1 194 0 195 19 1 12 -2 23 -8
26 -5 4 -5 14 2 27 6 11 12 33 13 49 2 22 -1 26 -14 19 -8 -5 -22 -4 -31 0 -8
5 -79 12 -158 16 -78 4 -144 11 -147 16 -4 6 52 7 142 3 82 -4 151 -11 152
-16 10 -26 92 25 92 57 0 13 37 44 44 37 3 -4 6 6 6 20 0 15 -4 27 -10 27 -5
0 -10 20 -10 44 0 36 5 47 28 62 15 11 34 19 42 20 50 3 54 4 44 13 -5 6 -60
11 -122 12 -62 1 -115 5 -118 10 -3 5 19 9 49 9 51 0 55 2 60 26 3 17 0 28
-10 31 -8 3 -10 9 -5 12 14 9 25 51 14 51 -5 0 -12 -9 -15 -20 -3 -11 -10 -20
-16 -20 -8 0 -9 6 -1 19 15 28 29 35 45 21 17 -14 24 -10 95 57 25 23 56 51
70 61 21 17 22 22 11 36 -12 14 -17 13 -52 -15 -22 -17 -39 -29 -39 -26 0 3
-17 -11 -37 -30 -49 -45 -114 -88 -132 -88 -8 0 -16 -6 -19 -14 -3 -10 0 -12
12 -8 10 4 15 3 11 -3 -9 -14 -52 -12 -58 3 -4 10 -7 10 -18 -1 -10 -9 -10
-12 0 -12 8 0 10 -7 5 -22 -9 -31 -9 -31 -33 -18 -16 8 -21 8 -21 -1 0 -6 -7
-9 -15 -6 -8 4 -17 3 -19 -2 -3 -4 -19 -6 -35 -3 -28 4 -29 6 -14 20 14 14 17
14 31 -4 11 -14 13 -15 9 -2 -6 18 15 31 38 22 9 -4 15 0 15 9 0 8 12 22 26
32 17 11 24 23 21 35 -3 11 -1 20 4 22 5 2 5 16 0 33 -7 25 -10 27 -16 13 -6
-14 -19 -18 -66 -18 -40 0 -59 -4 -59 -12 0 -8 -3 -9 -8 -3 -8 12 -32 13 -49
2 -9 -6 -11 -3 -7 7 7 18 -16 44 -34 38 -8 -2 -12 10 -12 42 0 25 4 46 8 46 5
0 16 16 26 37 14 29 15 38 4 44 -10 6 -6 21 15 64 15 31 25 61 22 66 -4 5 1
12 9 15 9 3 16 10 16 16 0 5 22 56 49 113 27 57 46 106 43 110 -4 3 -2 9 3 13
11 7 45 78 45 90 -1 4 -8 -5 -16 -20 -8 -16 -19 -28 -24 -28 -6 0 -10 -9 -10
-19 0 -10 -7 -22 -16 -25 -8 -3 -13 -10 -9 -15 3 -5 1 -12 -4 -16 -6 -3 -8
-12 -5 -20 8 -19 -67 -175 -84 -175 -7 0 -10 -4 -7 -10 9 -14 -20 -12 -60 4
-31 13 -36 13 -45 -2 -5 -9 -10 -12 -11 -7 -4 42 -4 63 2 59 4 -2 11 5 14 17
l7 21 26 -24 c24 -21 25 -21 9 -1 -18 21 -18 23 9 70 58 103 76 124 98 117 47
-15 49 -14 16 5 l-35 20 -18 -22 c-18 -22 -18 -22 -6 6 7 15 16 27 22 27 5 0
7 6 4 13 -3 8 -1 20 3 27 6 10 -9 34 -49 79 -51 58 -57 69 -48 89 5 12 14 22
19 22 4 0 8 10 9 23 l0 22 11 -22 c15 -31 24 -29 38 10 7 17 14 27 17 20 2 -6
-2 -24 -10 -40 -14 -25 -13 -30 5 -55 11 -16 24 -26 29 -23 5 4 6 0 3 -8 -3
-8 -1 -18 5 -22 6 -3 11 0 11 7 1 7 12 27 26 43 23 27 26 28 21 8 -5 -20 -1
-23 26 -22 20 1 24 3 12 6 -11 2 -28 20 -37 41 -18 38 -131 174 -150 181 -6 2
-8 -1 -5 -6z m-2463 -78 c24 -22 27 -23 59 -9 37 15 47 11 53 -21 2 -13 -3
-20 -17 -23 -45 -8 -46 -10 -23 -50 13 -21 28 -47 34 -57 12 -21 51 -23 85 -4
9 4 19 5 23 2 7 -7 -19 -23 -76 -49 -34 -15 -53 -44 -28 -44 6 0 2 -8 -7 -18
-20 -21 -35 -19 -26 3 3 9 -1 15 -11 15 -9 0 -16 -7 -16 -15 0 -8 -6 -12 -14
-9 -10 4 -12 -2 -8 -22 3 -19 1 -25 -7 -20 -6 4 -11 2 -11 -4 0 -6 -5 -8 -10
-5 -6 4 -13 -7 -16 -24 -4 -17 -10 -28 -15 -25 -9 5 -13 -10 -10 -30 1 -5 -4
-4 -12 3 -12 10 -16 -1 -21 -71 -10 -109 1 -138 48 -138 19 0 38 -5 41 -10 4
-7 -2 -9 -17 -6 -12 3 -43 8 -67 10 -24 3 -48 10 -52 18 -6 9 -9 8 -15 -5 -12
-31 -21 -9 -17 45 3 61 28 151 50 184 9 14 25 24 39 24 12 0 25 4 28 9 4 5 -4
7 -16 5 -13 -2 -17 -2 -10 2 14 7 16 34 2 34 -14 0 -2 24 20 38 17 10 19 9 14
-6 -5 -15 -4 -14 10 2 8 10 13 22 11 26 -3 4 20 18 50 31 30 13 55 27 55 30 0
20 -88 134 -105 137 -11 2 -16 0 -10 -5 15 -12 15 -42 0 -37 -26 10 -234 -223
-213 -240 15 -13 50 -26 58 -21 6 3 7 -1 4 -10 -5 -13 -10 -13 -40 5 l-33 21
-21 -68 c-12 -37 -24 -88 -27 -112 -5 -37 -4 -43 9 -39 8 4 21 2 29 -3 10 -6
5 -9 -18 -9 -27 0 -31 -3 -29 -24 4 -33 -11 -56 -23 -38 -6 10 -10 7 -15 -13
-9 -37 10 -57 23 -24 8 20 10 16 10 -26 0 -47 0 -49 -13 -26 -13 23 -14 23
-19 5 -4 -10 -5 -28 -2 -39 2 -11 4 -35 4 -52 1 -35 30 -49 32 -15 1 15 2 15
6 -1 3 -10 -3 -24 -13 -31 -15 -11 -15 -18 -4 -65 7 -29 10 -54 7 -57 -3 -3
-11 20 -18 51 -7 32 -19 63 -26 70 -7 8 -9 15 -4 17 5 2 6 30 3 63 l-7 60 -40
-1 c-22 -1 -70 -3 -108 -4 -71 -3 -84 1 -72 20 5 9 9 9 14 1 5 -7 34 -9 90 -4
l82 6 -3 33 c-1 18 1 36 5 40 4 4 7 18 7 30 0 22 -3 23 -45 17 -41 -5 -45 -4
-39 12 5 13 4 16 -4 11 -19 -11 -14 9 6 25 9 8 35 15 57 14 38 0 40 -1 37 -28
-5 -45 15 -22 21 25 4 24 10 54 13 68 6 22 5 23 -7 8 -14 -17 -59 -38 -83 -38
-12 0 -13 8 -7 56 0 6 15 11 31 11 23 0 30 -5 31 -21 2 -19 2 -19 6 2 3 17 9
21 24 17 11 -4 19 -2 19 5 0 6 -4 8 -10 5 -5 -3 -10 0 -10 8 0 8 -9 22 -21 33
-17 15 -22 16 -29 4 -11 -18 -25 -6 -17 14 3 8 19 17 36 21 30 6 44 35 19 35
-9 0 -8 3 2 10 8 5 11 12 7 16 -4 4 -13 2 -19 -4 -7 -7 -18 -12 -25 -12 -18 0
-16 35 2 50 9 8 15 8 15 2 0 -6 -6 -12 -12 -15 -10 -4 -10 -7 -1 -17 10 -11
14 -10 19 3 4 12 13 15 32 10 17 -4 23 -2 18 6 -4 6 -2 11 3 11 6 0 16 -9 23
-20 14 -22 28 -26 28 -10 0 6 11 23 25 38 27 29 30 38 15 47 -11 7 -2 35 12
35 6 0 8 -7 4 -15 -7 -20 8 -19 25 1 7 9 42 37 78 62 44 31 60 48 49 50 -23 4
-58 -15 -58 -32 0 -8 -8 -13 -17 -12 -10 0 -17 -4 -16 -11 2 -7 -5 -17 -15
-22 -21 -11 -62 -4 -62 10 0 5 -4 9 -10 9 -5 0 -9 -10 -7 -21 1 -12 -4 -23
-11 -25 -7 -1 -8 0 -2 3 16 8 12 23 -7 23 -12 0 -5 8 18 24 20 13 42 24 50 24
47 -3 48 0 28 42 -24 50 -24 62 1 30 l20 -25 18 23 c14 18 20 20 30 10 9 -9
12 -9 12 4 0 24 48 13 80 -17z m150 15 c0 -5 -2 -10 -4 -10 -3 0 -8 5 -11 10
-3 6 -1 10 4 10 6 0 11 -4 11 -10z m2317 -37 c-3 -10 -5 -4 -5 12 0 17 2 24 5
18 2 -7 2 -21 0 -30z m-27 -23 c0 -5 -4 -10 -10 -10 -5 0 -10 5 -10 10 0 6 5
10 10 10 6 0 10 -4 10 -10z m-2275 -20 c3 -5 1 -10 -4 -10 -6 0 -11 5 -11 10
0 6 2 10 4 10 3 0 8 -4 11 -10z m55 -6 c0 -8 -5 -12 -10 -9 -6 4 -8 11 -5 16
9 14 15 11 15 -7z m415 -29 c12 -14 25 -22 27 -18 3 4 3 2 1 -6 -2 -7 1 -19 7
-26 8 -9 6 -14 -6 -19 -11 -4 -15 -2 -11 8 4 9 -2 17 -14 21 -10 4 -19 12 -19
20 0 16 -28 28 -43 18 -7 -4 -6 1 2 10 18 23 28 21 56 -8z m41 10 c18 -13 18
-14 -4 -8 -12 3 -25 9 -28 14 -8 14 10 11 32 -6z m-1241 -86 c-42 -64 -92
-189 -110 -277 -8 -35 -16 -67 -19 -70 -10 -9 -215 -26 -223 -18 -12 12 16 23
44 18 15 -3 23 -1 20 4 -3 6 2 10 11 10 9 1 26 5 36 9 14 6 17 5 12 -3 -5 -8
3 -12 23 -12 28 0 30 2 20 18 -12 19 -25 19 -147 -3 -19 -3 -22 -1 -17 13 4 9
10 25 12 34 3 10 9 15 14 12 5 -3 6 2 3 11 -4 9 1 21 11 29 13 9 15 15 6 20
-8 5 -5 18 10 46 12 22 25 37 29 35 4 -3 16 15 26 38 10 23 34 57 53 76 29 27
40 32 67 28 18 -3 43 1 59 9 15 8 38 14 51 14 12 0 26 5 29 11 4 6 9 8 11 6 3
-2 -11 -29 -31 -58z m1185 20 c0 -5 -4 -9 -10 -9 -5 0 -13 -1 -17 -2 -3 -2 -7
4 -8 13 -2 12 3 15 16 12 10 -3 19 -9 19 -14z m-930 -9 c-10 -20 3 -30 14 -11
3 5 17 11 31 13 22 5 25 2 23 -23 -2 -27 -21 -39 -32 -21 -6 9 -48 8 -64 -2
-18 -11 -15 1 10 34 25 35 34 39 18 10z m248 -22 c-2 -6 -10 -14 -16 -16 -7
-2 -10 2 -6 12 7 18 28 22 22 4z m767 -18 c10 -11 14 -20 9 -20 -12 1 -44 25
-44 34 0 12 17 6 35 -14z m173 -12 c6 -6 28 -12 49 -14 78 -4 122 -16 116 -30
-3 -8 -14 -14 -24 -14 -10 0 -19 -4 -19 -10 0 -5 -4 -10 -10 -10 -5 0 -9 3 -9
8 5 30 -3 35 -21 13 -14 -16 -20 -19 -20 -8 0 8 -11 22 -25 31 -14 9 -25 12
-25 7 0 -5 7 -11 15 -15 15 -5 21 -26 8 -26 -11 1 -66 80 -56 80 5 0 14 -5 21
-12z m448 -11 c4 -4 -15 -7 -42 -6 -39 1 -44 3 -24 9 28 8 56 7 66 -3z m-1346
-6 c0 -5 -7 -12 -16 -15 -14 -5 -15 -4 -4 9 14 17 20 19 20 6z m235 -1 c3 -5
1 -10 -4 -10 -6 0 -11 5 -11 10 0 6 2 10 4 10 3 0 8 -4 11 -10z m495 -21 c0
-4 -4 -11 -10 -14 -5 -3 -10 -15 -10 -26 0 -14 7 -19 25 -19 27 0 48 -29 39
-54 -3 -8 -2 -21 2 -27 11 -18 10 -69 -1 -69 -14 -1 67 -30 83 -30 7 0 12 13
12 30 0 32 4 34 35 19 19 -9 19 -9 -2 -5 -18 3 -22 -1 -25 -23 -3 -22 2 -28
32 -38 49 -17 53 -16 46 11 -5 19 -1 26 14 31 22 7 22 24 0 42 -13 11 -12 12
8 13 19 0 22 -5 22 -35 0 -25 -4 -33 -13 -29 -10 3 -14 -4 -15 -26 0 -20 4
-30 14 -30 11 0 13 6 9 23 -6 18 -5 20 6 10 10 -10 10 -18 1 -38 -11 -24 -32
-35 -32 -15 0 8 -70 32 -193 66 -24 7 -82 62 -74 70 4 4 13 1 22 -6 12 -10 15
-10 15 3 0 8 -11 18 -24 21 -13 3 -26 16 -30 28 -5 18 -8 20 -15 9 -15 -24
-33 -1 -27 33 4 17 7 36 8 43 1 6 7 9 15 6 7 -3 13 -1 13 5 0 6 -5 12 -12 14
-6 2 -9 9 -5 14 7 12 67 6 67 -7z m740 7 c0 -19 -37 -27 -50 -11 -8 10 -7 14
2 18 25 10 48 7 48 -7z m57 -40 c-7 -18 -33 -12 -41 9 -3 8 2 22 11 31 16 15
18 15 26 -4 5 -12 7 -28 4 -36z m-2326 17 c-12 -20 -14 -14 -5 12 4 9 9 14 11
11 3 -2 0 -13 -6 -23z m1049 1 c0 -2 -9 -4 -21 -4 -11 0 -18 4 -14 10 5 8 35
3 35 -6z m1040 -20 c0 -24 4 -33 12 -28 6 4 8 3 5 -4 -4 -5 -16 -8 -27 -5 -16
4 -18 8 -9 19 6 8 9 23 6 34 -3 11 -1 20 4 20 5 0 9 -16 9 -36z m70 26 c12 -8
11 -10 -7 -10 -12 0 -25 5 -28 10 -8 13 15 13 35 0z m-550 -15 c17 -9 30 -18
30 -21 0 -9 -75 8 -81 19 -4 5 -12 6 -19 2 -9 -5 -11 -4 -6 3 10 16 41 15 76
-3z m-935 -15 c3 -5 1 -18 -5 -27 -9 -15 -11 -15 -7 -2 3 9 0 22 -6 28 -8 8
-8 11 0 11 7 0 15 -4 18 -10z m1015 -26 c0 -8 -4 -12 -10 -9 -5 3 -10 13 -10
21 0 8 5 12 10 9 6 -3 10 -13 10 -21z m250 16 c0 -5 -2 -10 -4 -10 -3 0 -8 5
-11 10 -3 6 -1 10 4 10 6 0 11 -4 11 -10z m-875 -10 c3 -5 1 -10 -4 -10 -6 0
-11 5 -11 10 0 6 2 10 4 10 3 0 8 -4 11 -10z m742 4 c-3 -3 -12 -4 -19 -1 -8
3 -5 6 6 6 11 1 17 -2 13 -5z m-497 -19 c27 -15 20 -19 -17 -9 -13 4 -23 10
-23 15 0 12 11 11 40 -6z m555 5 c8 -13 -15 -13 -35 0 -12 8 -11 10 7 10 12 0
25 -4 28 -10z m336 -15 c24 -7 63 -19 87 -25 23 -6 40 -15 37 -20 -3 -4 4 -6
15 -3 11 3 20 1 20 -5 0 -5 11 -13 25 -16 14 -4 25 -10 25 -15 0 -5 -12 -5
-27 0 -16 5 -82 25 -148 43 -66 19 -112 35 -102 35 10 1 15 6 12 11 -8 14 4
13 56 -5z m-841 -30 c7 -9 8 -15 2 -15 -5 0 -12 7 -16 15 -3 8 -4 15 -2 15 2
0 9 -7 16 -15z m1095 -16 c-8 -12 -35 -11 -35 2 0 5 5 7 10 4 6 -3 10 -1 10 5
0 6 5 8 10 5 6 -4 8 -11 5 -16z m-1769 0 c3 -6 1 -15 -5 -20 -6 -5 -9 -6 -6
-3 3 4 0 13 -6 21 -8 9 -8 13 -1 13 6 0 14 -5 18 -11z m2504 7 c0 -3 -4 -8
-10 -11 -5 -3 -10 -1 -10 4 0 6 5 11 10 11 6 0 10 -2 10 -4z m-1915 -36 c28
-6 58 -13 68 -16 11 -4 17 0 18 13 1 15 2 15 6 2 2 -9 14 -21 26 -27 21 -10
21 -11 -5 -11 -15 -1 -60 6 -100 15 -40 9 -83 17 -95 17 -13 -1 -23 2 -23 6 0
15 13 21 34 16 12 -3 44 -10 71 -15z m975 2 c19 -6 58 -15 85 -22 52 -12 96
-40 62 -40 -9 0 -17 4 -17 8 0 4 -12 9 -26 10 -14 1 -51 8 -82 16 -30 8 -59
13 -63 10 -5 -2 -20 -2 -34 2 l-26 6 23 13 c13 7 28 12 33 10 6 -1 26 -7 45
-13z m1000 -11 c-6 -12 -8 -21 -6 -21 3 0 12 12 19 26 9 17 17 23 21 15 4 -6
2 -11 -4 -11 -6 0 -8 -4 -5 -10 3 -5 2 -10 -2 -10 -5 0 -13 -12 -19 -27 -7
-21 -11 -24 -20 -12 -8 10 -8 23 3 48 8 18 16 31 19 28 3 -3 1 -15 -6 -26z
m-2120 9 c0 -5 -7 -10 -16 -10 -8 0 -12 5 -9 10 3 6 10 10 16 10 5 0 9 -4 9
-10z m2044 -6 c3 -8 2 -12 -4 -9 -6 3 -10 10 -10 16 0 14 7 11 14 -7z m-1449
-4 c3 -6 -1 -7 -9 -4 -18 7 -21 14 -7 14 6 0 13 -4 16 -10z m-1363 -27 c-3
-16 -7 -22 -10 -15 -4 13 4 42 11 42 2 0 2 -12 -1 -27z m488 -4 c0 -6 -4 -7
-10 -4 -5 3 -10 11 -10 16 0 6 5 7 10 4 6 -3 10 -11 10 -16z m-245 1 c3 -5 0
-10 -7 -10 -10 0 -10 -2 1 -9 7 -5 10 -14 6 -20 -9 -16 -35 18 -28 36 6 15 19
17 28 3z m270 0 c3 -5 1 -10 -4 -10 -6 0 -11 5 -11 10 0 6 2 10 4 10 3 0 8 -4
11 -10z m300 1 c-40 -10 -83 -34 -119 -66 -17 -14 -36 -23 -43 -21 -9 4 -8 -2
3 -19 10 -15 12 -25 5 -25 -6 0 -17 -13 -26 -30 -15 -29 -15 -30 9 -30 34 0
40 -14 21 -50 -14 -27 -18 -30 -32 -18 -15 12 -16 5 -10 -73 4 -47 14 -105 22
-129 19 -53 19 -50 -6 -50 -11 0 -18 4 -15 9 4 5 1 22 -5 38 -39 98 -49 227
-24 308 7 25 11 55 8 66 -4 15 -2 20 7 17 8 -2 27 11 43 29 16 18 33 31 37 28
4 -3 25 2 46 9 22 8 55 14 74 14 l35 0 -30 -7z m1326 -31 c4 0 14 9 22 20 12
17 18 18 52 9 21 -6 44 -17 51 -24 8 -7 19 -15 26 -17 8 -3 2 -15 -16 -34 -15
-16 -34 -42 -43 -59 l-16 -30 25 23 c24 22 26 22 30 4 4 -16 -2 -22 -32 -32
-27 -9 -44 -24 -59 -51 -14 -25 -27 -36 -36 -32 -17 6 -21 -12 -5 -22 6 -4 8
-11 4 -16 -4 -6 -14 -3 -27 8 -20 17 -20 17 -14 0 10 -28 -3 -41 -19 -20 -7
10 -14 13 -14 7 0 -7 -7 -14 -15 -17 -12 -5 -12 -2 -3 18 6 13 14 22 19 19 4
-2 11 2 16 9 4 7 16 16 26 20 15 5 17 20 17 108 0 96 -1 101 -20 96 -11 -3
-20 -1 -20 4 0 5 7 9 16 9 11 0 14 6 10 23 l-6 22 11 -22 c7 -13 16 -23 20
-23z m-744 24 c-3 -3 -12 -4 -19 -1 -8 3 -5 6 6 6 11 1 17 -2 13 -5z m93 -10
c0 -8 -5 -12 -10 -9 -6 4 -8 11 -5 16 9 14 15 11 15 -7z m378 -4 c15 -16 24
-18 49 -11 39 11 43 2 50 -123 5 -80 3 -88 -11 -83 -13 5 -15 3 -9 -8 15 -26
3 -104 -18 -116 -18 -9 -19 -5 -19 60 0 52 -4 70 -15 75 -8 3 -15 1 -15 -4 0
-6 -10 -10 -22 -10 -23 0 -23 0 1 -13 35 -18 40 -40 7 -31 -24 6 -26 4 -26
-30 0 -32 3 -36 25 -36 14 0 25 -4 25 -9 0 -5 -14 -6 -32 -2 l-32 7 0 157 c-1
86 -4 157 -8 157 -3 0 -4 9 -1 20 7 25 27 26 51 0z m859 14 c-3 -3 -12 -4 -19
-1 -8 3 -5 6 6 6 11 1 17 -2 13 -5z m-2625 -36 c-9 -9 -12 -7 -12 12 0 19 3
21 12 12 9 -9 9 -15 0 -24z m2748 22 c8 -5 12 -11 9 -14 -3 -3 -14 1 -25 9
-21 16 -8 20 16 5z m-88 -12 c-9 -9 -7 -18 11 -37 l22 -26 -27 24 c-21 19 -25
27 -17 38 6 7 14 13 17 13 3 0 1 -5 -6 -12z m-1977 -29 c4 -11 5 -23 2 -25 -6
-6 -37 25 -37 37 0 18 29 9 35 -12z m125 11 c0 -5 -7 -7 -15 -4 -8 4 -15 8
-15 10 0 2 7 4 15 4 8 0 15 -4 15 -10z m1854 -49 c22 -22 37 -43 35 -46 -3 -2
-30 21 -60 51 -30 31 -45 52 -34 46 11 -6 38 -29 59 -51z m-1785 33 c29 -8 51
-17 49 -19 -6 -6 -92 16 -102 26 -13 12 -8 11 53 -7z m1042 6 c5 0 9 -7 9 -16
0 -11 -6 -14 -21 -9 -19 6 -20 5 -8 -8 8 -8 17 -13 22 -10 4 2 7 -34 7 -81 0
-70 -3 -86 -15 -86 -20 0 -19 -17 3 -29 15 -9 13 -10 -10 -11 -15 0 -30 5 -33
10 -3 6 -3 10 2 10 4 0 6 55 5 121 -3 110 -2 121 13 115 9 -3 21 -6 26 -6z
m-1194 -32 c-4 -13 6 -28 33 -49 21 -17 49 -52 63 -78 15 -26 38 -53 52 -59
14 -6 25 -19 25 -27 0 -14 -3 -14 -30 0 -16 9 -30 19 -30 24 0 4 -13 21 -30
37 -16 16 -30 33 -30 39 0 5 -14 23 -31 41 -34 35 -58 107 -32 97 9 -3 13 -14
10 -25z m-587 12 c0 -5 -9 -10 -20 -10 -11 0 -20 5 -20 10 0 6 9 10 20 10 11
0 20 -4 20 -10z m1368 -20 c1 -30 -15 -36 -45 -17 -18 11 -16 28 2 21 8 -4 17
1 21 10 10 26 21 19 22 -14z m732 15 c0 -8 -4 -15 -9 -15 -5 0 -11 7 -15 15
-3 9 0 15 9 15 8 0 15 -7 15 -15z m-820 -11 c0 -8 -4 -12 -10 -9 -5 3 -10 10
-10 16 0 5 5 9 10 9 6 0 10 -7 10 -16z m-1781 -51 c-1 -48 -3 -53 -9 -28 -7
28 -8 26 -9 -15 -1 -33 -4 -41 -11 -30 -7 11 -10 5 -11 -25 l-2 -40 -8 45 c-4
25 -8 65 -8 90 -1 38 2 46 18 47 13 1 21 -6 24 -20 4 -18 5 -17 6 6 2 52 11
27 10 -30z m541 37 c0 -5 -2 -10 -4 -10 -3 0 -8 5 -11 10 -3 6 -1 10 4 10 6 0
11 -4 11 -10z m1226 -12 l19 -22 -29 18 c-23 15 -30 16 -37 5 -4 -7 -11 -10
-14 -7 -11 11 4 28 24 28 10 0 26 -10 37 -22z m172 12 c6 0 12 -11 12 -25 0
-27 -9 -32 -28 -13 -10 10 -15 10 -23 -2 -9 -13 -10 -12 -5 3 3 9 1 17 -4 17
-6 0 -10 7 -10 16 0 12 6 15 23 10 12 -3 28 -6 35 -6z m-2100 -44 c2 39 3 41
36 41 l33 0 2 -69 c2 -74 -3 -86 -18 -35 -8 29 -9 27 -11 -28 -2 -61 -4 -60
-15 7 -8 49 -28 45 -36 -7 -4 -26 -6 -8 -6 50 0 70 2 80 7 45 l7 -45 1 41z
m1010 32 c-2 -6 -10 -14 -16 -16 -7 -2 -10 2 -6 12 7 18 28 22 22 4z m966 -31
c-3 -9 -11 -14 -16 -11 -6 4 -5 10 3 14 10 7 10 12 -1 27 -13 17 -13 17 3 2
11 -9 15 -22 11 -32z m752 28 c-3 -8 -1 -15 4 -15 6 0 10 -5 10 -11 0 -8 -5
-8 -15 1 -17 15 -20 40 -4 40 6 0 9 -7 5 -15z m-2639 -132 c-2 -27 -3 -5 -3
47 0 52 1 74 3 48 2 -27 2 -69 0 -95z m575 122 c4 -5 8 -19 8 -30 -1 -19 -1
-19 -14 -2 -8 10 -20 15 -29 11 -20 -7 -34 16 -16 27 17 10 41 8 51 -6z m973
5 c3 -5 1 -10 -4 -10 -6 0 -11 5 -11 10 0 6 2 10 4 10 3 0 8 -4 11 -10z m1365
-6 c0 -8 -4 -12 -10 -9 -5 3 -10 10 -10 16 0 5 5 9 10 9 6 0 10 -7 10 -16z
m-2085 -4 c3 -6 -4 -10 -17 -10 -18 0 -20 2 -8 10 19 12 18 12 25 0z m-738
-37 c-3 -10 -5 -4 -5 12 0 17 2 24 5 18 2 -7 2 -21 0 -30z m-340 5 c-3 -8 -6
-5 -6 6 -1 11 2 17 5 13 3 -3 4 -12 1 -19z m93 18 c0 -2 -7 -6 -15 -10 -8 -3
-15 -1 -15 4 0 6 7 10 15 10 8 0 15 -2 15 -4z m3123 -19 c3 -8 -4 -14 -19 -15
-21 -2 -23 0 -12 13 16 18 24 19 31 2z m-2095 -4 c-10 -2 -26 -2 -35 0 -10 3
-2 5 17 5 19 0 27 -2 18 -5z m275 -4 c30 -15 67 -50 67 -62 0 -6 -10 -1 -23
11 -13 12 -29 22 -36 22 -8 0 -2 -9 11 -20 14 -11 31 -39 38 -65 12 -42 11
-47 -8 -65 -11 -11 -23 -28 -27 -40 -5 -17 -9 -18 -28 -8 -12 6 -27 18 -33 26
-7 9 -16 12 -25 7 -11 -6 -11 -5 -3 4 9 10 18 9 42 -3 35 -18 42 -19 42 -8 0
4 -14 13 -32 20 -17 6 -29 15 -25 18 3 4 14 3 24 -1 31 -14 43 -14 43 0 0 8
-13 15 -32 17 -38 3 -50 32 -22 52 11 9 13 15 6 20 -6 4 -17 -2 -24 -14 -14
-22 -43 -27 -54 -9 -4 8 -9 7 -15 -2 -16 -24 3 54 20 84 17 30 55 36 94 16z
m192 -23 c12 -9 15 -15 7 -16 -17 0 -62 30 -62 42 0 10 22 -1 55 -26z m1715
13 c-7 -11 -14 -18 -17 -15 -3 3 0 12 7 21 18 21 23 19 10 -6z m84 -31 c-8
-23 -20 -48 -27 -57 -10 -12 -9 -14 5 -9 12 5 18 0 22 -18 6 -22 8 -23 22 -9
9 8 20 13 25 10 13 -9 10 -77 -4 -95 -20 -25 -33 -20 -31 13 1 18 -1 22 -3 10
-2 -13 -8 -23 -13 -23 -4 0 -7 -8 -6 -17 0 -12 -7 -19 -22 -21 -16 -3 -22 1
-20 15 0 10 0 34 -1 53 -1 31 -3 33 -15 18 -7 -10 -17 -14 -21 -10 -5 4 -5 2
-1 -5 4 -7 -4 -29 -17 -50 -13 -21 -39 -67 -58 -103 -18 -36 -40 -70 -48 -76
-24 -19 -3 -32 64 -39 36 -4 65 -12 65 -17 0 -5 15 -15 33 -23 l32 -14 -35 -2
c-28 -1 -30 -3 -10 -6 33 -6 41 -15 31 -32 -7 -10 -27 -14 -70 -12 -36 1 -61
-3 -61 -9 0 -5 26 -11 58 -12 l57 -1 -60 -7 -60 -7 50 -3 50 -3 -50 -7 -50 -7
60 -3 60 -3 -60 -7 -60 -7 50 -1 c28 -1 56 -6 63 -10 7 -5 -15 -6 -48 -4 l-59
4 2 -28 c2 -27 5 -29 57 -35 l55 -6 -60 -3 -60 -3 55 -7 55 -7 -55 -2 c-44 -2
-50 -5 -30 -11 24 -8 24 -8 3 -9 -36 -2 -29 -31 8 -31 18 0 28 -4 24 -10 -4
-6 9 -17 27 -24 29 -13 31 -15 14 -22 -13 -5 -24 -1 -35 12 -21 26 -46 35 -59
22 -7 -7 -12 27 -17 106 -9 138 -3 179 28 194 19 9 16 11 -25 11 -38 1 -46 4
-42 16 4 8 1 15 -6 15 -7 0 -10 7 -6 15 4 12 0 14 -18 9 -13 -3 -27 -1 -30 5
-4 7 1 11 14 11 13 0 25 10 33 28 6 15 17 33 24 40 7 8 11 18 8 23 -4 5 -2 9
4 9 6 0 26 33 45 74 19 41 40 77 46 81 6 3 8 11 5 16 -4 5 -2 9 4 9 6 0 8 7 5
15 -4 11 -2 13 9 10 10 -4 18 3 25 24 6 17 16 31 21 31 6 0 11 9 11 19 0 11 7
26 15 34 8 8 11 18 7 22 -4 5 -2 5 5 1 9 -5 8 -16 -3 -48z m-3311 35 c-7 -2
-19 -2 -25 0 -7 3 -2 5 12 5 14 0 19 -2 13 -5z m3457 -10 c0 -18 -35 -83 -45
-83 -6 0 -45 76 -45 90 0 5 20 10 45 10 36 0 45 -3 45 -17z m-2680 -3 c0 -5
-9 -10 -20 -10 -11 0 -20 5 -20 10 0 6 9 10 20 10 11 0 20 -4 20 -10z m2404
-21 c-3 -5 -2 -14 2 -20 4 -8 9 -7 15 2 6 10 9 10 9 2 0 -21 -17 -23 -41 -5
-15 13 -20 25 -16 37 6 14 10 15 22 5 8 -7 12 -16 9 -21z m-2624 11 c0 -5 -4
-10 -10 -10 -5 0 -10 5 -10 10 0 6 5 10 10 10 6 0 10 -4 10 -10z m438 0 c2 0
1 -4 -3 -10 -3 -5 -11 -7 -18 -5 -7 2 -43 6 -80 9 -38 2 -72 8 -75 11 -5 6
105 2 176 -5z m-751 -22 c-3 -8 -6 -5 -6 6 -1 11 2 17 5 13 3 -3 4 -12 1 -19z
m1927 -67 c49 -95 57 -123 31 -101 -8 7 -14 18 -13 25 2 7 -11 34 -29 61 -29
45 -52 104 -41 104 3 0 26 -40 52 -89z m-349 -6 c-94 -88 -144 -119 -65 -40
51 51 140 125 149 125 3 -1 -34 -39 -84 -85z m1018 78 c-7 -2 -19 -2 -25 0 -7
3 -2 5 12 5 14 0 19 -2 13 -5z m-1773 -13 c0 -5 -4 -10 -10 -10 -5 0 -10 5
-10 10 0 6 5 10 10 10 6 0 10 -4 10 -10z m600 -6 c0 -8 -4 -12 -10 -9 -5 3
-10 10 -10 16 0 5 5 9 10 9 6 0 10 -7 10 -16z m1240 6 c0 -5 -10 -10 -22 -9
-22 0 -22 1 -3 9 11 5 21 9 23 9 1 1 2 -3 2 -9z m-2200 -4 c0 -3 -4 -8 -10
-11 -5 -3 -10 -1 -10 4 0 6 5 11 10 11 6 0 10 -2 10 -4z m2303 -16 c-3 -12 -8
-19 -11 -16 -5 6 5 36 12 36 2 0 2 -9 -1 -20z m-156 -12 c-3 -8 -6 -5 -6 6 -1
11 2 17 5 13 3 -3 4 -12 1 -19z m-2907 3 c0 -5 -8 -15 -17 -22 -16 -12 -17
-12 -6 2 7 9 10 19 6 22 -3 4 -1 7 5 7 7 0 12 -4 12 -9z m1447 -13 c-3 -8 -6
-5 -6 6 -1 11 2 17 5 13 3 -3 4 -12 1 -19z m-1413 -34 c1 -21 -4 -39 -11 -41
-7 -3 -13 -9 -13 -15 0 -5 4 -7 9 -3 20 12 22 -17 2 -34 -13 -12 -18 -25 -14
-39 6 -23 19 -29 25 -12 2 5 9 6 17 1 10 -7 11 -13 1 -31 l-12 -22 -27 26
c-17 16 -33 49 -44 90 -21 78 -22 95 -5 78 13 -13 59 -17 57 -4 -1 4 -1 18 0
31 2 37 14 16 15 -25z m31 36 c3 -5 1 -10 -4 -10 -6 0 -11 5 -11 10 0 6 2 10
4 10 3 0 8 -4 11 -10z m512 4 c-3 -3 -12 -4 -19 -1 -8 3 -5 6 6 6 11 1 17 -2
13 -5z m2583 -14 c-6 -11 -13 -20 -16 -20 -2 0 0 9 6 20 6 11 13 20 16 20 2 0
0 -9 -6 -20z m-2275 -42 c3 -29 10 -75 15 -103 5 -27 11 -72 14 -100 l5 -50
-15 35 c-9 19 -23 64 -31 100 -8 36 -19 73 -24 82 -13 25 -12 88 1 68 8 -13
10 -12 10 3 0 39 19 13 25 -35z m-168 10 c-3 -7 -5 -2 -5 12 0 14 2 19 5 13 2
-7 2 -19 0 -25z m2514 15 c13 -15 12 -15 -8 -2 -18 11 -25 11 -35 1 -17 -17
-33 -15 -18 3 16 20 44 19 61 -2z m-2247 -40 c-4 -27 -13 -65 -22 -86 -17 -45
-11 -114 20 -202 29 -85 43 -110 73 -129 14 -9 23 -21 20 -26 -16 -25 202
-210 247 -210 10 0 18 -4 18 -9 0 -5 10 -11 23 -14 39 -10 125 -42 133 -49 25
-26 -138 22 -206 59 -122 68 -255 200 -302 299 -38 81 -71 236 -63 294 3 25 6
50 7 57 1 6 7 9 13 6 7 -2 17 9 23 26 16 46 24 37 16 -16z m311 27 c-3 -5 -11
-10 -16 -10 -6 0 -7 5 -4 10 3 6 11 10 16 10 6 0 7 -4 4 -10z m22 -12 c-3 -8
-6 -5 -6 6 -1 11 2 17 5 13 3 -3 4 -12 1 -19z m667 7 c-4 -9 -16 -21 -28 -27
-19 -10 -18 -8 4 15 29 31 31 32 24 12z m206 6 c0 -28 -13 -40 -31 -31 -22 13
-14 40 12 40 10 0 19 -4 19 -9z m-1083 -23 c-3 -8 -6 -5 -6 6 -1 11 2 17 5 13
3 -3 4 -12 1 -19z m2023 3 c-5 -11 -15 -23 -21 -27 -6 -3 -3 5 6 20 20 30 30
35 15 7z m-775 -1 c3 -5 1 -10 -4 -10 -6 0 -11 5 -11 10 0 6 2 10 4 10 3 0 8
-4 11 -10z m867 -19 c-12 -22 -20 -27 -29 -19 -19 15 -16 27 10 38 35 14 37
12 19 -19z m-91 -58 c-22 -43 -47 -87 -56 -98 -9 -11 5 21 31 70 57 111 54
105 60 105 2 0 -13 -35 -35 -77z m-1585 42 c33 5 55 1 90 -14 26 -12 58 -21
73 -21 15 0 36 -11 50 -25 19 -21 20 -25 6 -25 -11 0 -15 -5 -12 -15 4 -8 2
-17 -3 -20 -6 -4 -10 5 -10 19 0 16 -6 26 -15 26 -8 0 -15 -3 -16 -7 0 -5 -2
-20 -4 -35 -2 -17 1 -28 8 -28 7 0 6 -4 -3 -9 -9 -5 -56 -2 -118 8 -57 10
-105 14 -108 10 -2 -4 -16 -1 -31 6 -15 8 -60 19 -100 26 -40 6 -73 16 -73 21
0 5 10 6 22 2 12 -3 35 -8 52 -9 17 -1 49 -6 71 -10 35 -7 38 -6 27 7 -7 9
-31 18 -53 21 -53 7 -71 24 -20 19 28 -3 40 0 44 12 4 9 2 16 -3 16 -6 0 -10
5 -10 11 0 5 5 7 10 4 6 -3 10 1 10 10 0 11 6 14 24 9 15 -3 27 -1 32 8 7 10
9 9 12 -5 3 -16 10 -18 48 -12z m69 15 c3 -5 1 -10 -4 -10 -6 0 -11 5 -11 10
0 6 2 10 4 10 3 0 8 -4 11 -10z m1053 -28 c-37 -33 -66 -41 -33 -9 8 9 15 22
15 31 0 10 9 14 28 14 l29 -1 -39 -35z m-334 13 c-4 -8 -8 -15 -10 -15 -2 0
-4 7 -4 15 0 8 4 15 10 15 5 0 7 -7 4 -15z m139 -12 c26 -3 50 -10 54 -16 6
-9 -3 -8 -84 7 -13 3 -23 1 -23 -5 0 -14 -27 -11 -33 5 -7 19 3 28 22 21 9 -4
38 -9 64 -12z m138 -9 c-12 -15 -21 -33 -21 -42 0 -9 -7 -13 -20 -9 -15 4 -19
1 -16 -16 1 -11 11 -24 22 -29 12 -5 6 -6 -16 -2 -31 4 -37 1 -58 -30 -13 -19
-21 -40 -17 -46 6 -9 2 -9 -14 -1 -12 7 -21 8 -20 4 4 -24 -3 -43 -16 -43 -8
0 -15 -7 -15 -15 0 -23 -37 3 -44 31 -4 13 -14 31 -24 40 -16 17 -16 18 1 11
10 -4 26 -7 35 -7 14 0 14 -2 3 -9 -12 -8 -12 -11 0 -23 19 -20 45 -12 28 9
-7 8 -8 13 -3 12 19 -3 32 2 54 21 l23 20 -26 26 c-21 21 -29 24 -46 14 -17
-8 -19 -8 -15 4 6 16 44 29 44 15 0 -5 9 -9 19 -9 11 0 21 -6 24 -12 2 -8 13
-3 28 16 13 15 33 35 43 45 10 9 26 24 35 33 26 26 34 20 12 -8z m-671 5 c0
-12 28 -11 32 1 6 17 132 -24 137 -45 2 -14 5 -15 12 -4 7 11 9 11 9 -2 0 -10
13 -20 33 -25 l32 -10 3 -191 c2 -176 1 -192 -15 -196 -32 -9 -78 -16 -65 -11
6 3 12 15 12 25 0 11 -4 18 -9 15 -5 -4 -11 68 -13 168 -1 96 -6 177 -10 181
-3 4 -23 10 -42 15 -36 8 -41 4 -37 -28 2 -10 -2 -11 -15 -4 -10 5 -34 7 -55
5 -35 -5 -38 -4 -42 23 -4 26 -4 25 -6 -7 -1 -35 -1 -35 51 -45 70 -12 80 -38
12 -29 -48 7 -88 30 -79 45 9 14 -7 40 -24 41 -10 0 -11 2 -3 6 13 5 17 49 5
56 -5 2 -3 2 4 1 6 -2 13 3 16 9 5 14 57 19 57 6z m-820 -19 c0 -5 -4 -10 -10
-10 -5 0 -10 5 -10 10 0 6 5 10 10 10 6 0 10 -4 10 -10z m1961 -13 c-10 -9
-11 -8 -5 6 3 10 9 15 12 12 3 -3 0 -11 -7 -18z m-1251 -41 c0 -25 -22 -51
-33 -39 -4 3 -7 19 -7 35 0 21 5 28 20 28 14 0 20 -7 20 -24z m-1484 -19 c4
-4 -6 -8 -22 -8 -16 -1 -45 -3 -64 -4 -46 -2 -63 8 -26 15 42 7 104 6 112 -3z
m2907 -12 c-3 -8 -9 -15 -14 -15 -10 0 -12 24 -3 33 11 11 24 -3 17 -18z
m-919 1 c21 -10 23 -15 11 -19 -8 -4 -15 -13 -15 -22 0 -9 -9 -15 -21 -15 -19
0 -19 1 -4 16 11 12 13 20 6 27 -11 11 -15 27 -7 27 2 0 16 -6 30 -14z m257
-31 c0 -6 -10 -12 -22 -13 -19 -3 -20 -2 -8 12 15 16 31 17 30 1z m-1334 -78
c5 -3 38 12 74 33 66 40 99 50 99 27 0 -17 -133 -112 -138 -98 -2 6 -8 11 -12
11 -17 0 31 -70 70 -103 51 -44 141 -73 279 -92 63 -8 115 -14 117 -13 1 2 21
38 44 81 28 51 37 77 28 78 -10 0 -10 2 0 6 17 7 15 23 -3 23 -8 0 -15 5 -15
10 0 11 30 13 54 4 18 -7 15 -17 -45 -121 -46 -81 -47 -93 -8 -93 13 0 70 91
63 101 -3 5 0 9 6 9 6 0 8 6 4 13 -4 6 -4 9 1 5 4 -4 14 -3 22 4 7 6 -7 -25
-31 -68 -25 -43 -48 -79 -53 -79 -56 2 -198 20 -271 35 -113 24 -181 59 -236
122 -47 54 -108 167 -99 182 4 5 14 -8 24 -31 9 -22 21 -43 26 -46z m510 56
c-8 -7 -37 9 -31 19 3 5 12 4 20 -3 8 -6 13 -14 11 -16z m1338 4 c-8 -13 -13
-27 -10 -30 3 -4 0 -3 -7 3 -9 7 -7 15 7 30 24 27 29 25 10 -3z m291 1 c8 -12
-15 -28 -30 -22 -7 3 -12 13 -13 23 -1 14 3 17 18 14 11 -3 22 -10 25 -15z
m28 -4 c3 -8 2 -12 -4 -9 -6 3 -10 10 -10 16 0 14 7 11 14 -7z m-354 -14 c0
-5 -7 -7 -15 -4 -8 4 -12 10 -9 15 6 11 24 2 24 -11z m-1557 -26 c20 -4 37
-10 37 -14 0 -8 -87 4 -97 13 -8 9 11 9 60 1z m76 -13 c9 -6 10 -11 2 -15 -13
-8 -31 1 -31 15 0 11 11 11 29 0z m131 -17 c29 -5 32 -8 15 -14 -11 -4 -28 -4
-37 1 -9 5 -33 9 -52 9 -20 0 -36 4 -36 10 0 9 39 7 110 -6z m-510 -23 c12 -2
-48 -48 -78 -60 -25 -11 -30 -16 -21 -27 6 -7 8 -18 4 -24 -8 -13 -57 39 -52
55 4 15 107 63 126 60 9 -2 18 -4 21 -4z m560 -21 c0 -5 -5 -10 -11 -10 -5 0
-7 5 -4 10 3 6 8 10 11 10 2 0 4 -4 4 -10z m2045 -11 c11 -17 2 -18 -19 -3
-17 12 -17 14 -4 14 9 0 20 -5 23 -11z m-2353 -39 c63 -1 276 -34 249 -38 -35
-5 -252 18 -273 29 -10 5 -18 20 -17 32 l0 22 9 -22 c6 -14 18 -23 32 -23z
m508 25 c0 -8 -2 -15 -4 -15 -2 0 -6 7 -10 15 -3 8 -1 15 4 15 6 0 10 -7 10
-15z m-1575 -17 c-3 -13 -22 -40 -42 -60 -33 -32 -44 -37 -85 -38 -42 0 -48 3
-48 21 0 11 4 17 10 14 5 -3 18 -1 27 4 17 10 17 10 1 11 -10 0 -18 4 -18 9 0
11 34 20 80 22 l35 2 -40 7 -40 7 47 2 c26 0 50 6 53 11 11 18 24 10 20 -12z
m505 -32 c0 -6 -9 0 -20 14 -26 33 -25 52 0 21 11 -13 20 -28 20 -35z m1590
44 c0 -5 -5 -10 -11 -10 -5 0 -7 5 -4 10 3 6 8 10 11 10 2 0 4 -4 4 -10z m897
4 c-3 -3 -12 -4 -19 -1 -8 3 -5 6 6 6 11 1 17 -2 13 -5z m-1977 -18 c0 -9 -30
-14 -35 -6 -4 6 3 10 14 10 12 0 21 -2 21 -4z m1143 -8 c4 -10 8 -9 16 2 9 13
11 13 11 -2 0 -26 -4 -33 -15 -30 -5 2 -19 4 -30 5 -19 1 -35 14 -35 30 0 12
48 8 53 -5z m364 -7 c0 -11 -6 -17 -14 -14 -14 6 -17 16 -6 26 12 13 22 7 20
-12z m-950 -33 c-3 -7 -5 -2 -5 12 0 14 2 19 5 13 2 -7 2 -19 0 -25z m-1566
-20 c-9 -24 -51 -46 -51 -27 0 5 7 9 15 9 9 0 21 11 27 25 14 32 22 26 9 -7z
m1609 6 c0 -8 -5 -12 -10 -9 -6 4 -8 11 -5 16 9 14 15 11 15 -7z m295 6 c-3
-5 -12 -10 -18 -10 -7 0 -6 4 3 10 19 12 23 12 15 0z m725 3 c0 -5 -8 -17 -17
-28 -14 -18 -15 -18 -9 -2 3 10 6 23 6 28 0 5 5 9 10 9 6 0 10 -3 10 -7z m335
-13 c3 -5 1 -10 -4 -10 -6 0 -11 5 -11 10 0 6 2 10 4 10 3 0 8 -4 11 -10z
m475 -50 c0 -22 -4 -40 -10 -40 -5 0 -10 18 -10 40 0 22 5 40 10 40 6 0 10
-18 10 -40z m-1873 -2 c-3 -7 -5 -2 -5 12 0 14 2 19 5 13 2 -7 2 -19 0 -25z
m1462 23 c10 -6 10 -10 1 -16 -6 -4 -16 -3 -22 3 -6 6 -17 8 -24 5 -8 -3 -14
0 -14 6 0 13 39 14 59 2z m-2419 -10 c0 -6 -4 -13 -10 -16 -5 -3 -10 1 -10 9
0 9 5 16 10 16 6 0 10 -4 10 -9z m1640 -27 c0 -8 -4 -12 -10 -9 -5 3 -10 13
-10 21 0 8 5 12 10 9 6 -3 10 -13 10 -21z m-2535 -22 c-8 -8 -25 10 -19 20 4
6 9 5 15 -3 4 -7 6 -15 4 -17z m3570 19 c3 -5 1 -12 -5 -16 -5 -3 -10 1 -10 9
0 18 6 21 15 7z m73 -3 c-5 -16 -48 -24 -48 -10 0 11 17 20 38 21 8 1 12 -5
10 -11z m-1208 -23 c0 -27 -1 -28 -24 -19 -28 11 -17 40 17 43 4 1 7 -10 7
-24z m-100 -1 c0 -8 -4 -12 -10 -9 -5 3 -10 10 -10 16 0 5 5 9 10 9 6 0 10 -7
10 -16z m330 2 c0 -8 3 -22 7 -32 5 -14 2 -13 -16 5 -12 12 -19 26 -16 31 9
15 25 12 25 -4z m97 -1 c6 -2 16 -12 22 -22 8 -16 5 -19 -14 -21 -39 -3 -75
15 -75 38 0 20 13 21 67 5z m-537 -5 c0 -5 -4 -10 -10 -10 -5 0 -10 5 -10 10
0 6 5 10 10 10 6 0 10 -4 10 -10z m-2160 -9 c0 -6 -4 -13 -10 -16 -5 -3 -10 1
-10 9 0 9 5 16 10 16 6 0 10 -4 10 -9z m2907 -23 c-3 -7 -5 -2 -5 12 0 14 2
19 5 13 2 -7 2 -19 0 -25z m196 25 c-13 -2 -33 -2 -45 0 -13 2 -3 4 22 4 25 0
35 -2 23 -4z m-233 -17 c0 -19 -23 -26 -57 -16 l-28 8 33 1 c17 1 32 6 32 11
0 6 5 10 10 10 6 0 10 -6 10 -14z m387 -18 c-3 -7 -5 -2 -5 12 0 14 2 19 5 13
2 -7 2 -19 0 -25z m-1627 18 c0 -2 -6 -9 -13 -15 -10 -8 -14 -7 -14 4 0 8 6
15 14 15 7 0 13 -2 13 -4z m674 -18 c21 -29 20 -33 -4 -35 -11 -1 -20 4 -20
12 0 7 -3 20 -6 29 -9 24 13 19 30 -6z m48 -5 c33 -32 35 -43 7 -43 -17 0 -20
5 -16 21 4 15 0 23 -14 26 -10 3 -19 9 -19 14 0 15 13 10 42 -18z m65 5 c-3
-8 -6 -5 -6 6 -1 11 2 17 5 13 3 -3 4 -12 1 -19z m107 7 c-4 -9 0 -15 9 -15 9
0 20 -7 25 -15 10 -18 28 -22 145 -29 48 -3 87 -1 87 4 0 16 35 16 54 -1 26
-25 13 -39 -27 -29 -41 12 -307 18 -307 8 0 -7 206 -14 234 -9 6 1 19 -2 30
-8 12 -6 32 -12 46 -14 14 -2 4 -5 -22 -6 -50 -1 -55 -7 -37 -44 7 -16 4 -15
-11 5 -13 16 -34 29 -53 32 -67 10 -267 14 -267 5 0 -5 26 -9 58 -9 122 0 242
-13 242 -25 0 -10 -10 -11 -37 -5 -20 5 -78 9 -128 9 -51 0 -100 3 -109 7 -21
8 -36 -32 -36 -101 0 -48 3 -55 23 -60 12 -3 120 -5 240 -3 119 2 217 0 217
-4 0 -14 -475 -9 -488 4 -15 15 -17 208 -2 208 6 0 9 6 8 12 -2 8 8 12 27 11
l30 -2 -29 9 c-16 5 -33 7 -37 4 -4 -2 -10 0 -14 5 -3 6 4 15 15 21 13 7 20 7
20 0 0 -5 22 -10 50 -10 47 0 63 11 40 25 -13 8 -13 35 0 35 5 0 7 -7 4 -15z
m66 5 c0 -5 -4 -10 -10 -10 -5 0 -10 5 -10 10 0 6 5 10 10 10 6 0 10 -4 10
-10z m-2160 -10 c0 -5 -4 -10 -10 -10 -5 0 -10 5 -10 10 0 6 5 10 10 10 6 0
10 -4 10 -10z m1131 -12 c29 -8 45 -8 64 0 23 11 46 0 31 -15 -11 -11 -81 -11
-94 -1 -15 13 -30 2 -16 -12 15 -15 5 -82 -12 -76 -8 3 -14 0 -15 -7 0 -9 -2
-9 -6 1 -2 6 -14 12 -26 12 -12 0 -32 3 -44 6 -21 6 -21 6 -2 25 20 20 34 26
24 9 -3 -5 -1 -10 4 -10 10 0 12 6 10 28 0 4 10 10 23 14 22 6 22 6 -4 7 -37
1 -45 19 -11 24 16 2 30 5 32 6 2 0 21 -4 42 -11z m1039 -12 c0 -3 -4 -8 -10
-11 -5 -3 -10 -1 -10 4 0 6 5 11 10 11 6 0 10 -2 10 -4z m-792 -26 c18 0 31
-4 27 -9 -3 -5 -1 -12 5 -16 5 -3 10 -11 10 -16 0 -6 -4 -7 -10 -4 -6 3 -7 -1
-4 -9 3 -9 1 -16 -5 -16 -9 0 -16 28 -12 53 0 4 -22 7 -51 7 -47 0 -50 1 -32
14 12 9 23 11 29 5 5 -5 24 -9 43 -9z m-133 0 c3 -5 1 -10 -4 -10 -6 0 -11 5
-11 10 0 6 2 10 4 10 3 0 8 -4 11 -10z m-68 -32 c-3 -8 -6 -5 -6 6 -1 11 2 17
5 13 3 -3 4 -12 1 -19z m778 12 c-3 -5 -10 -10 -16 -10 -5 0 -9 5 -9 10 0 6 7
10 16 10 8 0 12 -4 9 -10z m-614 -38 c-11 -22 -3 -42 17 -42 8 0 13 -3 9 -6
-3 -3 -15 -3 -26 1 -16 5 -21 15 -21 40 0 26 4 33 15 29 10 -4 12 -11 6 -22z
m439 -3 c0 -5 -4 -9 -10 -9 -5 0 -10 7 -10 16 0 8 5 12 10 9 6 -3 10 -10 10
-16z m144 -2 c-9 -31 -14 -34 -25 -17 -8 13 -10 13 -19 0 -8 -12 -10 -11 -10
6 0 26 3 29 35 32 23 2 25 -1 19 -21z m546 -2 c7 -9 10 -18 6 -22 -3 -3 -6 -1
-6 5 0 7 -6 12 -14 12 -8 0 -18 5 -21 10 -10 16 21 11 35 -5z m155 5 c-3 -5
-10 -10 -16 -10 -5 0 -9 5 -9 10 0 6 7 10 16 10 8 0 12 -4 9 -10z m-165 -45
c0 -13 5 -25 11 -27 5 -2 7 -11 4 -21 -8 -18 -27 -13 -24 6 3 28 -2 57 -10 57
-12 0 -3 -84 9 -88 5 -2 6 -10 3 -18 -3 -8 0 -14 6 -14 6 0 11 5 11 10 0 6 4
10 10 10 5 0 7 -7 4 -15 -5 -11 -22 -15 -70 -15 -52 0 -62 3 -58 15 4 8 10 12
15 9 5 -3 9 0 9 6 0 7 -7 10 -15 7 -8 -4 -17 -2 -20 3 -4 6 -1 10 6 10 8 0 10
11 6 34 -3 22 -1 37 6 40 7 2 3 5 -8 5 -13 1 -16 4 -8 9 6 4 34 5 62 4 46 -4
51 -6 51 -27z m-1170 4 c0 -6 -4 -7 -10 -4 -5 3 -10 11 -10 16 0 6 5 7 10 4 6
-3 10 -11 10 -16z m-210 1 c0 -5 -4 -10 -10 -10 -5 0 -10 5 -10 10 0 6 5 10
10 10 6 0 10 -4 10 -10z m321 -13 c-13 -13 -26 -3 -16 12 3 6 11 8 17 5 6 -4
6 -10 -1 -17z m756 -19 c-3 -8 -6 -5 -6 6 -1 11 2 17 5 13 3 -3 4 -12 1 -19z
m833 -15 c0 -7 -4 -13 -10 -13 -5 0 -10 12 -10 28 0 21 2 24 10 12 5 -8 10
-21 10 -27z m-147 -14 c-8 -29 -13 -23 -13 14 0 22 3 28 9 18 5 -7 6 -22 4
-32z m184 9 c-3 -7 -5 -2 -5 12 0 14 2 19 5 13 2 -7 2 -19 0 -25z m-2286 7
c19 -8 27 -14 19 -14 -14 0 -72 28 -59 29 4 0 22 -7 40 -15z m2338 8 c0 -5 -4
-17 -9 -28 -8 -18 -9 -17 -9 8 -1 15 4 27 9 27 6 0 10 -3 9 -7z m-3119 -58
c26 -13 41 -35 25 -35 -20 0 -75 31 -70 40 8 13 11 13 45 -5z m2185 -6 c17 -2
-6 -5 -50 -8 -85 -6 -99 -5 -90 9 3 5 29 7 58 5 28 -2 66 -5 82 -6z m115 -1
c0 -4 -16 -8 -35 -8 -19 0 -35 3 -35 8 0 4 16 7 35 8 19 0 35 -3 35 -8z m340
-58 c0 -5 -4 -10 -9 -10 -6 0 -13 5 -16 10 -3 6 1 10 9 10 9 0 16 -4 16 -10z
m40 -20 c0 -5 -4 -10 -10 -10 -5 0 -10 5 -10 10 0 6 5 10 10 10 6 0 10 -4 10
-10z m-357 -61 c-4 -4 -18 -6 -31 -2 -18 4 -20 8 -11 19 8 10 16 11 31 3 12
-6 16 -15 11 -20z m-2430 -136 c-7 -2 -19 -2 -25 0 -7 3 -2 5 12 5 14 0 19 -2
13 -5z m940 0 c-7 -2 -19 -2 -25 0 -7 3 -2 5 12 5 14 0 19 -2 13 -5z m-878
-73 c3 -5 1 -10 -4 -10 -6 0 -11 5 -11 10 0 6 2 10 4 10 3 0 8 -4 11 -10z m42
4 c-3 -3 -12 -4 -19 -1 -8 3 -5 6 6 6 11 1 17 -2 13 -5z m2160 -49 c12 -8 27
-31 33 -50 12 -36 7 -46 -42 -84 -15 -11 -17 -10 -13 8 2 12 0 21 -6 21 -5 0
-9 14 -9 31 0 24 4 30 15 25 8 -3 15 -1 15 4 0 17 -26 11 -51 -11 l-24 -21 -3
33 c-5 52 40 76 85 44z m-352 -15 c-3 -5 -14 -10 -23 -10 -15 0 -15 2 -2 10
20 13 33 13 25 0z m-180 -100 c7 -12 -2 -12 -30 0 -19 8 -19 9 2 9 12 1 25 -3
28 -9z m-355 -54 c0 -12 -14 5 -31 39 -8 16 -6 15 10 -4 12 -13 21 -28 21 -35z
m-99 27 c13 -16 12 -17 -3 -4 -17 13 -22 21 -14 21 2 0 10 -8 17 -17z m-201 3
c0 -2 -7 -7 -16 -10 -8 -3 -12 -2 -9 4 6 10 25 14 25 6z m882 -13 c8 -10 26
-43 40 -74 24 -53 27 -56 57 -51 19 2 31 0 31 -7 0 -6 -9 -11 -20 -11 -25 0
-26 -26 -3 -52 12 -13 16 -33 14 -62 -2 -37 1 -44 23 -54 14 -6 26 -17 25 -24
0 -10 -2 -10 -6 0 -7 17 -23 15 -23 -3 0 -8 -4 -15 -10 -15 -5 0 -6 7 -3 17 4
11 3 14 -5 9 -7 -4 -15 -1 -18 8 -3 9 -10 14 -14 11 -5 -3 -11 -1 -15 5 -3 5
0 10 8 10 12 0 14 9 10 43 -9 70 -37 86 -80 45 -23 -21 -29 -15 -17 16 3 9 12
16 19 16 22 0 25 30 9 83 -24 74 -50 100 -92 92 -23 -4 -32 -3 -27 4 10 18 80
13 97 -6z m991 -11 c9 -8 17 -25 16 -36 0 -14 -2 -16 -6 -6 -3 8 -17 28 -32
44 -26 29 -13 27 22 -2z m-1055 -40 c24 -13 41 -27 38 -29 -6 -7 -133 64 -142
78 -7 11 33 -7 104 -49z m1356 37 c29 -22 55 -66 67 -114 7 -26 8 -24 4 10 -3
22 -7 51 -10 65 -6 22 -3 25 23 27 20 1 32 -4 36 -14 5 -12 1 -14 -14 -10 -11
3 -23 1 -26 -4 -3 -5 -1 -9 4 -9 5 0 13 -10 16 -22 l6 -23 14 24 13 23 16 -38
c17 -42 24 -32 7 10 -13 35 -4 33 15 -4 19 -37 20 -64 1 -57 -8 3 -16 -2 -19
-13 -5 -19 -39 -22 -65 -6 -8 5 -12 0 -12 -13 0 -17 7 -21 38 -22 36 -1 37 -1
7 -8 -16 -4 -34 -4 -39 1 -6 4 -19 8 -30 8 -16 0 -18 2 -7 9 18 12 4 34 -18
27 -15 -5 -15 -4 0 6 14 10 12 18 -18 72 -19 34 -39 65 -44 71 -11 11 -12 25
0 25 4 0 20 -9 35 -21z m-2752 -15 c-3 -19 -3 -19 10 0 12 15 21 17 59 10 24
-4 50 -7 58 -5 9 2 12 -3 8 -13 -4 -9 -2 -16 3 -16 6 0 10 5 10 11 0 8 6 7 17
-2 14 -12 16 -12 8 0 -6 11 -2 13 26 8 19 -3 43 -8 54 -12 16 -6 17 -5 5 4
-13 9 -12 11 3 11 10 0 27 -5 37 -10 12 -7 28 -7 44 0 22 8 26 7 26 -10 0 -10
-4 -22 -10 -25 -5 -3 -10 -15 -10 -26 0 -11 -6 -22 -14 -25 -8 -3 -13 -11 -10
-19 3 -7 -5 -14 -21 -17 -29 -6 -382 35 -392 45 -3 4 9 14 26 24 22 13 30 24
27 36 -2 10 2 21 9 23 8 3 11 13 8 21 -4 11 -2 14 8 11 8 -3 13 -14 11 -24z
m697 19 c-5 -28 16 -72 36 -77 27 -7 65 -77 65 -120 0 -23 -2 -25 -14 -14 -7
8 -13 24 -12 37 1 13 -6 26 -14 29 -13 5 -13 3 -1 -12 12 -14 12 -18 -5 -31
-14 -10 -16 -17 -8 -25 9 -8 9 -18 0 -36 -14 -31 -36 -31 -36 0 0 35 -10 56
-26 56 -17 0 -18 12 -1 30 10 12 9 12 -5 1 -10 -7 -20 -22 -24 -33 -5 -16 -8
-18 -15 -7 -6 10 -10 8 -18 -11 -10 -25 -10 -25 -10 -2 -1 13 6 36 14 52 9 17
13 30 11 30 -7 0 -37 -58 -47 -90 -6 -22 -7 -22 -8 -4 -2 36 21 88 52 122 35
36 26 44 -11 10 l-25 -23 12 22 c15 30 43 44 62 32 24 -15 29 -10 18 18 -5 14
-8 32 -5 40 6 14 17 18 15 6z m2108 1 c-3 -3 -12 -4 -19 -1 -8 3 -5 6 6 6 11
1 17 -2 13 -5z m-2169 -29 c6 -14 10 -25 8 -25 -3 0 -11 -3 -19 -6 -10 -3 -16
3 -19 20 -8 43 12 50 30 11z m1797 15 c24 -20 17 -37 -17 -44 -69 -12 -183
-17 -169 -7 12 8 12 13 -1 33 l-15 23 94 3 c63 3 99 0 108 -8z m-1922 -16 c-5
-14 -1 -16 20 -12 18 4 27 1 27 -8 0 -7 9 -16 21 -19 16 -5 18 -9 8 -21 -7 -8
-20 -12 -30 -9 -14 5 -17 2 -13 -8 3 -8 0 -18 -7 -23 -7 -4 -10 -3 -5 4 3 6 2
13 -3 17 -6 3 -8 12 -4 21 3 8 -2 23 -12 34 -9 10 -14 24 -10 29 10 17 15 13
8 -5z m1692 5 c4 -5 8 -20 9 -32 2 -20 -3 -22 -53 -26 -31 -3 -85 -5 -121 -5
-36 -1 -69 -5 -73 -11 -5 -6 -6 -2 -3 9 5 15 3 17 -11 10 -10 -4 -30 -7 -45
-7 -17 0 -28 -6 -30 -16 -2 -10 -11 -1 -23 24 l-20 40 52 1 c29 1 53 -2 53 -7
0 -5 -7 -9 -15 -9 -8 0 -15 -5 -15 -11 0 -6 7 -8 16 -5 9 3 23 6 31 6 12 0 13
3 4 14 -15 18 19 25 127 23 45 -1 82 1 82 6 0 11 28 8 35 -4z m379 2 c8 -12
-13 -19 -44 -15 -37 4 -38 6 -5 14 43 11 43 11 49 1z m-796 -38 c12 -7 20 -18
17 -23 -4 -6 1 -10 9 -10 9 0 16 -4 16 -10 0 -5 -18 -10 -39 -10 -22 0 -42 -5
-44 -12 -3 -7 -6 -3 -6 9 -1 12 -13 36 -28 53 l-26 31 39 -6 c21 -4 49 -14 62
-22z m-1307 -6 c-10 -9 -11 -8 -5 6 3 10 9 15 12 12 3 -3 0 -11 -7 -18z m433
-47 c4 -24 3 -29 -3 -15 -4 11 -11 36 -15 55 -4 24 -3 29 3 15 4 -11 11 -36
15 -55z m710 21 c15 -27 12 -41 -6 -41 -4 0 -8 6 -8 14 0 7 -9 25 -20 39 -25
32 -25 41 0 27 11 -6 26 -23 34 -39z m1406 15 c0 -2 -8 -10 -17 -17 -16 -13
-17 -12 -4 4 13 16 21 21 21 13z m-1352 -18 c-2 -8 6 -12 20 -10 31 5 27 -4
-8 -17 -25 -8 -32 -7 -37 5 -3 9 0 20 8 25 18 11 19 11 17 -3z m469 -4 c-3 -3
-12 -4 -19 -1 -8 3 -5 6 6 6 11 1 17 -2 13 -5z m513 -3 c14 -4 25 -14 25 -23
0 -9 3 -20 7 -23 19 -19 -9 -34 -74 -40 -46 -5 -66 -10 -57 -16 10 -6 2 -9
-22 -9 -63 0 -61 -51 2 -65 16 -4 29 -11 29 -17 0 -6 7 -8 15 -5 8 4 17 2 20
-3 4 -6 22 -10 41 -10 19 0 34 -5 34 -11 0 -6 -7 -9 -15 -6 -8 4 -17 2 -20 -4
-4 -5 -11 -6 -17 -3 -6 4 -9 3 -6 -2 2 -5 14 -30 26 -56 21 -45 54 -78 77 -78
5 0 -5 10 -22 21 -40 25 -42 33 -7 25 24 -6 26 -5 22 17 -4 23 -3 24 28 17 25
-6 34 -4 39 8 3 8 0 19 -7 25 -13 8 22 4 66 -10 13 -4 16 -2 11 8 -6 9 -2 11
16 6 13 -4 29 -7 36 -7 7 0 10 -7 7 -17 -5 -15 -4 -15 5 -3 9 12 14 11 40 -8
17 -12 36 -22 43 -22 7 0 5 5 -5 13 -11 8 -14 17 -7 27 7 12 12 12 29 -4 12
-11 21 -25 21 -32 0 -21 40 -38 54 -23 8 9 8 10 -1 5 -7 -4 -13 -3 -13 3 0 6
-7 8 -16 4 -13 -5 -15 -2 -10 15 6 17 0 26 -26 42 -18 11 -51 21 -73 21 l-40
2 45 7 c57 9 95 -1 95 -24 0 -10 10 -25 22 -33 20 -13 21 -13 16 6 -3 12 -1
21 6 21 6 0 11 -7 11 -16 0 -8 5 -12 10 -9 6 4 8 11 5 16 -3 5 1 6 9 3 9 -3
16 -11 16 -18 0 -6 5 -4 10 4 5 8 10 10 10 5 0 -6 12 -12 26 -13 14 -1 30 -4
35 -8 14 -8 11 -34 -5 -34 -8 0 -16 -7 -20 -15 -3 -8 -12 -15 -21 -15 -8 0
-15 -6 -15 -14 0 -20 -32 -28 -61 -17 -13 5 -18 10 -11 10 18 1 4 21 -15 21
-10 0 -14 -6 -10 -20 4 -15 -2 -24 -23 -35 -15 -8 -30 -20 -33 -27 -3 -10 -9
-8 -24 5 -16 14 -22 15 -25 5 -3 -8 -27 -14 -59 -16 -30 -2 -57 -9 -61 -15 -6
-9 -10 -9 -17 2 -11 16 -31 6 -31 -16 0 -13 -3 -13 -15 -3 -12 10 -18 10 -29
1 -12 -10 -18 -6 -32 18 -13 22 -20 26 -28 17 -21 -23 -36 -56 -36 -79 0 -26
-21 -77 -32 -77 -5 0 -8 20 -8 45 0 35 -4 45 -16 45 -14 0 -15 2 -3 17 13 15
11 16 -14 11 -17 -3 -34 0 -41 8 -11 11 -17 10 -31 -6 -19 -21 -40 -17 -31 6
3 8 2 14 -3 14 -5 0 -11 -14 -15 -31 -4 -24 -10 -29 -24 -25 -14 5 -23 -4 -40
-36 -12 -24 -22 -35 -22 -25 0 10 -12 30 -26 44 -20 20 -28 23 -34 13 -5 -8
-14 -15 -22 -16 -7 -1 -20 -5 -28 -8 -11 -5 -22 5 -37 34 -17 35 -21 38 -26
21 -6 -25 -45 -42 -69 -30 -11 6 -18 4 -22 -7 -5 -13 -9 -14 -21 -4 -8 7 -15
8 -15 3 0 -13 -30 -12 -30 1 0 6 -8 -4 -16 -21 -9 -18 -21 -33 -26 -33 -5 0
-6 5 -3 10 3 6 1 10 -4 10 -6 0 -11 -7 -11 -15 0 -8 -5 -15 -11 -15 -7 0 -9
10 -7 25 4 19 0 26 -23 34 -21 7 -29 6 -33 -5 -3 -9 -11 -12 -17 -8 -7 4 -30
9 -51 11 -31 2 -45 -2 -66 -22 -14 -13 -30 -21 -35 -16 -4 4 -22 -5 -39 -22
-24 -24 -31 -28 -39 -16 -5 8 -4 15 1 17 6 2 7 9 3 14 -5 10 -9 27 -15 85 -1
6 -7 9 -15 6 -14 -6 -131 102 -122 112 3 3 20 -9 38 -26 19 -18 41 -29 54 -28
32 3 77 -11 119 -37 29 -19 37 -20 42 -9 4 12 10 12 41 -1 20 -8 34 -10 30 -5
-6 11 20 16 59 12 11 -1 23 4 28 11 6 10 10 10 19 -2 9 -13 10 -12 5 3 -7 21
-2 21 28 1 16 -10 26 -12 31 -4 3 5 -2 13 -12 17 -26 9 -63 44 -57 54 3 5 18
9 35 9 16 0 29 5 30 13 0 6 4 2 9 -10 7 -16 18 -23 37 -23 22 0 25 -2 13 -10
-13 -8 -12 -10 3 -10 10 0 17 7 17 18 0 10 3 13 8 7 4 -6 19 -10 35 -10 15 1
27 -2 27 -6 0 -11 39 -18 45 -9 9 14 -33 32 -58 25 -22 -6 -22 -6 -2 10 11 9
29 15 40 14 11 -1 31 3 44 8 18 7 36 5 70 -8 81 -30 116 -39 137 -33 12 3 25
1 28 -5 4 -6 16 -11 26 -11 36 0 -20 45 -59 48 -25 2 -44 12 -68 38 l-33 37
36 -6 c20 -3 42 -14 49 -23 6 -9 17 -14 23 -10 6 3 16 1 24 -6 38 -36 48 -41
63 -28 8 7 15 8 15 2 0 -13 35 -22 50 -12 7 4 27 2 44 -5 41 -18 72 -3 41 19
-62 43 -93 74 -85 82 14 14 0 59 -22 73 -17 10 -20 9 -25 -8 -5 -19 -10 -16
-46 25 -22 25 -51 50 -64 55 -13 5 -22 13 -19 17 3 5 -9 9 -26 10 -24 1 -42
11 -71 42 -22 22 -38 42 -36 44 2 2 65 9 139 15 74 7 136 14 139 17 6 6 72 3
101 -5z m-1328 -47 c7 -4 8 -3 4 4 -15 24 26 11 55 -17 21 -21 29 -39 28 -63
0 -18 -3 -27 -6 -20 -8 20 -31 14 -35 -10 -2 -16 -9 -22 -21 -20 -10 2 -25 -2
-34 -9 -12 -10 -16 -10 -22 0 -12 18 -13 18 -48 -7 l-31 -22 -7 30 c-4 16 -10
30 -14 30 -4 0 -27 18 -51 40 -33 31 -46 37 -60 30 -15 -8 -17 -6 -13 10 3 11
6 20 7 20 0 1 37 4 81 7 44 3 82 7 84 9 6 5 70 -4 83 -12z m898 0 c53 -11 60
-83 7 -85 -12 0 -16 -3 -9 -6 6 -2 10 -9 7 -13 -3 -5 -23 -3 -44 5 -21 7 -44
9 -51 5 -10 -6 -8 -9 6 -13 16 -4 16 -5 2 -6 -9 0 -20 4 -23 9 -8 13 -75 13
-75 0 0 -5 13 -7 30 -3 19 3 30 1 30 -6 0 -6 -10 -11 -22 -12 -13 0 -34 -2
-47 -5 -19 -3 -22 -2 -12 10 16 19 -6 66 -30 66 -22 0 -35 18 -21 32 21 21
185 35 252 22z m-2962 -20 c40 -4 75 -11 78 -16 7 -11 -91 -1 -172 18 -40 9
-46 12 -19 9 22 -2 73 -7 113 -11z m2378 -15 c9 -18 19 -61 22 -96 l7 -64 94
-39 c97 -40 129 -60 98 -60 -16 0 -26 -15 -42 -65 -5 -16 -8 -17 -15 -5 -5 8
-4 22 2 34 8 15 7 22 -6 31 -8 7 -12 16 -8 20 4 5 1 5 -6 1 -23 -14 -80 3 -87
25 -4 11 -9 18 -12 15 -3 -3 -13 2 -21 11 -11 11 -17 37 -18 78 -2 34 -10 79
-18 100 -17 41 -18 45 -11 45 2 0 12 -14 21 -31z m-1556 7 c25 -1 48 -5 52
-11 5 -6 8 -4 8 5 1 13 2 13 10 -1 7 -11 24 -15 65 -14 30 1 55 -2 55 -7 0
-17 18 -7 24 15 7 21 7 21 15 2 5 -11 4 -28 -1 -37 -5 -11 -5 -25 2 -37 6 -12
6 -22 1 -25 -8 -6 -23 17 -25 39 -1 12 -40 20 -201 40 -149 19 -165 23 -165
37 0 6 20 7 58 2 31 -4 77 -8 102 -8z m1827 -11 c23 -16 36 -86 18 -101 -12
-11 -96 -11 -112 -1 -7 4 -15 2 -19 -4 -3 -6 0 -15 7 -20 21 -13 1 -11 -24 3
-12 6 -33 13 -47 14 -29 4 -50 29 -50 60 0 13 -4 26 -10 29 -21 13 -8 24 33
28 108 9 183 7 204 -8z m-1404 -9 c10 -8 14 -16 10 -19 -5 -3 -20 3 -33 14
-17 12 -20 19 -10 18 8 0 23 -6 33 -13z m2417 4 c0 -5 -4 -10 -10 -10 -5 0
-10 5 -10 10 0 6 5 10 10 10 6 0 10 -4 10 -10z m-2923 -20 c13 0 22 -4 19 -9
-6 -9 -95 4 -105 15 -3 4 9 4 28 0 18 -3 44 -6 58 -6z m2613 6 c0 -9 -30 -14
-35 -6 -4 6 3 10 14 10 12 0 21 -2 21 -4z m-2675 -33 c13 -12 19 -13 25 -4 5
10 9 9 13 -3 4 -9 11 -16 17 -16 6 0 8 5 5 10 -3 6 -1 10 4 10 6 0 11 -5 11
-11 0 -7 11 -9 29 -6 19 4 32 2 35 -6 5 -9 7 -9 12 0 3 8 13 9 27 4 12 -4 45
-9 72 -10 28 -2 52 -7 53 -12 2 -5 8 -7 13 -3 5 3 9 0 9 -6 0 -7 7 -10 15 -6
8 3 15 1 15 -4 0 -5 8 -7 18 -4 14 5 14 3 -2 -7 -15 -9 -44 -8 -140 5 -228 32
-279 46 -270 71 8 19 19 19 39 -2z m1548 10 c3 -5 -1 -14 -9 -20 -14 -14 -30
0 -19 17 7 12 22 13 28 3z m-1366 -9 c-3 -3 -12 -4 -19 -1 -8 3 -5 6 6 6 11 1
17 -2 13 -5z m123 -15 c8 -5 -9 -6 -40 -2 -30 3 -59 10 -65 14 -11 11 83 0
105 -12z m400 11 c0 -5 -2 -10 -4 -10 -3 0 -8 5 -11 10 -3 6 -1 10 4 10 6 0
11 -4 11 -10z m157 -22 c-3 -8 -6 -5 -6 6 -1 11 2 17 5 13 3 -3 4 -12 1 -19z
m-150 -30 c-3 -8 -6 -5 -6 6 -1 11 2 17 5 13 3 -3 4 -12 1 -19z m122 15 c0 -5
-4 -16 -8 -26 -6 -17 -8 -17 -20 -3 -11 14 -11 16 3 16 10 0 14 5 11 10 -3 6
-1 10 4 10 6 0 11 -3 10 -7z m-1556 -10 c-7 -2 -21 -2 -30 0 -10 3 -4 5 12 5
17 0 24 -2 18 -5z m1487 -8 c0 -8 -7 -15 -15 -15 -16 0 -20 12 -8 23 11 12 23
8 23 -8z m-1366 -15 c4 -5 -9 -5 -30 0 -71 15 -79 19 -29 14 28 -3 54 -9 59
-14z m1151 -8 c-9 -2 -12 -9 -9 -15 5 -9 3 -9 -6 0 -11 10 -11 15 0 28 11 13
15 13 21 3 6 -8 3 -14 -6 -16z m1600 18 c3 -5 1 -10 -4 -10 -6 0 -11 5 -11 10
0 6 2 10 4 10 3 0 8 -4 11 -10z m268 1 c30 -12 44 -40 19 -39 -9 0 -21 -1 -27
-3 -5 -2 -20 6 -32 18 -14 14 -18 23 -10 27 18 7 24 7 50 -3z m354 -7 c-3 -3
-12 -4 -19 -1 -8 3 -5 6 6 6 11 1 17 -2 13 -5z m-481 -13 c-3 -4 -36 -11 -73
-15 -37 -3 -122 -13 -188 -21 -66 -8 -140 -14 -165 -14 l-45 1 50 8 c55 8 104
14 245 30 52 5 109 12 125 14 17 1 36 4 43 5 7 0 11 -3 8 -8z m-2276 -27 c0
-2 -7 -4 -15 -4 -8 0 -15 4 -15 10 0 5 7 7 15 4 8 -4 15 -8 15 -10z m1640 -60
c7 -24 19 -48 28 -53 11 -6 11 -10 3 -16 -7 -4 -13 -5 -15 -4 -15 24 -66 130
-66 139 0 28 38 -22 50 -66z m247 70 c-3 -3 -12 -4 -19 -1 -8 3 -5 6 6 6 11 1
17 -2 13 -5z m-677 -29 c0 -8 -4 -17 -10 -20 -5 -3 -10 1 -10 9 0 9 -5 16 -11
16 -5 0 -8 4 -4 10 8 13 35 1 35 -15z m1283 8 c-7 -2 -21 -2 -30 0 -10 3 -4 5
12 5 17 0 24 -2 18 -5z m-2259 -27 c90 -15 122 -26 70 -25 -32 0 -198 37 -174
38 8 1 55 -6 104 -13z m142 -21 c-3 -8 -13 -15 -23 -15 -17 1 -17 1 0 11 9 5
17 18 18 27 0 11 2 12 6 4 3 -7 2 -19 -1 -27z m-949 9 c-3 -3 -12 -4 -19 -1
-8 3 -5 6 6 6 11 1 17 -2 13 -5z m1664 -13 c-10 -18 -89 -88 -121 -106 -8 -5
14 20 50 56 67 68 88 83 71 50z m275 -4 c4 -4 -11 -7 -34 -7 -22 0 -43 4 -46
9 -7 10 70 9 80 -2z m-136 -21 c0 -2 -7 -6 -15 -10 -8 -3 -15 -1 -15 4 0 6 7
10 15 10 8 0 15 -2 15 -4z m-1264 -23 c-2 -30 -37 -93 -51 -93 -7 0 -15 -5
-17 -12 -3 -8 -6 -9 -11 -1 -4 6 2 21 12 34 16 20 17 25 4 38 -14 13 -13 17 7
33 29 23 58 23 56 1z m-86 -3 c0 -5 -5 -10 -11 -10 -5 0 -7 5 -4 10 3 6 8 10
11 10 2 0 4 -4 4 -10z m540 -33 c0 -5 -7 -4 -15 3 -8 7 -15 20 -15 29 1 13 3
13 15 -3 8 -11 15 -24 15 -29z m260 33 c0 -5 30 -24 68 -41 37 -17 69 -34 72
-38 3 -3 14 -8 25 -9 31 -6 109 -42 102 -48 -3 -3 -16 0 -29 6 -22 11 -22 11
2 -10 28 -25 36 -27 -105 27 -49 19 -106 44 -125 56 l-35 21 19 -22 c11 -12
17 -24 15 -26 -7 -7 -45 28 -58 52 -10 20 -9 23 11 32 31 12 38 12 38 0z
m1940 0 c0 -5 -7 -7 -15 -4 -8 4 -15 8 -15 10 0 2 7 4 15 4 8 0 15 -4 15 -10z
m-3430 -26 c0 -8 5 -12 10 -9 6 3 10 1 10 -6 0 -7 6 -5 14 6 8 11 19 16 30 12
9 -4 16 -2 16 2 0 5 11 8 24 7 18 -1 22 -4 14 -13 -5 -6 -15 -10 -22 -7 -13 5
-63 -42 -54 -51 3 -3 12 0 19 8 8 7 21 14 29 14 8 0 24 4 35 8 16 5 17 5 5 -4
-13 -9 -13 -11 2 -11 9 0 19 4 23 10 3 5 15 6 28 1 12 -4 27 -6 34 -4 7 3 9
-3 6 -16 -3 -12 -10 -21 -17 -21 -6 0 -4 -5 4 -10 8 -5 13 -10 10 -11 -3 0
-13 -2 -24 -4 -10 -2 -30 1 -43 6 -17 6 -30 6 -38 -1 -8 -7 -17 -4 -30 10 -10
11 -23 16 -29 13 -21 -13 -37 -12 -55 6 -18 18 -25 81 -9 81 4 0 8 -7 8 -16z
m340 6 c0 -5 -5 -10 -11 -10 -5 0 -7 5 -4 10 3 6 8 10 11 10 2 0 4 -4 4 -10z
m-382 -63 c-5 -10 -12 -16 -15 -13 -12 12 -12 61 0 68 16 10 27 -31 15 -55z
m2008 36 c-4 -9 -2 -11 7 -6 21 13 327 41 316 29 -10 -10 -201 -36 -213 -29
-5 3 -6 1 -2 -5 5 -8 -3 -12 -22 -12 -16 0 -42 -10 -57 -22 -19 -14 -30 -18
-32 -11 -3 7 -11 9 -19 6 -17 -6 -18 8 -1 27 10 12 9 12 -5 1 -16 -12 -82 -10
-95 3 -9 9 25 19 42 13 8 -4 17 -2 20 3 4 6 17 10 31 10 17 0 23 4 18 12 -5 7
-3 8 5 4 7 -5 10 -15 7 -23z m-1296 -3 c0 -10 -6 -23 -12 -27 -7 -4 -13 -15
-13 -23 0 -8 -8 -16 -19 -18 -13 -3 -16 0 -10 10 6 10 5 10 -9 -1 -12 -9 -16
-26 -14 -52 1 -22 -2 -38 -8 -36 -5 1 -10 14 -10 30 0 32 -10 36 -18 6 -5 -18
-8 -19 -21 -8 -13 12 -13 16 7 29 12 8 42 36 67 61 51 53 60 57 60 29z m40 6
c0 -3 -4 -8 -10 -11 -5 -3 -10 -1 -10 4 0 6 5 11 10 11 6 0 10 -2 10 -4z
m2025 -36 c-12 -19 -22 -10 -17 16 4 22 6 24 14 10 5 -9 6 -21 3 -26z m51 18
c5 -8 2 -9 -9 -5 -10 4 -17 1 -17 -5 0 -6 -3 -9 -6 -5 -7 7 4 27 16 27 5 0 12
-5 16 -12z m-2505 -22 c-5 -6 -10 -15 -11 -21 -4 -17 -26 -45 -32 -40 -6 6 0
66 7 73 3 3 5 -2 5 -12 0 -9 4 -15 10 -11 5 3 7 12 3 20 -4 11 -1 13 11 9 11
-4 13 -10 7 -18z m1454 3 c11 -17 -1 -21 -15 -4 -8 9 -8 15 -2 15 6 0 14 -5
17 -11z m406 -8 c-11 -7 -9 -10 10 -13 22 -4 22 -5 5 -13 -12 -5 -21 -3 -26 6
-10 15 -4 29 13 29 8 0 7 -4 -2 -9z m-1761 -47 c0 -3 -7 -1 -15 6 -8 7 -15 17
-15 22 0 5 7 3 15 -6 8 -8 15 -18 15 -22z m2020 26 c0 -5 -4 -10 -10 -10 -5 0
-10 5 -10 10 0 6 5 10 10 10 6 0 10 -4 10 -10z m-1085 -10 c4 -6 15 -8 26 -5
11 4 19 2 19 -4 0 -6 -4 -11 -10 -11 -5 0 -7 -6 -5 -13 5 -12 -41 -33 -97 -44
-16 -3 -28 -11 -28 -18 0 -18 30 -27 46 -14 8 7 27 9 44 5 28 -5 30 -4 20 14
-8 16 -6 21 11 31 19 10 21 9 16 -4 -4 -11 -2 -14 8 -11 8 3 15 -2 17 -13 3
-16 4 -16 10 -2 4 10 -1 25 -13 37 -24 27 -24 32 2 32 12 0 23 -8 26 -20 3
-11 9 -17 14 -14 5 3 18 0 29 -6 12 -6 20 -7 20 -1 0 5 -9 13 -20 16 -11 3
-20 11 -20 16 0 6 9 7 20 4 11 -3 33 -7 50 -7 36 -1 39 -15 5 -28 -14 -5 -25
-12 -25 -15 0 -7 38 0 46 8 15 14 42 6 68 -20 14 -14 29 -23 33 -20 3 4 1 7
-5 7 -7 0 -12 4 -12 10 0 5 7 7 15 4 8 -4 15 -2 15 4 0 5 -9 12 -21 15 -12 3
-18 10 -15 16 4 6 19 3 40 -10 19 -11 44 -22 57 -24 23 -5 39 -21 39 -40 0 -6
-17 -12 -37 -13 -21 -2 -40 -7 -44 -13 -3 -6 -11 -4 -19 6 -14 16 -45 21 -35
5 3 -5 -1 -10 -10 -10 -10 0 -13 -5 -9 -12 5 -8 -2 -9 -25 -5 -24 5 -33 3 -38
-9 -5 -15 -7 -15 -15 0 -5 9 -14 13 -20 10 -6 -4 -27 -7 -47 -7 -25 0 -36 5
-41 19 -7 18 -8 18 -14 -3 -4 -13 -15 -24 -24 -24 -15 -1 -15 -2 1 -6 21 -6
22 -19 1 -27 -28 -11 -34 -6 -40 34 -4 26 -15 45 -31 55 -24 16 -25 16 -19 -7
3 -12 3 -17 0 -10 -5 10 -9 10 -20 1 -8 -6 -11 -15 -8 -20 3 -5 1 -9 -4 -9
-13 0 -24 29 -15 42 3 7 1 8 -5 4 -8 -5 -12 1 -12 18 0 13 -6 27 -12 29 -8 3
-6 6 5 6 11 1 17 7 15 18 -2 11 11 25 37 40 45 26 51 27 60 13z m653 -8 c2 -7
-2 -10 -12 -6 -9 3 -16 11 -16 16 0 13 23 5 28 -10z m348 -2 c38 4 65 0 59 -9
-3 -5 0 -13 6 -17 7 -4 9 -3 5 4 -3 6 -2 13 3 16 5 4 17 -8 25 -25 17 -35 6
-65 -21 -55 -7 3 -13 1 -13 -5 0 -6 -9 -8 -21 -4 -14 5 -19 3 -15 -3 4 -6 -10
-9 -36 -7 -24 2 -44 4 -45 4 -1 1 2 12 7 26 7 19 6 26 -8 34 -16 9 -16 10 2
17 12 5 21 3 24 -4 2 -7 8 -12 13 -12 6 0 3 10 -5 22 -9 12 -16 27 -16 33 0 5
4 4 9 -3 4 -8 17 -13 27 -12z m124 10 c0 -5 -4 -10 -10 -10 -5 0 -10 5 -10 10
0 6 5 10 10 10 6 0 10 -4 10 -10z m-1718 -17 c17 -15 18 -15 18 0 0 10 8 17
20 17 25 0 27 -30 3 -31 -20 -1 -46 -5 -80 -14 -26 -6 -28 -3 -11 25 16 24 26
25 50 3z m-68 -7 c-3 -8 -13 -17 -22 -21 -13 -5 -14 -8 -3 -14 7 -5 12 -13 10
-19 -3 -7 -11 -5 -23 4 -19 14 -19 14 4 39 26 28 42 33 34 11z m266 4 c0 -5
-5 -10 -11 -10 -5 0 -7 5 -4 10 3 6 8 10 11 10 2 0 4 -4 4 -10z m-47 -9 c9 -1
17 -6 17 -12 0 -6 -7 -8 -16 -5 -8 3 -12 2 -9 -3 3 -5 -5 -17 -17 -26 -21 -15
-22 -17 -5 -26 9 -5 17 -22 17 -36 0 -25 0 -26 -20 -8 -11 10 -20 24 -20 31 0
8 -6 11 -14 8 -18 -7 -10 30 10 47 19 15 18 27 -3 32 -10 3 -4 4 12 2 17 -2
38 -4 48 -4z m100 -21 c-3 -11 -9 -23 -14 -26 -16 -10 -9 -24 11 -24 11 0 20
5 20 11 0 6 9 8 20 4 14 -5 18 -3 15 8 -4 8 0 14 10 14 9 0 13 -6 10 -16 -4
-13 5 -16 49 -17 43 -2 53 1 49 12 -3 8 -1 14 5 14 16 0 22 -28 8 -39 -7 -6
-16 -8 -19 -4 -4 3 -7 -1 -7 -10 0 -9 5 -16 12 -14 6 1 14 -6 16 -15 2 -11 -2
-18 -12 -18 -9 0 -16 5 -16 11 0 5 -4 8 -9 5 -5 -3 -14 1 -21 9 -11 13 -14 13
-26 -2 -10 -14 -13 -15 -14 -4 0 11 -3 12 -11 4 -13 -13 -46 -6 -53 13 -3 8
-15 14 -26 14 -17 0 -19 -3 -10 -19 13 -25 13 -51 0 -51 -6 0 -13 14 -17 30
-4 23 -10 29 -23 25 -21 -7 -31 20 -19 50 4 11 8 16 8 12 1 -5 13 5 27 22 28
33 45 34 37 1z m1483 15 c-3 -8 -1 -15 4 -15 6 0 10 5 10 10 0 7 6 7 20 0 23
-13 27 -32 4 -23 -13 5 -14 -1 -10 -38 3 -24 3 -54 0 -66 -9 -33 -32 -17 -32
23 0 19 4 31 9 28 5 -3 9 0 9 5 0 6 -4 11 -10 11 -11 0 -39 61 -33 73 8 14 35
7 29 -8z m-624 -17 c-8 -8 -5 -15 11 -29 21 -17 21 -18 3 -25 -10 -4 -27 -2
-37 4 -10 7 -29 12 -41 12 -21 1 -21 1 -5 11 14 8 23 7 38 -7 22 -20 38 -12
19 11 -10 12 -10 18 0 30 7 9 15 13 18 10 3 -3 1 -10 -6 -17z m363 1 c16 -15
28 -10 15 6 -17 20 4 20 24 -1 23 -22 21 -65 -3 -71 -11 -3 -22 -14 -24 -25
-4 -13 -10 -17 -18 -12 -10 6 -10 9 -1 12 19 6 14 22 -7 22 -11 0 -21 -9 -24
-21 -7 -26 -30 -20 -32 9 -1 11 2 19 6 16 16 -10 14 32 -3 50 -10 11 -18 24
-18 28 0 11 71 -1 85 -13z m-1400 -19 c-8 -9 -15 -29 -15 -43 0 -15 -4 -27
-10 -27 -5 0 -10 5 -10 11 0 5 -5 7 -12 3 -7 -4 -8 -3 -4 5 9 14 -11 41 -29
41 -7 0 -11 -10 -10 -22 1 -14 0 -16 -2 -5 -3 11 -10 16 -19 13 -8 -3 -19 4
-25 16 -9 17 -9 20 2 16 8 -3 22 -2 31 1 10 3 40 6 67 6 46 1 49 -1 36 -15z
m305 11 c0 -12 -20 -25 -27 -18 -7 7 6 27 18 27 5 0 9 -4 9 -9z m1014 -16 c20
-15 20 -15 0 -30 -22 -17 -36 -15 -43 6 -4 12 -2 12 12 0 19 -15 22 -8 7 20
-13 23 -3 24 24 4z m616 -11 c0 -20 -17 -17 -24 3 -6 15 -8 15 -16 3 -6 -8
-10 -10 -10 -4 0 17 10 22 31 17 10 -3 19 -12 19 -19z m-670 -3 c0 -12 -29
-35 -36 -28 -7 6 17 36 29 37 4 0 7 -4 7 -9z m-849 -61 c6 0 7 -5 3 -11 -4 -7
-11 -6 -21 4 -10 9 -12 20 -7 29 7 10 9 9 12 -4 2 -10 8 -18 13 -18z m1469
-10 c0 -16 -4 -30 -8 -30 -5 0 -9 14 -10 30 0 17 4 30 9 30 5 0 9 -13 9 -30z
m-1396 -46 c3 -8 2 -24 -4 -33 -5 -10 -6 -21 -3 -25 3 -3 -7 -6 -23 -6 -22 0
-26 3 -14 10 10 6 11 10 3 10 -7 0 -13 11 -13 24 0 22 9 29 41 35 4 0 10 -6
13 -15z m216 -78 c0 -3 -4 -8 -10 -11 -5 -3 -10 -1 -10 4 0 6 5 11 10 11 6 0
10 -2 10 -4z"/>
<path d="M1320 3400 c0 -5 5 -10 11 -10 5 0 7 5 4 10 -3 6 -8 10 -11 10 -2 0
-4 -4 -4 -10z"/>
<path d="M1385 3390 c-3 -5 1 -10 10 -10 9 0 13 5 10 10 -3 6 -8 10 -10 10 -2
0 -7 -4 -10 -10z"/>
<path d="M1280 3380 c0 -5 5 -10 10 -10 6 0 10 5 10 10 0 6 -4 10 -10 10 -5 0
-10 -4 -10 -10z"/>
<path d="M1450 3370 c0 -5 7 -7 15 -4 8 4 15 8 15 10 0 2 -7 4 -15 4 -8 0 -15
-4 -15 -10z"/>
<path d="M1215 3320 c-8 -13 5 -13 25 0 13 8 13 10 -2 10 -9 0 -20 -4 -23 -10z"/>
<path d="M1090 3142 c0 -11 41 -34 48 -27 4 4 -2 13 -12 21 -22 15 -36 18 -36
6z"/>
<path d="M1151 3097 c-15 -39 -14 -45 5 -19 8 12 13 28 11 35 -3 6 -10 -1 -16
-16z"/>
<path d="M1077 3094 c-14 -14 -7 -54 9 -54 14 0 14 3 4 15 -10 12 -9 15 5 15
9 0 15 5 13 12 -5 14 -22 21 -31 12z"/>
<path d="M975 2870 c3 -5 8 -10 11 -10 2 0 4 5 4 10 0 6 -5 10 -11 10 -5 0 -7
-4 -4 -10z"/>
<path d="M1082 2850 c0 -14 2 -19 5 -12 2 6 2 18 0 25 -3 6 -5 1 -5 -13z"/>
<path d="M1040 2824 c0 -8 5 -12 10 -9 6 4 8 11 5 16 -9 14 -15 11 -15 -7z"/>
<path d="M1030 2760 c0 -16 5 -30 10 -30 6 0 10 14 10 30 0 17 -4 30 -10 30
-5 0 -10 -13 -10 -30z"/>
<path d="M680 2925 c0 -8 9 -15 20 -15 24 0 27 15 4 24 -22 9 -24 8 -24 -9z"/>
<path d="M2075 3070 c4 -6 11 -8 16 -5 14 9 11 15 -7 15 -8 0 -12 -5 -9 -10z"/>
<path d="M2143 2999 c-1 -16 1 -29 5 -29 9 0 10 45 2 53 -3 3 -6 -8 -7 -24z"/>
<path d="M1570 2740 c0 -6 7 -10 15 -10 8 0 15 2 15 4 0 2 -7 6 -15 10 -8 3
-15 1 -15 -4z"/>
<path d="M2820 2900 c20 -13 40 -13 40 0 0 6 -12 10 -27 10 -22 0 -25 -2 -13
-10z"/>
<path d="M2880 2890 c0 -5 5 -10 11 -10 5 0 7 5 4 10 -3 6 -8 10 -11 10 -2 0
-4 -4 -4 -10z"/>
<path d="M2853 2830 c0 -30 2 -43 4 -27 2 15 2 39 0 55 -2 15 -4 2 -4 -28z"/>
<path d="M1760 2710 c0 -5 7 -10 16 -10 8 0 12 5 9 10 -3 6 -10 10 -16 10 -5
0 -9 -4 -9 -10z"/>
<path d="M1760 2663 c0 -10 4 -14 8 -8 4 6 11 13 16 18 5 4 2 7 -7 7 -10 0
-17 -8 -17 -17z"/>
<path d="M1241 2614 c0 -11 3 -14 6 -6 3 7 2 16 -1 19 -3 4 -6 -2 -5 -13z"/>
<path d="M1840 2549 c0 -26 24 -69 40 -68 10 0 11 2 3 6 -7 2 -13 12 -13 22 0
23 -29 63 -30 40z"/>
<path d="M1948 2503 c6 -2 18 -2 25 0 6 3 1 5 -13 5 -14 0 -19 -2 -12 -5z"/>
<path d="M2013 2493 c9 -2 25 -2 35 0 9 3 1 5 -18 5 -19 0 -27 -2 -17 -5z"/>
<path d="M2320 2514 c0 -8 5 -12 10 -9 6 4 8 11 5 16 -9 14 -15 11 -15 -7z"/>
<path d="M2543 2413 c35 -5 33 -35 -3 -44 -23 -6 -22 -7 8 -8 29 -1 32 2 32
29 0 27 -3 30 -32 29 -31 -2 -31 -2 -5 -6z"/>
<path d="M2520 2390 c0 -5 4 -10 9 -10 6 0 13 5 16 10 3 6 -1 10 -9 10 -9 0
-16 -4 -16 -10z"/>
<path d="M2521 2346 c12 -10 59 -15 59 -6 0 5 -14 10 -32 10 -17 0 -29 -2 -27
-4z"/>
<path d="M2520 2320 c0 -5 15 -10 33 -9 27 0 29 2 12 9 -28 12 -45 12 -45 0z"/>
<path d="M2520 2265 c0 -10 10 -15 30 -15 20 0 30 5 30 15 0 10 -10 15 -30 15
-20 0 -30 -5 -30 -15z"/>
<path d="M2520 2200 c0 -35 3 -40 23 -41 21 -1 21 -1 -3 -9 l-25 -8 27 -1 c14
-1 29 -7 32 -13 2 -7 4 11 4 40 -1 49 -3 52 -27 53 -25 1 -25 2 4 9 l30 8 -32
1 c-32 1 -33 0 -33 -39z m38 -25 c-9 -9 -30 14 -23 25 6 9 10 8 17 -4 6 -10 8
-19 6 -21z"/>
<path d="M3390 1809 c0 -5 5 -7 10 -4 6 3 10 8 10 11 0 2 -4 4 -10 4 -5 0 -10
-5 -10 -11z"/>
<path d="M3110 1324 c0 -8 5 -12 10 -9 6 3 10 10 10 16 0 5 -4 9 -10 9 -5 0
-10 -7 -10 -16z"/>
<path d="M1378 1213 c6 -2 18 -2 25 0 6 3 1 5 -13 5 -14 0 -19 -2 -12 -5z"/>
<path d="M1350 1182 c21 -8 109 -19 200 -27 14 -1 34 -6 44 -10 13 -6 21 -5
24 3 2 6 10 8 19 5 10 -4 14 -2 10 4 -3 5 -48 13 -99 16 -51 4 -122 9 -158 12
-42 3 -56 2 -40 -3z"/>
<path d="M2057 1093 c-15 -14 -6 -29 18 -31 27 -2 32 7 13 26 -14 14 -22 15
-31 5z"/>
<path d="M3905 1100 c-18 -8 -17 -9 8 -9 16 -1 26 3 22 9 -3 6 -7 10 -8 9 -1
0 -11 -4 -22 -9z"/>
<path d="M3730 1055 c0 -8 8 -15 18 -15 10 0 23 -5 30 -12 9 -9 15 -9 24 0 9
9 8 12 -4 12 -9 0 -18 7 -22 15 -3 8 -15 15 -26 15 -11 0 -20 -7 -20 -15z"/>
<path d="M3858 1043 c7 -3 16 -2 19 1 4 3 -2 6 -13 5 -11 0 -14 -3 -6 -6z"/>
<path d="M3815 1020 c-15 -17 -16 -20 -3 -20 9 0 19 7 22 16 10 25 1 27 -19 4z"/>
<path d="M4156 861 c-7 -10 32 -47 40 -38 3 3 -4 15 -15 26 -11 11 -23 17 -25
12z"/>
<path d="M4216 842 c-3 -5 9 -13 25 -19 22 -8 29 -9 27 -1 -5 14 -46 29 -52
20z"/>
<path d="M4080 809 c0 -5 5 -7 10 -4 6 3 10 8 10 11 0 2 -4 4 -10 4 -5 0 -10
-5 -10 -11z"/>
<path d="M4320 810 c0 -5 5 -10 11 -10 5 0 7 5 4 10 -3 6 -8 10 -11 10 -2 0
-4 -4 -4 -10z"/>
<path d="M4105 780 c-3 -5 -1 -10 4 -10 6 0 11 5 11 10 0 6 -2 10 -4 10 -3 0
-8 -4 -11 -10z"/>
<path d="M3560 746 c0 -34 88 -58 98 -27 3 9 -5 11 -31 6 -29 -6 -35 -4 -40
14 -6 23 -27 29 -27 7z"/>
<path d="M3682 730 c5 -15 -31 -50 -51 -50 -6 0 -11 -5 -11 -11 0 -5 5 -7 11
-3 6 3 15 0 20 -7 8 -12 10 -12 18 0 5 8 7 21 3 29 -4 12 1 14 21 10 33 -6 34
3 6 28 -16 14 -21 15 -17 4z"/>
<path d="M2985 690 c-3 -5 -2 -10 4 -10 5 0 13 5 16 10 3 6 2 10 -4 10 -5 0
-13 -4 -16 -10z"/>
<path d="M3560 696 c0 -2 7 -6 15 -10 8 -3 15 -1 15 4 0 6 -7 10 -15 10 -8 0
-15 -2 -15 -4z"/>
<path d="M3630 641 c0 -5 5 -13 10 -16 6 -3 10 -2 10 4 0 5 -4 13 -10 16 -5 3
-10 2 -10 -4z"/>
<path d="M3090 970 c0 -5 5 -10 10 -10 6 0 10 5 10 10 0 6 -4 10 -10 10 -5 0
-10 -4 -10 -10z"/>
<path d="M646 701 c-17 -6 -17 -8 -3 -14 8 -3 21 1 27 9 13 15 6 17 -24 5z"/>
<path d="M1915 580 c3 -5 11 -10 16 -10 6 0 7 5 4 10 -3 6 -11 10 -16 10 -6 0
-7 -4 -4 -10z"/>
<path d="M1905 540 c3 -5 8 -10 11 -10 2 0 4 5 4 10 0 6 -5 10 -11 10 -5 0 -7
-4 -4 -10z"/>
<path d="M620 3479 c0 -5 5 -7 10 -4 6 3 10 8 10 11 0 2 -4 4 -10 4 -5 0 -10
-5 -10 -11z"/>
<path d="M1620 3481 c8 -6 11 -11 6 -11 -6 0 -5 -5 2 -12 6 -6 32 -12 58 -13
40 -1 48 -5 61 -29 8 -15 12 -30 9 -34 -3 -3 -6 0 -6 6 0 7 -7 12 -15 12 -8 0
-15 5 -15 10 0 6 -7 10 -16 10 -9 0 -13 -5 -9 -12 4 -7 -1 -4 -9 6 -9 11 -18
17 -22 14 -6 -6 71 -116 91 -130 17 -13 35 -9 35 7 0 8 9 15 20 15 11 0 20 2
20 5 0 10 -25 48 -47 71 -13 13 -23 30 -23 39 0 8 -7 15 -15 15 -8 0 -15 4
-15 9 0 5 -19 12 -42 16 -24 3 -52 9 -63 11 -16 4 -17 3 -5 -5z m150 -121 c0
-5 -7 -10 -16 -10 -8 0 -12 5 -9 10 3 6 10 10 16 10 5 0 9 -4 9 -10z"/>
<path d="M910 3465 c0 -8 4 -15 10 -15 5 0 7 7 4 15 -4 8 -8 15 -10 15 -2 0
-4 -7 -4 -15z"/>
<path d="M3066 3473 c-4 -4 -13 -8 -18 -8 -6 0 -13 -6 -15 -12 -3 -7 2 -13 11
-13 13 0 15 -7 10 -36 -4 -27 -2 -35 8 -32 7 3 13 13 14 24 2 39 4 44 20 44 9
0 14 7 12 17 -3 19 -29 29 -42 16z"/>
<path d="M3762 3468 c-7 -7 -12 -18 -12 -25 0 -8 7 -6 20 7 11 11 20 22 20 25
0 9 -16 5 -28 -7z"/>
<path d="M2538 3441 c-111 -17 -133 -25 -99 -36 11 -3 25 -21 32 -42 6 -19 14
-31 18 -26 9 16 51 26 51 14 0 -7 7 -7 20 1 11 7 18 19 15 25 -2 7 2 13 10 13
8 0 15 -4 15 -10 0 -18 16 -10 30 15 13 24 13 24 31 4 12 -14 18 -16 21 -7 4
10 8 10 21 -1 10 -7 17 -10 17 -5 0 4 5 3 12 -4 7 -7 23 -13 38 -13 16 -1 19
-3 8 -6 -19 -5 -26 -53 -8 -53 6 0 10 6 10 14 0 16 61 40 69 28 3 -5 21 -17
39 -26 35 -18 43 -31 13 -23 -10 2 -25 0 -34 -4 -10 -6 -18 -5 -22 1 -9 15
-25 12 -25 -5 0 -8 -4 -15 -10 -15 -5 0 -10 5 -10 11 0 5 -4 7 -10 4 -15 -9
-52 15 -46 31 3 8 1 14 -4 14 -6 0 -10 -4 -10 -10 0 -5 -7 -10 -15 -10 -8 0
-15 -7 -15 -15 0 -8 7 -15 15 -15 8 0 15 -5 15 -11 0 -5 4 -8 8 -5 4 2 53 -10
107 -29 139 -46 154 -49 134 -33 -23 19 -33 69 -17 79 11 7 11 9 0 9 -22 0
-41 25 -32 41 14 24 -22 56 -71 64 -24 4 -80 18 -123 31 -44 13 -82 24 -85 23
-3 -1 -54 -8 -113 -18z"/>
<path d="M3678 3453 c-16 -3 -30 -12 -33 -24 -4 -11 -17 -27 -30 -35 l-24 -16
26 -40 c14 -23 26 -46 28 -52 5 -23 17 -46 25 -46 4 0 11 11 14 25 4 14 11 25
17 25 6 0 8 4 4 9 -3 5 -1 12 5 16 5 3 10 14 10 23 0 15 -2 15 -10 2 -6 -10
-10 -11 -10 -2 0 6 -7 12 -15 12 -8 0 -15 6 -15 13 0 9 -3 8 -9 -2 -6 -9 -11
-10 -15 -2 -5 7 6 17 27 26 18 7 39 21 46 29 13 16 9 47 -6 45 -4 -1 -20 -4
-35 -6z m-4 -124 c-3 -6 0 -15 7 -20 10 -6 8 -9 -9 -9 -20 0 -21 3 -12 20 6
11 13 20 16 20 3 0 2 -5 -2 -11z"/>
<path d="M4143 3410 c0 -30 2 -43 4 -27 2 15 2 39 0 55 -2 15 -4 2 -4 -28z"/>
<path d="M2880 3440 c-13 -8 -13 -10 2 -10 9 0 20 5 23 10 8 13 -5 13 -25 0z"/>
<path d="M606 3418 c8 -28 12 -33 20 -25 9 8 -6 47 -17 47 -6 0 -7 -10 -3 -22z"/>
<path d="M898 3433 c-11 -3 -18 -13 -17 -26 1 -17 2 -18 6 -4 6 23 18 22 35
-5 15 -22 15 -22 10 10 -2 17 -7 31 -11 31 -3 -1 -14 -3 -23 -6z"/>
<path d="M3570 3427 c0 -10 -4 -16 -8 -13 -5 3 -18 -15 -30 -39 -12 -25 -17
-44 -11 -42 7 1 14 -4 17 -12 3 -8 0 -11 -7 -7 -6 4 -11 2 -11 -3 0 -6 -5 -11
-10 -11 -6 0 -17 -5 -24 -12 -10 -10 -9 -19 7 -46 17 -28 18 -35 6 -43 -10 -6
-8 -8 9 -6 23 1 31 30 12 42 -17 10 -11 35 8 35 14 0 15 -2 2 -10 -8 -5 -12
-10 -10 -12 39 -25 53 -28 66 -17 21 17 17 39 -8 40 -19 1 -19 2 -5 6 11 3 16
10 13 20 -3 8 -6 23 -6 34 0 16 -5 18 -25 13 -26 -7 -35 9 -12 23 28 18 46 49
37 63 -8 13 -10 12 -10 -3z"/>
<path d="M1790 3416 c0 -9 5 -16 10 -16 6 0 10 4 10 9 0 6 -4 13 -10 16 -5 3
-10 -1 -10 -9z"/>
<path d="M825 3410 c-3 -5 -1 -10 4 -10 6 0 11 5 11 10 0 6 -2 10 -4 10 -3 0
-8 -4 -11 -10z"/>
<path d="M4080 3407 c0 -8 6 -20 14 -26 12 -10 13 -8 9 9 -7 25 -23 37 -23 17z"/>
<path d="M1640 3403 c0 -19 23 -67 37 -76 7 -4 13 -16 13 -27 0 -13 5 -17 20
-13 23 6 17 22 -23 65 -14 16 -31 36 -36 45 -6 10 -11 13 -11 6z"/>
<path d="M1975 3400 c3 -5 11 -10 16 -10 6 0 7 5 4 10 -3 6 -11 10 -16 10 -6
0 -7 -4 -4 -10z"/>
<path d="M655 3390 c3 -5 -6 -12 -20 -16 -14 -3 -25 -10 -25 -15 0 -12 4 -11
35 3 25 11 35 38 14 38 -5 0 -7 -4 -4 -10z"/>
<path d="M1940 3391 c0 -5 9 -11 21 -14 16 -4 18 -3 8 9 -13 16 -29 19 -29 5z"/>
<path d="M760 3380 c0 -5 5 -10 11 -10 5 0 7 5 4 10 -3 6 -8 10 -11 10 -2 0
-4 -4 -4 -10z"/>
<path d="M760 3340 c-36 -22 -57 -40 -47 -40 10 0 27 5 38 11 11 5 38 11 59
11 22 0 38 4 35 8 -3 4 2 11 11 14 11 4 15 2 11 -8 -5 -11 0 -13 23 -6 16 4
31 6 34 2 3 -3 6 -2 6 2 0 8 -78 45 -95 46 -5 0 -39 -18 -75 -40z"/>
<path d="M1890 3360 c0 -14 15 -19 29 -11 9 6 7 10 -8 14 -12 3 -21 1 -21 -3z"/>
<path d="M3050 3340 c0 -11 2 -20 5 -20 2 0 9 9 15 20 9 16 8 20 -5 20 -8 0
-15 -9 -15 -20z"/>
<path d="M678 3338 c-16 -5 -28 -16 -28 -23 0 -11 6 -11 30 3 16 9 30 20 30
25 0 4 -1 7 -2 6 -2 0 -15 -5 -30 -11z"/>
<path d="M1855 3340 c-3 -5 -1 -10 4 -10 6 0 11 5 11 10 0 6 -2 10 -4 10 -3 0
-8 -4 -11 -10z"/>
<path d="M3068 3313 c-20 -23 -24 -34 -18 -59 7 -34 -11 -71 -29 -59 -6 3 -11
1 -11 -4 0 -6 9 -11 21 -11 22 0 49 22 49 40 0 6 7 22 16 36 19 28 12 43 -11
24 -26 -21 -30 -2 -6 30 27 37 23 39 -11 3z"/>
<path d="M1827 3289 c-4 -14 -10 -18 -19 -13 -7 5 -2 -5 12 -21 37 -45 154
-141 147 -121 -4 10 -7 26 -7 36 0 15 -111 140 -124 140 -2 0 -6 -9 -9 -21z"/>
<path d="M4102 3234 c-2 -20 -7 -46 -13 -56 -6 -11 -8 -22 -5 -25 3 -3 10 7
16 23 5 16 17 41 25 55 13 24 13 28 -1 33 -9 3 -17 6 -18 6 -1 0 -3 -16 -4
-36z"/>
<path d="M2995 3250 c-3 -5 -1 -10 4 -10 6 0 11 5 11 10 0 6 -2 10 -4 10 -3 0
-8 -4 -11 -10z"/>
<path d="M3463 3254 c3 -5 -5 -23 -19 -39 -27 -31 -20 -51 14 -41 28 9 38 55
16 75 -9 9 -14 11 -11 5z"/>
<path d="M1704 3234 c-18 -14 -18 -15 4 -4 12 6 22 13 22 15 0 8 -5 6 -26 -11z"/>
<path d="M3921 3223 c21 -28 49 -47 35 -24 -4 5 -1 11 5 13 6 2 0 12 -13 23
-13 11 -17 13 -10 5 23 -26 12 -34 -15 -9 l-27 24 25 -32z"/>
<path d="M3571 3211 c-11 -7 -11 -15 -1 -47 16 -50 33 -69 28 -32 -2 15 -7 30
-11 34 -14 14 -7 32 14 37 15 4 19 2 15 -9 -3 -8 -2 -14 3 -14 5 0 11 8 13 18
4 14 -1 18 -21 20 -14 1 -32 -2 -40 -7z"/>
<path d="M3412 3140 c-23 -10 -45 -27 -49 -37 -4 -10 -13 -24 -20 -31 -19 -19
-16 -31 7 -27 11 2 23 -3 28 -10 7 -14 12 -14 100 11 18 5 -5 29 -38 39 -14 4
-33 13 -43 20 -17 12 -17 13 3 18 11 3 20 2 20 -2 0 -6 58 -31 72 -31 14 0 36
48 28 60 -7 11 -11 11 -24 1 -11 -9 -16 -10 -16 -2 0 16 -19 13 -68 -9z"/>
<path d="M3985 3150 c3 -5 8 -10 11 -10 2 0 4 5 4 10 0 6 -5 10 -11 10 -5 0
-7 -4 -4 -10z"/>
<path d="M523 3143 c4 -3 2 -12 -4 -19 -6 -7 -6 -15 -1 -18 5 -3 14 6 20 19
10 21 9 25 -5 25 -9 0 -13 -3 -10 -7z"/>
<path d="M3030 3121 c-6 -12 -16 -18 -22 -15 -7 4 -8 3 -4 -4 12 -19 33 -14
39 10 8 30 1 34 -13 9z"/>
<path d="M1806 3115 c-3 -8 -1 -15 4 -15 6 0 10 7 10 15 0 8 -2 15 -4 15 -2 0
-6 -7 -10 -15z"/>
<path d="M3570 3090 c0 -5 5 -10 11 -10 5 0 7 5 4 10 -3 6 -8 10 -11 10 -2 0
-4 -4 -4 -10z"/>
<path d="M913 3053 c-15 -5 -17 -23 -4 -23 5 0 11 7 15 15 3 8 4 15 3 14 -1 0
-8 -3 -14 -6z"/>
<path d="M3518 3045 c-3 -3 -14 -8 -24 -10 -11 -2 -41 -11 -69 -19 l-50 -15
45 3 c58 5 75 9 93 24 12 10 16 10 20 0 2 -7 7 -10 11 -7 4 3 0 11 -7 17 -8 7
-16 9 -19 7z"/>
<path d="M3465 2991 c-16 -3 -29 -10 -29 -14 6 -30 25 -97 28 -97 2 0 16 21
32 47 18 31 23 48 16 51 -7 2 -10 8 -6 13 6 10 4 10 -41 0z m18 -18 c-7 -2
-21 -2 -30 0 -10 3 -4 5 12 5 17 0 24 -2 18 -5z"/>
<path d="M432 2908 c-7 -7 -12 -17 -12 -22 0 -6 5 -4 10 4 9 13 11 13 20 0 7
-12 9 -10 7 8 -1 25 -8 27 -25 10z"/>
<path d="M4180 2752 c0 -7 -6 -12 -14 -12 -9 0 -12 -8 -8 -27 5 -23 7 -24 10
-8 2 11 9 26 15 33 5 7 7 15 3 19 -3 3 -6 1 -6 -5z"/>
<path d="M4104 2658 c-9 -29 -23 -62 -31 -74 -7 -12 -10 -29 -7 -39 5 -12 4
-16 -3 -12 -17 11 -24 -23 -8 -39 13 -13 15 -11 21 13 10 46 56 177 66 191 8
8 6 12 -5 12 -10 0 -22 -19 -33 -52z"/>
<path d="M4127 2633 c-6 -12 -19 -69 -14 -63 13 16 34 70 27 70 -5 0 -11 -3
-13 -7z"/>
<path d="M3917 2619 c7 -7 15 -10 18 -7 3 3 -2 9 -12 12 -14 6 -15 5 -6 -5z"/>
<path d="M4510 2540 c0 -5 5 -10 10 -10 6 0 10 5 10 10 0 6 -4 10 -10 10 -5 0
-10 -4 -10 -10z"/>
<path d="M4025 2480 c-3 -5 1 -10 10 -10 9 0 13 5 10 10 -3 6 -8 10 -10 10 -2
0 -7 -4 -10 -10z"/>
<path d="M4287 2284 c-4 -4 -7 -14 -7 -23 0 -11 3 -12 11 -4 6 6 10 16 7 23
-2 6 -7 8 -11 4z"/>
<path d="M4235 2270 c-4 -6 3 -10 14 -10 25 0 27 6 6 13 -8 4 -17 2 -20 -3z"/>
<path d="M4397 2234 c-21 -28 -20 -31 8 -34 36 -4 43 0 47 25 3 13 2 22 -3 20
-4 -3 -10 -1 -14 5 -9 15 -18 12 -38 -16z"/>
<path d="M4592 2180 c0 -14 2 -19 5 -12 2 6 2 18 0 25 -3 6 -5 1 -5 -13z"/>
<path d="M4587 2093 c-11 -18 -18 -153 -7 -153 5 0 10 -8 12 -17 3 -13 5 -11
8 7 7 39 -4 177 -13 163z"/>
<path d="M4424 2008 c1 -54 5 -89 12 -92 8 -3 10 17 7 65 -6 108 -21 129 -19
27z"/>
<path d="M4642 2007 c-1 -70 -6 -95 -22 -121 -25 -42 -25 -50 0 -43 23 6 27
-15 6 -32 -8 -6 -16 -20 -18 -29 -4 -15 1 -17 27 -14 30 4 32 2 28 -22 -5 -24
-33 -38 -33 -16 0 6 -6 10 -13 10 -8 0 -22 9 -32 20 -17 19 -17 20 6 39 14 11
20 23 15 28 -5 4 -11 2 -13 -4 -7 -20 -33 -15 -54 10 -16 19 -18 20 -19 4 0
-10 4 -16 9 -13 10 6 25 -24 16 -32 -2 -3 -11 0 -18 6 -8 7 -18 8 -22 4 -5 -4
-5 -2 -2 4 4 7 1 17 -6 23 -10 7 -18 5 -30 -9 -18 -21 -37 -26 -37 -10 0 6 7
10 16 10 11 0 14 5 10 16 -3 9 -6 20 -6 25 0 6 -5 7 -10 4 -6 -4 -17 -2 -24 4
-10 9 -15 8 -20 -4 -3 -8 -1 -15 3 -15 5 0 4 -11 -2 -25 -17 -36 -34 -31 -29
8 4 32 4 32 -14 12 -11 -12 -27 -19 -38 -17 -21 5 -36 -13 -36 -45 0 -12 -7
-43 -16 -68 -13 -39 -13 -55 -3 -103 14 -70 89 -219 100 -200 5 8 11 3 20 -17
l12 -30 8 25 7 25 7 -22 c9 -27 20 -30 29 -7 3 8 10 13 15 9 6 -3 8 -11 5 -19
-3 -7 2 -13 10 -13 8 0 13 4 11 8 -3 3 3 13 12 20 15 12 16 11 11 -8 -9 -36
10 -27 22 10 l10 32 -4 -40 c-4 -40 -4 -40 9 -11 14 33 30 19 19 -17 -4 -15 3
-10 25 17 26 33 31 35 31 17 0 -27 17 -28 25 -1 7 22 25 28 25 8 0 -6 3 -8 6
-5 4 3 -3 32 -14 64 -31 85 -70 286 -42 216 5 -13 16 -23 25 -23 16 0 21 -16
5 -22 -15 -5 4 -104 19 -100 8 2 11 -3 8 -12 -4 -9 -2 -18 3 -21 5 -3 12 -28
16 -55 5 -42 9 -47 20 -35 16 16 19 49 4 40 -5 -3 -10 -2 -10 4 0 5 4 12 9 15
5 3 9 31 10 61 0 42 -3 55 -14 55 -8 0 -15 -7 -15 -15 0 -8 -5 -15 -11 -15 -6
0 -8 7 -5 16 3 9 6 22 6 30 0 8 8 14 18 14 13 0 19 9 20 35 2 19 -2 35 -8 35
-5 0 -10 -8 -11 -17 0 -11 -3 -13 -6 -5 -2 6 -11 12 -19 12 -22 0 -17 36 7 52
21 14 21 14 4 68 -10 30 -22 64 -26 75 -14 34 -14 82 0 98 7 10 9 21 4 29 -4
7 -13 33 -19 58 -11 44 -11 43 -12 -43z m-99 -288 c-5 -18 -3 -20 17 -14 14 5
20 3 16 -3 -6 -10 9 -88 39 -212 8 -30 12 -56 11 -58 -2 -1 -19 28 -39 65 -63
121 -85 215 -56 234 8 5 15 9 16 9 0 0 -1 -10 -4 -21z m77 -3 c0 -3 -4 -8 -10
-11 -5 -3 -10 -1 -10 4 0 6 5 11 10 11 6 0 10 -2 10 -4z"/>
<path d="M4197 1963 c-4 -3 -7 -11 -7 -17 0 -6 5 -5 12 2 6 6 9 14 7 17 -3 3
-9 2 -12 -2z"/>
<path d="M4665 1940 c3 -5 8 -10 11 -10 2 0 4 5 4 10 0 6 -5 10 -11 10 -5 0
-7 -4 -4 -10z"/>
<path d="M4567 1862 c-10 -2 -16 -9 -14 -15 6 -18 24 -19 31 -1 8 20 6 21 -17
16z"/>
<path d="M3840 1676 c0 -2 8 -10 18 -17 15 -13 16 -12 3 4 -13 16 -21 21 -21
13z"/>
<path d="M3630 1632 c0 -18 23 -52 36 -52 4 0 -24 59 -32 69 -2 2 -4 -5 -4
-17z"/>
<path d="M3575 1620 c3 -5 8 -10 11 -10 2 0 4 5 4 10 0 6 -5 10 -11 10 -5 0
-7 -4 -4 -10z"/>
<path d="M1905 1510 c4 -6 11 -8 16 -5 14 9 11 15 -7 15 -8 0 -12 -5 -9 -10z"/>
<path d="M1888 1473 c7 -3 16 -2 19 1 4 3 -2 6 -13 5 -11 0 -14 -3 -6 -6z"/>
<path d="M1780 1436 c0 -2 15 -6 34 -8 19 -2 32 0 30 4 -5 8 -64 12 -64 4z"/>
<path d="M1598 1393 c7 -3 16 -2 19 1 4 3 -2 6 -13 5 -11 0 -14 -3 -6 -6z"/>
<path d="M540 1362 c0 -10 33 -14 192 -26 66 -4 101 6 55 17 -50 13 -247 20
-247 9z"/>
<path d="M510 1321 c0 -6 18 -11 41 -11 28 0 38 -4 33 -12 -5 -7 -3 -8 7 -2
17 11 127 5 152 -7 10 -6 17 -6 17 0 0 11 -32 18 -125 26 -38 4 -82 9 -97 11
-17 3 -28 1 -28 -5z"/>
<path d="M528 1293 c7 -3 16 -2 19 1 4 3 -2 6 -13 5 -11 0 -14 -3 -6 -6z"/>
<path d="M1698 1293 c7 -3 16 -2 19 1 4 3 -2 6 -13 5 -11 0 -14 -3 -6 -6z"/>
<path d="M453 1196 c9 -9 21 -14 27 -11 5 3 10 1 10 -6 0 -10 3 -10 12 -1 8 8
17 8 30 1 11 -6 34 -8 51 -4 24 5 28 4 17 -4 -12 -9 -11 -11 8 -11 13 0 20 4
17 10 -3 6 1 10 10 10 8 0 18 -7 22 -16 5 -13 7 -13 15 -2 7 10 10 9 19 -5 12
-20 31 -14 23 8 -3 8 -26 17 -52 20 -26 4 -60 8 -77 11 -16 2 -57 7 -90 11
-57 6 -59 5 -42 -11z"/>
<path d="M306 811 c-4 -7 -5 -15 -2 -18 9 -9 19 4 14 18 -4 11 -6 11 -12 0z"/>
<path d="M333 769 c-2 -23 3 -25 10 -4 4 8 3 16 -1 19 -4 3 -9 -4 -9 -15z"/>
<path d="M371 770 c4 -24 -12 -70 -22 -64 -5 3 -9 1 -9 -5 0 -10 39 -11 41 -1
5 31 3 63 -4 73 -6 9 -7 8 -6 -3z"/>
<path d="M311 724 c0 -11 3 -14 6 -6 3 7 2 16 -1 19 -3 4 -6 -2 -5 -13z"/>
</g>
</svg>
