<?xml version="1.0" standalone="no"?>
<!DOCTYPE svg PUBLIC "-//W3C//DTD SVG 20010904//EN"
 "http://www.w3.org/TR/2001/REC-SVG-20010904/DTD/svg10.dtd">
<svg version="1.0" xmlns="http://www.w3.org/2000/svg"
 width="666.000000pt" height="374.000000pt" viewBox="0 0 666.000000 374.000000"
 preserveAspectRatio="xMidYMid meet">

<g transform="translate(0.000000,374.000000) scale(0.100000,-0.100000)"
fill="#000000" stroke="none">
<path d="M2424 2982 c-16 -10 -33 -119 -21 -131 5 -5 6 -23 1 -43 -9 -39 -6
-71 8 -79 19 -12 -24 -19 -45 -7 -12 6 -24 10 -27 9 -2 -1 -6 2 -8 8 -2 6 3
11 12 11 9 0 16 7 16 15 0 18 -5 19 -30 3 -25 -16 -31 -8 -37 46 -6 49 -14 60
-53 69 -45 11 -49 3 -50 -102 0 -30 -5 -60 -11 -67 -6 -8 -8 -14 -3 -14 7 0 9
-39 5 -82 -1 -3 -22 -6 -48 -5 -36 2 -48 -2 -48 -13 0 -8 -11 -17 -25 -20
l-25 -6 24 -7 c29 -7 41 -2 41 19 0 8 5 14 11 14 5 0 8 -4 5 -9 -3 -4 6 -13
19 -19 14 -7 25 -18 25 -26 0 -24 -12 -46 -21 -40 -5 3 -8 0 -7 -7 2 -6 -10
-14 -27 -16 -16 -2 -32 -8 -35 -12 -11 -16 -79 -51 -98 -51 -11 0 -24 -4 -27
-10 -11 -19 36 -10 82 15 26 13 49 23 51 20 11 -11 -10 -35 -30 -35 -17 -1
-12 -5 16 -15 59 -21 108 -66 140 -129 34 -66 27 -84 -15 -38 -29 31 -49 41
-49 23 0 -4 -15 6 -34 23 -18 18 -52 38 -74 44 -40 12 -56 26 -57 47 0 6 -9 9
-20 7 -11 -1 -50 -4 -86 -6 -37 -2 -70 -6 -75 -9 -5 -2 -31 -8 -59 -12 -71 -9
-71 -19 0 -11 56 6 58 6 35 -8 l-25 -15 34 -1 c70 0 132 -81 146 -187 l6 -48
-20 48 c-11 27 -24 54 -31 62 -6 7 -10 17 -9 21 4 23 -4 35 -38 59 -63 42
-122 32 -195 -32 -39 -35 -41 -36 -18 -7 14 18 39 40 55 50 l30 19 -115 5
c-125 6 -130 8 -270 92 -41 25 -134 69 -206 97 -72 28 -139 57 -149 65 -18 13
-17 14 13 30 32 17 68 70 63 95 -1 8 2 10 11 6 10 -6 11 -5 0 6 -18 19 -15 27
16 44 27 16 27 16 2 11 -14 -3 -35 -9 -48 -12 -17 -5 -23 -3 -21 7 4 24 -21
100 -32 93 -5 -3 -21 2 -35 11 -14 9 -27 15 -29 13 -1 -2 -7 -13 -14 -25 -7
-14 -26 -25 -58 -32 -55 -12 -73 1 -73 50 0 33 -35 79 -60 79 -33 0 -69 -22
-72 -43 -2 -14 -14 -24 -36 -29 -17 -5 -32 -12 -32 -17 0 -10 -67 -8 -77 3 -4
5 5 6 22 2 28 -6 29 -5 11 9 -24 18 -53 20 -58 3 -3 -7 -28 -13 -61 -14 -77
-3 -137 -14 -134 -24 1 -5 -23 -21 -53 -37 -48 -24 -59 -36 -89 -93 -30 -60
-33 -71 -29 -136 4 -53 12 -83 33 -123 36 -65 128 -147 195 -172 54 -20 157
-25 221 -10 31 7 41 5 65 -15 l29 -23 -27 -1 c-15 0 -30 -4 -33 -10 -3 -5 3
-10 15 -10 12 0 18 -5 15 -10 -3 -6 4 -14 17 -19 23 -10 23 -10 1 -10 -24 -1
-43 -23 -25 -29 6 -2 8 -17 5 -38 -5 -30 -3 -34 15 -34 11 0 23 4 27 9 3 6 13
9 23 9 9 0 25 3 35 7 10 4 17 3 17 -4 0 -15 19 -14 35 3 20 20 105 10 127 -15
9 -10 21 -19 27 -19 5 0 13 -5 17 -11 4 -8 -3 -9 -23 -5 -22 5 -34 2 -44 -10
-12 -14 -10 -19 10 -36 24 -18 46 -12 46 13 0 5 3 9 8 9 4 0 11 0 17 0 5 0 25
-16 45 -36 31 -30 34 -38 23 -52 -12 -14 -11 -14 12 0 14 8 36 14 49 13 13 -2
35 4 50 11 14 8 35 14 46 14 21 0 45 17 45 32 0 4 -9 8 -19 8 -30 0 -52 11
-44 23 4 6 -10 1 -31 -11 -20 -12 -43 -22 -51 -22 -16 0 -25 22 -18 48 3 13
-4 29 -18 43 -13 13 -22 31 -21 40 2 10 -2 20 -8 24 -5 3 -10 16 -10 29 0 13
-8 30 -18 39 -25 23 -35 21 -22 -4 7 -13 8 -25 2 -32 -5 -7 -8 -29 -6 -49 2
-21 -1 -38 -6 -38 -4 0 -45 26 -90 58 -45 31 -101 67 -123 80 -50 28 -79 52
-74 65 1 5 21 17 43 26 52 21 74 38 108 84 22 29 26 40 17 51 -16 19 6 66 30
66 52 0 178 -53 243 -102 78 -58 196 -192 226 -255 22 -46 18 -75 -8 -65 -15
5 -15 3 1 -12 17 -17 19 -17 30 -2 12 16 13 15 14 -3 1 -12 -2 -21 -7 -21 -4
0 -6 -10 -3 -21 5 -19 7 -19 15 -5 15 26 27 9 18 -24 -12 -41 -2 -38 16 5 18
45 36 47 23 3 -5 -18 -9 -46 -8 -63 l1 -30 14 32 c7 17 18 34 24 38 6 4 8 15
5 25 -3 10 1 25 10 34 22 22 34 20 28 -4 -3 -11 -9 -20 -14 -20 -5 0 -9 -24
-9 -54 l0 -53 -147 -11 c-82 -7 -188 -14 -238 -17 -97 -7 -175 -22 -175 -36 0
-5 20 -9 44 -9 93 0 99 -34 8 -45 -106 -13 -167 -66 -112 -95 16 -8 24 -7 36
4 12 13 74 36 95 36 4 0 9 -11 11 -25 5 -26 -18 -56 -39 -48 -6 2 -14 -1 -18
-7 -4 -7 -11 -5 -21 5 -9 8 -12 19 -9 25 3 5 1 10 -6 10 -7 0 -9 -10 -6 -27 4
-24 4 -26 -8 -10 -17 24 -23 21 -17 -8 2 -13 24 -43 49 -66 24 -22 42 -47 39
-54 -6 -16 -108 -65 -120 -57 -5 3 1 10 15 15 13 5 19 11 12 14 -7 2 -21 -1
-33 -7 -17 -9 -19 -14 -9 -26 9 -11 8 -14 -5 -14 -9 0 -16 -4 -16 -10 0 -14
22 -12 44 5 11 8 23 15 27 15 14 0 2 -32 -16 -42 -13 -8 -16 -7 -11 1 11 17 3
14 -86 -28 -46 -22 -98 -45 -117 -52 -19 -7 -29 -15 -23 -17 7 -2 9 -8 6 -14
-4 -6 -1 -8 7 -6 8 3 13 10 12 16 -2 7 4 9 14 5 11 -4 14 -3 9 5 -5 8 1 12 15
12 12 0 52 16 88 36 58 31 62 32 36 9 -32 -28 -18 -24 29 8 40 28 76 31 76 6
0 -10 -6 -19 -13 -19 -7 0 -13 -9 -14 -20 -3 -30 26 -24 45 10 9 16 20 30 25
30 4 0 7 9 7 20 0 13 7 20 20 20 11 0 20 7 20 15 0 8 6 15 14 15 8 0 16 5 18
12 6 18 221 -91 234 -118 10 -21 9 -21 -19 -13 -45 13 -44 4 5 -25 24 -14 39
-26 33 -26 -5 0 -3 -4 5 -9 14 -8 53 -4 135 15 28 6 29 5 14 -11 -10 -9 -38
-20 -63 -22 -57 -7 -61 -23 -6 -23 35 0 40 -3 40 -22 0 -26 35 -88 49 -88 15
0 21 41 14 102 -6 57 -6 58 20 58 15 0 45 -10 69 -22 23 -12 49 -23 57 -23 9
-1 39 -6 66 -10 28 -5 57 -9 65 -10 24 -1 110 -37 110 -46 0 -5 12 -9 28 -9
37 0 14 -15 -58 -36 -30 -9 -60 -21 -66 -26 -7 -5 -16 -8 -20 -7 -5 1 -16 -1
-24 -4 -69 -28 -136 -44 -156 -37 -19 8 -22 5 -26 -21 -3 -16 -1 -29 4 -29 5
0 57 15 116 34 237 76 299 90 294 67 -7 -31 10 -71 28 -71 13 0 17 -5 14 -15
-4 -8 -12 -15 -20 -15 -8 0 -14 -4 -14 -10 0 -5 -9 -10 -19 -10 -11 0 -23 -5
-26 -10 -4 -6 -10 -8 -15 -5 -5 3 -23 -1 -40 -10 -17 -9 -34 -13 -39 -10 -5 2
-22 -2 -37 -10 -16 -8 -30 -11 -32 -6 -2 5 -23 3 -47 -4 -24 -8 -46 -11 -49
-8 -3 3 -11 1 -18 -4 -7 -5 -69 -18 -138 -28 -231 -32 -425 -66 -434 -75 -5
-5 -6 -16 -3 -24 9 -22 37 -21 478 18 211 19 409 37 439 40 30 2 91 19 135 36
44 18 91 33 105 34 15 0 28 9 32 21 6 15 7 13 4 -8 -2 -17 2 -31 9 -33 8 -4
10 -16 6 -37 -5 -25 -12 -33 -34 -35 -23 -3 -27 0 -27 22 0 22 -4 26 -27 25
-27 0 -27 -1 -5 -9 14 -6 22 -18 22 -34 0 -21 6 -26 35 -32 35 -6 35 -7 29
-43 -4 -20 -14 -41 -23 -48 -15 -11 -15 -13 1 -25 11 -9 17 -33 20 -76 5 -68
14 -82 60 -82 60 0 75 14 82 78 5 41 12 62 23 66 14 6 14 8 -1 24 -10 12 -16
36 -16 65 0 44 2 48 36 62 44 18 40 19 42 -2 5 -41 2 -56 -11 -72 -8 -9 -17
-28 -19 -43 -4 -24 -3 -26 13 -17 18 9 19 5 19 -66 0 -62 4 -79 20 -95 24 -24
86 -27 118 -4 21 14 22 22 22 137 0 162 6 192 39 208 14 7 28 12 32 11 3 0 10
8 17 19 7 10 9 19 5 19 -5 0 -15 5 -23 10 -13 8 -12 11 5 25 11 9 13 13 5 9
-11 -5 -12 -4 -5 4 15 17 71 18 89 3 9 -7 16 -25 16 -40 0 -20 2 -23 10 -11
11 17 13 63 3 73 -3 4 -11 3 -17 -3 -16 -12 -40 4 -33 23 5 12 30 15 139 16
73 1 151 4 173 7 50 8 161 68 168 91 2 10 8 27 13 37 5 13 4 17 -4 12 -6 -3
-14 -1 -18 5 -10 16 160 6 506 -31 344 -36 422 -38 449 -11 23 23 41 81 41
134 0 46 -9 42 220 101 569 148 898 295 1145 509 117 102 135 124 136 165 2
64 13 97 32 96 9 -1 17 2 17 7 0 15 48 10 64 -6 16 -17 46 -17 58 0 4 5 10 6
15 2 9 -9 -17 -28 -29 -21 -4 3 -8 1 -8 -5 0 -5 10 -13 23 -17 20 -6 21 -7 3
-14 -16 -5 -14 -9 18 -28 20 -12 42 -22 47 -22 6 0 7 -9 4 -20 -3 -11 -2 -20
3 -20 10 0 88 81 114 118 16 23 17 23 42 7 l26 -17 0 31 c0 21 -6 34 -17 38
-22 7 -53 33 -53 44 0 7 64 23 275 69 l90 19 -137 -2 c-76 -1 -138 -5 -138 -9
0 -5 -21 -8 -47 -8 -25 0 -44 2 -41 6 3 3 2 21 -2 40 -7 28 -5 39 9 53 19 19
37 71 24 71 -4 0 -17 -9 -29 -21 l-22 -21 -47 35 c-26 20 -60 42 -76 49 -16 7
-29 16 -29 20 0 5 -7 8 -15 8 -13 0 -14 -4 -4 -21 6 -12 7 -24 3 -28 -5 -3
-20 -18 -33 -33 l-24 -28 41 0 c98 0 126 -2 112 -7 -8 -3 -22 -11 -30 -18 -8
-7 -31 -16 -50 -20 -19 -4 -41 -11 -50 -16 -49 -26 -92 -40 -116 -37 -24 3
-30 11 -48 66 l-21 62 -110 62 c-108 61 -339 158 -374 158 -10 0 -37 6 -59 14
-22 8 -53 17 -69 19 -269 45 -432 60 -788 72 -190 6 -315 23 -315 41 0 10 -21
24 -37 24 -3 0 -2 -12 1 -27 4 -19 4 -23 -3 -14 -5 7 -13 11 -19 7 -6 -3 -13
-2 -17 3 -3 5 2 14 11 19 13 7 14 11 4 17 -8 5 -16 1 -22 -9 -5 -9 -21 -16
-36 -16 -15 0 -37 -3 -49 -6 l-22 -6 21 -18 c17 -14 26 -15 40 -7 13 9 21 8
29 0 16 -16 1 -36 -22 -30 -10 3 -22 1 -25 -4 -9 -16 -72 -10 -82 8 -9 15 -11
14 -21 -4 -12 -24 -55 -32 -178 -35 -46 -1 -83 -5 -83 -9 0 -4 -8 -5 -18 -2
-9 2 -53 0 -97 -6 -71 -9 -81 -8 -93 7 -11 14 -10 17 5 20 79 13 153 36 153
48 0 8 12 20 28 26 33 14 62 38 62 50 0 18 -71 38 -137 38 -74 0 -249 -24
-300 -41 -21 -7 -44 -7 -67 0 -28 7 -48 5 -93 -11 -55 -19 -123 -73 -123 -98
0 -13 -36 -27 -103 -39 -29 -5 -82 -19 -119 -30 -81 -24 -90 -18 -81 57 5 46
9 52 29 52 14 0 25 -8 29 -20 3 -11 12 -20 20 -20 7 0 15 -6 18 -12 4 -10 7
-10 18 0 11 10 11 12 -2 12 -12 0 -12 2 1 10 11 7 7 10 -17 10 -21 0 -33 5
-33 14 0 7 -13 19 -30 26 -29 12 -30 15 -30 75 0 38 -5 66 -12 72 -19 15 -61
23 -74 15z m-1704 -97 c0 -8 -2 -15 -4 -15 -2 0 -6 7 -10 15 -3 8 -1 15 4 15
6 0 10 -7 10 -15z m-3 -47 c-3 -8 -6 -5 -6 6 -1 11 2 17 5 13 3 -3 4 -12 1
-19z m2208 -24 c-32 -10 -35 -12 -15 -13 14 -1 32 -6 40 -11 12 -7 7 -12 -22
-25 -42 -17 -98 -20 -98 -5 0 5 12 16 28 25 27 15 27 16 2 10 -14 -3 -6 5 20
18 25 13 54 21 65 18 14 -3 10 -7 -20 -17z m-1975 6 c0 -5 -5 -10 -11 -10 -5
0 -7 5 -4 10 3 6 8 10 11 10 2 0 4 -4 4 -10z m-404 -66 c-9 -9 -20 -13 -24 -9
-4 3 2 13 12 21 25 18 33 10 12 -12z m258 -11 c-10 -42 -23 -63 -39 -63 -20 0
-20 54 1 74 26 26 45 20 38 -11z m-368 -48 c-19 -44 -39 -39 -25 7 9 32 31 55
37 39 2 -5 -4 -26 -12 -46z m2610 38 c21 -8 17 -31 -8 -47 -29 -19 -119 -49
-228 -76 -47 -12 -103 -27 -125 -33 -22 -7 -65 -12 -95 -13 -30 0 -89 -8 -130
-16 -41 -9 -93 -20 -115 -24 -22 -4 -32 -9 -22 -11 27 -7 20 -18 -20 -30 -21
-6 -76 -25 -123 -42 -47 -17 -86 -31 -87 -31 -2 0 -3 8 -3 19 0 23 14 35 65
52 22 8 55 24 74 37 19 12 46 25 60 29 14 3 42 14 62 24 20 10 39 15 43 12 3
-4 16 3 29 14 20 19 58 32 97 35 8 0 20 5 27 10 7 5 16 7 21 4 6 -3 15 1 22 9
9 11 16 12 25 5 10 -8 17 -5 29 12 9 12 16 17 16 10 0 -6 7 -12 15 -12 8 0 15
5 15 10 0 6 10 8 24 4 13 -3 27 -1 30 5 4 5 13 8 20 5 8 -3 21 5 30 18 13 18
16 19 16 5 0 -22 16 -22 29 1 9 15 12 15 21 2 9 -13 12 -13 21 3 7 12 14 15
22 8 7 -5 25 -7 42 -4 26 6 27 7 10 15 -21 9 67 1 91 -9z m-2819 -45 c-9 -24
-18 -52 -20 -63 -4 -15 -5 -13 -6 7 -1 29 28 112 36 104 3 -3 -2 -24 -10 -48z
m90 22 c-7 -17 -13 -26 -15 -21 -3 10 15 51 22 51 3 0 -1 -14 -7 -30z m2843
20 c0 -5 -5 -10 -11 -10 -5 0 -7 5 -4 10 3 6 8 10 11 10 2 0 4 -4 4 -10z
m-2670 -10 c-12 -7 -8 -10 15 -10 17 0 25 -4 20 -9 -11 -9 -75 -23 -75 -16 0
15 27 45 40 45 13 0 13 -1 0 -10z m3595 -10 c3 -5 -1 -10 -9 -10 -9 0 -16 5
-16 10 0 6 4 10 9 10 6 0 13 -4 16 -10z m349 -25 c17 -25 16 -25 -4 -13 -11 7
-20 18 -20 25 0 19 6 16 24 -12z m-2068 4 c7 -6 13 -27 12 -46 -1 -30 -6 -37
-35 -50 -43 -17 -50 -13 -55 36 -2 22 0 37 4 35 3 -2 9 0 13 6 3 5 1 10 -5 10
-6 0 -9 3 -6 8 7 12 58 13 72 1z m1081 5 c-3 -3 -12 -4 -19 -1 -8 3 -5 6 6 6
11 1 17 -2 13 -5z m1178 -42 c-2 -2 -12 5 -23 16 -11 11 -18 23 -14 27 3 3 14
-4 23 -17 10 -12 16 -24 14 -26z m-900 28 c-4 -6 -13 -9 -20 -6 -7 2 -16 2
-19 -2 -9 -8 -33 -12 -91 -13 -30 -1 -58 -8 -69 -18 -11 -9 -16 -10 -12 -3 8
14 -20 17 -29 3 -3 -6 -18 -16 -34 -24 -25 -13 -28 -12 -27 2 1 11 -10 18 -39
21 -37 5 -34 7 30 14 39 4 107 13 152 19 123 18 166 19 158 7z m550 1 c3 -5 1
-12 -5 -16 -5 -3 -10 1 -10 9 0 18 6 21 15 7z m519 -27 c7 -19 2 -18 -19 6
-16 17 -16 20 -3 15 9 -4 19 -13 22 -21z m-4491 -1 c-7 -2 -21 -2 -30 0 -10 3
-4 5 12 5 17 0 24 -2 18 -5z m2774 -19 c6 -16 36 -16 157 2 27 4 36 3 32 -5
-4 -6 -27 -11 -51 -11 -24 0 -47 -5 -50 -10 -4 -6 -14 -8 -23 -6 -10 3 -49 2
-87 -3 -39 -5 -74 -6 -79 -3 -13 7 47 51 72 52 12 0 25 -7 29 -16z m251 -1
c-10 -2 -26 -2 -35 0 -10 3 -2 5 17 5 19 0 27 -2 18 -5z m767 -3 c-3 -5 1 -10
9 -10 9 0 16 -4 16 -9 0 -12 -116 -18 -127 -7 -10 10 -1 14 45 19 23 2 46 7
49 11 10 9 15 7 8 -4z m883 -15 c-3 -3 -9 2 -12 12 -6 14 -5 15 5 6 7 -7 10
-15 7 -18z m-1228 5 c0 -5 -8 -10 -17 -10 -13 0 -14 -3 -5 -12 9 -9 18 -9 37
0 16 7 25 8 25 1 0 -11 -10 -15 -62 -24 -21 -3 -38 -11 -38 -16 0 -6 9 -7 23
-3 12 4 40 10 62 14 23 3 39 11 38 18 -2 6 4 9 12 6 12 -5 12 -8 0 -20 -7 -8
-18 -14 -24 -14 -5 0 -13 -5 -17 -11 -5 -8 6 -9 36 -4 34 6 41 5 35 -6 -6 -11
-5 -11 5 -2 7 6 19 9 26 6 8 -3 14 0 14 6 0 6 5 11 10 11 7 0 8 -23 4 -67 -4
-39 -3 -64 2 -60 5 3 7 -26 4 -69 -3 -51 -10 -78 -20 -84 -10 -7 -11 -10 -2
-10 6 0 12 -8 12 -19 0 -24 -54 -48 -73 -32 -8 6 -16 9 -19 6 -8 -8 -69 -16
-153 -20 -44 -2 -91 -4 -105 -5 l-25 -2 25 -9 c18 -6 6 -7 -40 -5 -42 3 -58 2
-45 -4 18 -8 17 -9 -7 -9 -15 -1 -30 4 -34 11 -5 7 -2 8 7 3 11 -6 11 -5 2 5
-12 13 -37 5 -28 -9 2 -5 -8 -6 -23 -4 -23 3 -24 2 -7 -6 17 -8 15 -10 -13
-10 -28 -1 -31 1 -23 17 5 9 19 26 30 36 12 11 21 23 21 28 0 5 -12 -4 -26
-21 -14 -17 -32 -31 -40 -31 -13 0 -18 -12 -15 -32 0 -5 -11 -8 -26 -8 -16 0
-46 -2 -68 -5 -30 -4 -34 -3 -15 3 23 8 22 9 -17 16 -23 4 -51 5 -63 1 -12 -4
-20 -2 -20 5 0 7 -6 8 -19 1 -31 -17 -84 -17 -89 -1 -11 33 -75 80 -130 97
-83 24 -142 18 -574 -61 -26 -5 -28 -3 -28 27 0 37 15 57 42 57 10 0 18 4 18
9 0 5 -15 5 -35 1 -30 -7 -35 -5 -35 10 0 29 11 50 26 50 10 0 13 -8 9 -27 -6
-26 -5 -27 8 -10 11 14 16 15 20 5 4 -9 8 -10 14 -2 4 6 22 11 38 11 17 0 66
8 110 17 44 10 89 20 100 21 33 6 122 32 136 41 12 7 119 14 119 7 0 -1 -21
-9 -47 -18 -38 -12 -41 -14 -16 -12 35 4 43 -6 43 -50 0 -23 3 -21 23 18 18
33 31 45 55 50 39 8 88 39 76 48 -21 15 -34 40 -28 55 8 21 80 22 92 1 4 -9
28 -19 52 -23 l45 -8 -47 -8 c-49 -7 -61 -19 -33 -30 9 -3 15 -13 13 -22 -2
-9 3 -19 11 -22 9 -3 11 1 6 17 -6 20 -4 21 22 15 15 -4 30 -8 32 -10 2 -2 12
3 22 12 13 12 19 12 25 3 4 -8 3 -10 -4 -5 -7 4 -12 2 -12 -3 0 -16 16 -13 30
4 7 8 20 15 29 15 14 1 14 2 -1 11 -10 5 -15 16 -11 25 4 12 -2 14 -38 9 -24
-3 -37 -2 -29 1 8 4 21 14 28 23 11 13 14 14 21 2 6 -8 18 -12 31 -8 17 4 19
3 9 -9 -9 -11 -8 -21 4 -46 15 -30 15 -33 -1 -39 -33 -13 -86 -89 -62 -89 6 0
10 6 10 13 0 8 9 22 21 33 16 15 22 16 29 5 6 -10 9 -9 15 8 3 11 11 21 16 21
5 0 9 8 9 18 0 10 3 13 8 6 9 -13 75 2 67 16 -3 5 -1 11 4 15 6 3 8 12 5 19
-3 8 -1 17 4 20 20 12 -1 -129 -28 -186 -22 -47 -14 -47 24 -2 15 19 21 32 13
28 -13 -5 -14 0 -3 35 6 22 15 43 19 47 4 4 7 19 7 32 0 25 0 25 20 7 17 -15
23 -16 33 -5 10 10 9 12 -5 7 -12 -4 -18 -1 -18 9 0 8 6 14 13 12 6 -1 24 10
39 25 l27 27 -27 1 c-18 0 -10 5 27 15 47 12 55 12 65 0 9 -13 15 -12 38 9 18
15 23 25 15 28 -7 3 -5 6 5 6 9 1 18 -4 20 -10 2 -7 13 -9 27 -4 17 5 20 10
11 15 -8 5 -3 11 16 18 38 14 44 14 44 2z m-820 -19 c0 -10 3 -9 -127 -44 -51
-14 -93 -22 -93 -18 0 4 48 21 108 38 59 17 108 32 110 32 1 1 2 -3 2 -8z
m989 -12 c4 6 12 6 21 1 14 -9 14 -9 -65 -25 -17 -4 -25 -1 -25 8 0 22 10 26
38 16 16 -6 27 -6 31 0z m357 -1 c-15 -49 -16 -51 -31 -38 -13 11 -14 10 -9
-5 6 -15 4 -16 -14 -6 -27 14 -53 15 -32 0 13 -9 13 -10 0 -8 -36 4 -58 -2
-64 -17 -8 -21 3 -64 18 -64 6 0 17 -4 25 -9 12 -8 12 -12 -2 -25 -14 -15 -16
-14 -20 6 -3 14 -5 9 -6 -14 -1 -41 -11 -47 -34 -23 -13 12 -13 24 -1 86 20
104 23 111 39 96 7 -6 10 -16 7 -22 -2 -5 1 -4 9 3 7 6 23 12 34 12 12 0 30 9
40 20 20 22 46 27 41 8z m-1153 -13 c1 -5 -5 -11 -14 -13 -9 -2 -16 4 -16 13
0 17 27 17 30 0z m986 -6 c-8 -5 -10 -9 -4 -9 19 0 -15 -24 -37 -25 -13 -1
-36 -5 -52 -10 -22 -6 -28 -5 -24 6 3 8 12 13 22 11 9 -2 16 2 16 9 0 7 -10 9
-25 7 -14 -3 -25 -2 -25 3 0 8 120 28 134 21 4 -3 2 -8 -5 -13z m98 15 c-3 -3
-12 -4 -19 -1 -8 3 -5 6 6 6 11 1 17 -2 13 -5z m148 -4 c-3 -5 -11 -10 -16
-10 -6 0 -7 5 -4 10 3 6 11 10 16 10 6 0 7 -4 4 -10z m-3668 -22 c-3 -8 -6 -5
-6 6 -1 11 2 17 5 13 3 -3 4 -12 1 -19z m2608 13 c3 -5 2 -12 -3 -15 -5 -3 -9
1 -9 9 0 17 3 19 12 6z m1030 -11 c3 -5 1 -10 -4 -10 -6 0 -11 5 -11 10 0 6 2
10 4 10 3 0 8 -4 11 -10z m-884 -28 c-7 -2 -18 1 -23 6 -8 8 -4 9 13 5 13 -4
18 -8 10 -11z m-751 -1 c-16 -10 -156 -49 -205 -58 -67 -12 -9 12 92 38 118
30 136 33 113 20z m694 1 c2 -4 -4 -9 -15 -9 -11 -1 -17 2 -14 8 7 11 22 12
29 1z m-2794 -16 c0 -14 -21 -26 -46 -26 -20 0 -17 28 4 33 32 9 42 7 42 -7z
m3430 -26 c0 -6 -11 -8 -27 -4 -40 10 -41 14 -5 14 18 0 32 -5 32 -10z m-1092
-25 c-3 -3 -9 2 -12 12 -6 14 -5 15 5 6 7 -7 10 -15 7 -18z m252 5 c0 -5 -7
-7 -15 -4 -8 4 -15 1 -15 -6 0 -6 -5 -8 -10 -5 -6 4 -8 11 -5 16 8 12 45 12
45 -1z m-750 -10 c-14 -4 -32 -8 -40 -9 -13 -1 -13 0 0 9 8 5 26 9 40 9 l25
-1 -25 -8z m1593 -2 c2 -7 17 -13 33 -13 27 0 29 -3 29 -37 0 -21 -5 -38 -10
-38 -6 0 -16 -9 -22 -20 -14 -21 -62 -21 -87 -1 -7 6 -16 8 -19 4 -4 -3 -7 3
-7 15 0 11 5 24 10 27 6 4 8 16 4 27 -5 18 -3 20 12 13 11 -4 28 -10 39 -13
19 -5 19 -4 3 15 -10 11 -18 23 -18 26 0 12 28 7 33 -5z m537 -34 c0 -25 -4
-43 -8 -40 -7 4 -4 86 4 86 2 0 4 -21 4 -46z m170 10 c0 -19 -4 -33 -8 -30 -8
5 -4 66 4 66 2 0 4 -16 4 -36z m-2429 -8 c-41 -12 -86 -20 -100 -18 -30 6 -28
7 59 26 100 22 123 17 41 -8z m3390 1 c-13 -13 -26 -3 -16 12 3 6 11 8 17 5 6
-4 6 -10 -1 -17z m-1391 -17 c0 -5 -4 -10 -10 -10 -5 0 -10 5 -10 10 0 6 5 10
10 10 6 0 10 -4 10 -10z m-1873 -16 c2 -5 -10 -15 -26 -21 l-30 -11 16 24 c15
24 33 28 40 8z m53 6 c0 -5 -2 -10 -4 -10 -3 0 -8 5 -11 10 -3 6 -1 10 4 10 6
0 11 -4 11 -10z m3214 -22 c10 -39 7 -70 -6 -66 -15 5 -24 88 -10 88 5 0 12
-10 16 -22z m369 8 c1 -5 -8 -11 -20 -12 -23 -4 -30 6 -16 20 9 9 33 4 36 -8z
m-1008 -6 c3 -5 2 -10 -4 -10 -5 0 -13 5 -16 10 -3 6 -2 10 4 10 5 0 13 -4 16
-10z m185 0 c0 -5 -7 -10 -15 -10 -8 0 -15 5 -15 10 0 6 7 10 15 10 8 0 15 -4
15 -10z m-3898 -74 c35 -24 86 -51 113 -60 86 -28 82 -26 60 -39 -11 -6 -44
-12 -73 -12 l-53 -1 -77 78 c-42 43 -80 86 -85 94 -8 14 -5 14 22 0 16 -9 58
-36 93 -60z m2894 66 c-2 -4 -19 -8 -38 -9 -27 -2 -29 0 -13 7 25 11 58 12 51
2z m454 -22 c0 -3 -9 -6 -20 -7 -12 -1 -20 4 -20 13 0 8 5 12 10 9 6 -3 10 0
10 7 0 9 3 9 10 -2 5 -8 10 -17 10 -20z m183 16 c4 -10 0 -14 -12 -13 -10 0
-18 7 -18 14 0 18 23 17 30 -1z m-553 -49 c0 -6 -3 -7 -7 -4 -3 4 -12 2 -18
-3 -10 -8 -14 -2 -17 25 l-4 35 23 -22 c13 -12 23 -26 23 -31z m1623 32 c-13
-13 -83 -30 -83 -20 0 14 77 43 89 34 3 -2 0 -8 -6 -14z m-1818 -6 c-1 -10 1
-25 6 -34 6 -13 4 -16 -9 -15 -24 2 -32 28 -14 49 8 9 16 17 18 17 1 0 1 -8
-1 -17z m365 -13 c-21 -13 -30 -12 -27 3 3 18 21 27 32 16 6 -6 5 -13 -5 -19z
m1560 15 c0 -8 -4 -15 -10 -15 -5 0 -10 7 -10 15 0 8 5 15 10 15 6 0 10 -7 10
-15z m-2095 -35 c0 -16 -3 -30 -7 -30 -5 0 -8 14 -8 30 0 17 3 30 8 30 4 0 7
-13 7 -30z m1995 10 c0 -5 -12 -10 -27 -10 -22 0 -25 2 -13 10 20 13 40 13 40
0z m-1953 -22 c-3 -8 -6 -5 -6 6 -1 11 2 17 5 13 3 -3 4 -12 1 -19z m253 -9
c0 -6 -4 -7 -10 -4 -5 3 -10 11 -10 16 0 6 5 7 10 4 6 -3 10 -11 10 -16z
m-176 -4 c-4 -8 -12 -15 -20 -15 -8 0 -11 6 -8 15 4 8 12 15 20 15 8 0 11 -6
8 -15z m76 -24 c0 -10 -30 -24 -37 -17 -3 3 -2 9 2 15 8 13 35 15 35 2z m70
-1 c0 -5 -5 -10 -11 -10 -5 0 -7 5 -4 10 3 6 8 10 11 10 2 0 4 -4 4 -10z
m-2382 -20 c17 -11 32 -23 32 -26 0 -4 -7 -1 -15 6 -8 7 -32 18 -52 26 -23 8
-30 13 -18 14 11 0 35 -9 53 -20z m2137 10 c3 -6 -1 -13 -10 -16 -19 -8 -30 0
-20 15 8 14 22 14 30 1z m65 -10 c0 -5 -2 -10 -4 -10 -3 0 -8 5 -11 10 -3 6
-1 10 4 10 6 0 11 -4 11 -10z m2025 -3 c10 -8 15 -19 11 -25 -10 -17 -33 -15
-40 4 -14 36 -3 44 29 21z m-3365 -18 c0 -5 -4 -7 -10 -4 -5 3 -10 0 -10 -8 0
-8 7 -17 15 -21 8 -3 15 -1 15 4 0 6 5 10 11 10 14 0 7 -63 -8 -68 -8 -2 -14
6 -14 20 -2 22 -2 22 -6 1 -5 -27 -18 -37 -68 -51 -73 -20 -155 -26 -155 -11
0 9 -4 8 -12 -3 -16 -20 -98 -33 -98 -15 0 9 -2 9 -8 0 -9 -14 -120 -32 -192
-33 l-44 0 37 19 c38 19 155 44 192 40 11 -1 34 -1 50 0 25 1 27 3 13 12 -16
9 -16 12 -3 33 8 12 12 25 9 29 -3 3 3 3 15 0 12 -3 21 -1 21 4 0 5 7 10 15
10 8 0 11 -5 8 -10 -4 -6 0 -8 10 -4 9 3 18 1 21 -6 3 -8 5 -6 5 3 1 15 46 42
55 33 3 -3 0 -17 -5 -31 -8 -22 -8 -23 5 -13 9 7 18 21 21 30 3 10 15 23 28
29 29 14 87 15 87 1z m3250 1 c0 -5 -6 -10 -12 -10 -7 0 -24 -3 -38 -6 l-25
-5 25 15 c29 18 50 20 50 6z m-1473 -45 c-4 -8 -11 -15 -17 -15 -6 0 -6 7 2
20 14 22 24 19 15 -5z m185 3 c-7 -7 -12 -8 -12 -2 0 14 12 26 19 19 2 -3 -1
-11 -7 -17z m-1901 -25 c-9 -16 -10 -14 -11 12 0 21 3 26 11 18 8 -8 8 -16 0
-30z m-2041 17 c11 -8 7 -9 -15 -4 -37 8 -45 14 -19 14 10 0 26 -5 34 -10z
m750 6 c0 -9 -40 -13 -46 -5 -3 5 6 9 20 9 14 0 26 -2 26 -4z m910 -6 c0 -5
-5 -10 -11 -10 -5 0 -7 5 -4 10 3 6 8 10 11 10 2 0 4 -4 4 -10z m1912 -12 c-7
-7 -12 -8 -12 -2 0 14 12 26 19 19 2 -3 -1 -11 -7 -17z m-2428 4 c3 -5 -1 -9
-9 -9 -8 0 -12 4 -9 9 3 4 7 8 9 8 2 0 6 -4 9 -8z m406 -1 c7 10 12 10 23 1 8
-7 21 -10 29 -7 12 5 14 0 11 -19 -4 -17 -12 -26 -24 -26 -13 0 -17 5 -12 16
4 12 2 15 -8 12 -8 -3 -13 -11 -11 -17 3 -15 -25 -14 -31 2 -3 9 -7 9 -18 0
-8 -7 -25 -10 -37 -6 -12 3 -22 1 -22 -5 0 -7 -10 -6 -30 1 -23 9 -27 13 -15
20 8 4 20 5 26 2 5 -4 22 1 36 11 18 11 28 13 31 6 2 -8 9 -6 20 4 12 12 17
13 20 4 4 -10 6 -9 12 1z m-1503 -7 c-3 -3 -12 -4 -19 -1 -8 3 -5 6 6 6 11 1
17 -2 13 -5z m3351 -6 c-2 -6 -10 -14 -16 -16 -7 -2 -10 2 -6 12 7 18 28 22
22 4z m-979 -7 c-47 -15 -159 -23 -159 -12 0 12 36 18 120 19 45 0 57 -2 39
-7z m2941 -1 c0 -5 -8 -10 -17 -10 -15 0 -16 2 -3 10 19 12 20 12 20 0z
m-3700 -15 c0 -9 -9 -15 -21 -15 -18 0 -19 2 -9 15 7 8 16 15 21 15 5 0 9 -7
9 -15z m-1583 -11 c-3 -3 -12 -4 -19 -1 -8 3 -5 6 6 6 11 1 17 -2 13 -5z m746
-53 c-21 -73 -14 -201 14 -256 32 -61 63 -85 119 -91 52 -6 109 9 99 26 -4 6
-3 9 2 8 11 -4 82 70 99 104 7 14 16 57 20 95 5 65 16 94 30 80 10 -9 -23
-141 -46 -186 -50 -100 -131 -157 -209 -148 -37 4 -52 12 -81 45 -64 72 -78
91 -68 94 5 2 6 22 2 46 -6 36 -10 43 -25 39 -26 -7 -25 24 1 48 11 10 20 28
20 40 0 23 30 118 36 113 2 -2 -4 -28 -13 -57z m554 53 c-3 -3 -12 -4 -19 -1
-8 3 -5 6 6 6 11 1 17 -2 13 -5z m1771 -31 c-10 -2 -26 -2 -35 0 -10 3 -2 5
17 5 19 0 27 -2 18 -5z m-1265 -20 c-7 -2 -19 -2 -25 0 -7 3 -2 5 12 5 14 0
19 -2 13 -5z m-81 -28 c-2 -14 -8 -25 -12 -25 -4 0 -10 11 -12 25 -4 19 -1 25
12 25 13 0 16 -6 12 -25z m-49 9 c-7 -3 -9 -12 -6 -20 3 -8 -1 -14 -11 -14 -9
0 -16 8 -16 20 0 14 6 20 23 19 12 0 17 -3 10 -5z m107 -4 c0 -5 -4 -10 -10
-10 -5 0 -10 5 -10 10 0 6 5 10 10 10 6 0 10 -4 10 -10z m-690 -18 c0 -10 -38
-42 -49 -42 -5 0 0 11 12 25 22 25 37 32 37 17z m427 2 c-3 -3 -12 -4 -19 -1
-8 3 -5 6 6 6 11 1 17 -2 13 -5z m-197 -14 c-8 -5 -22 -9 -30 -9 -10 0 -8 3 5
9 27 12 43 12 25 0z m-235 -47 c-4 -10 -10 -28 -13 -41 l-4 -23 -17 23 c-23
33 -23 51 0 45 10 -3 19 -1 19 4 0 5 5 9 11 9 7 0 8 -7 4 -17z m-64 -40 c13
-16 12 -17 -3 -4 -10 7 -18 15 -18 17 0 8 8 3 21 -13z m704 -23 c3 -5 2 -10
-4 -10 -5 0 -13 5 -16 10 -3 6 -2 10 4 10 5 0 13 -4 16 -10z m-55 -10 c0 -5
-2 -10 -4 -10 -3 0 -8 5 -11 10 -3 6 -1 10 4 10 6 0 11 -4 11 -10z m-1390 -38
c0 -5 -13 -7 -30 -4 -16 2 -30 6 -30 8 0 2 14 4 30 4 17 0 30 -4 30 -8z m43
-9 c-7 -2 -19 -2 -25 0 -7 3 -2 5 12 5 14 0 19 -2 13 -5z m137 -61 c0 -13 -12
-22 -22 -16 -10 6 -1 24 13 24 5 0 9 -4 9 -8z m381 -19 c13 -16 12 -17 -3 -4
-17 13 -22 21 -14 21 2 0 10 -8 17 -17z m-464 -10 c0 -30 -18 -43 -61 -42
l-41 1 40 12 c22 6 41 17 41 24 2 20 4 22 12 22 5 0 9 -8 9 -17z m-51 -2 c-3
-5 -16 -11 -28 -14 -22 -6 -22 -5 -4 8 22 17 40 20 32 6z m93 -18 c0 -16 -3
-22 -6 -15 -2 6 -8 10 -12 8 -4 -3 -8 4 -8 15 -1 10 5 19 13 19 9 0 14 -10 13
-27z m-170 -25 c1 -5 -6 -8 -14 -8 -15 0 -21 31 -8 44 7 6 20 -17 22 -36z
m664 25 c-7 -2 -19 -2 -25 0 -7 3 -2 5 12 5 14 0 19 -2 13 -5z m135 -154 c37
-7 93 -9 135 -6 l71 6 -29 -19 c-62 -41 -141 -50 -203 -24 -36 15 -102 70
-102 86 0 4 15 -1 33 -12 17 -10 60 -24 95 -31z m-853 -79 c3 -5 1 -10 -4 -10
-6 0 -11 5 -11 10 0 6 2 10 4 10 3 0 8 -4 11 -10z m-15 -24 c0 -11 -19 -15
-25 -6 -3 5 1 10 9 10 9 0 16 -2 16 -4z m-30 -40 c0 -3 -4 -8 -10 -11 -5 -3
-10 -1 -10 4 0 6 5 11 10 11 6 0 10 -2 10 -4z m1917 -136 c3 -10 2 -11 -4 -4
-4 6 -15 14 -23 17 -11 5 -9 6 4 4 11 -1 21 -9 23 -17z m-747 1 c0 -4 -11 -6
-25 -3 -14 2 -25 6 -25 8 0 2 11 4 25 4 14 0 25 -4 25 -9z m88 2 c-16 -2 -40
-2 -55 0 -16 2 -3 4 27 4 30 0 43 -2 28 -4z m18 -38 c14 -13 13 -15 -9 -15
-34 0 -58 10 -51 21 8 14 44 11 60 -6z m104 6 c32 -6 37 -9 17 -10 -16 0 -26
-5 -23 -9 2 -4 -4 -8 -15 -8 -10 0 -19 6 -19 13 0 7 -4 13 -10 13 -5 0 -10 -7
-10 -15 0 -22 -17 -18 -23 5 -6 23 6 24 83 11z m86 -40 c-5 -8 -11 -7 -20 2
-10 9 -11 14 -2 19 14 9 30 -7 22 -21z m514 -21 c0 -11 -4 -20 -10 -20 -5 0
-10 9 -10 20 0 11 5 20 10 20 6 0 10 -9 10 -20z m-747 -41 c29 -8 37 -15 37
-33 0 -18 -8 -25 -39 -34 -63 -19 -100 -16 -110 11 l-9 22 -10 -26 c-10 -25
-52 -47 -52 -27 0 5 -4 6 -10 3 -6 -4 -10 7 -10 24 0 40 2 45 20 49 118 24
135 25 183 11z m87 -29 c0 -5 -7 -10 -15 -10 -8 0 -15 5 -15 10 0 6 7 10 15
10 8 0 15 -4 15 -10z m240 -79 c0 -11 -4 -23 -10 -26 -6 -4 -10 5 -10 19 0 14
5 26 10 26 6 0 10 -9 10 -19z m-470 -5 c0 -2 -7 -6 -15 -10 -8 -3 -15 -1 -15
4 0 6 7 10 15 10 8 0 15 -2 15 -4z m430 -86 c0 -31 -1 -33 -16 -18 -12 11 -14
25 -9 48 9 41 25 22 25 -30z m35 33 c-4 -10 -7 -27 -7 -37 1 -13 -2 -16 -9 -9
-12 12 -1 63 13 63 6 0 7 -8 3 -17z m-58 -116 c3 -30 1 -35 -12 -31 -9 4 -15
19 -15 41 0 46 22 39 27 -10z m243 33 c0 -5 -4 -10 -10 -10 -5 0 -10 5 -10 10
0 6 5 10 10 10 6 0 10 -4 10 -10z"/>
<path d="M2580 2609 c0 -5 5 -7 10 -4 6 3 10 8 10 11 0 2 -4 4 -10 4 -5 0 -10
-5 -10 -11z"/>
<path d="M2535 2600 c-3 -5 -2 -10 4 -10 5 0 13 5 16 10 3 6 2 10 -4 10 -5 0
-13 -4 -16 -10z"/>
<path d="M2490 2584 c0 -8 5 -12 10 -9 6 3 10 10 10 16 0 5 -4 9 -10 9 -5 0
-10 -7 -10 -16z"/>
<path d="M3606 2544 c-20 -19 -20 -30 -1 -38 10 -4 15 1 15 14 0 11 6 20 14
20 8 0 18 5 21 10 10 16 -32 11 -49 -6z"/>
<path d="M3725 2540 c-3 -5 -1 -10 4 -10 6 0 11 5 11 10 0 6 -2 10 -4 10 -3 0
-8 -4 -11 -10z"/>
<path d="M3667 2520 c3 -11 11 -19 17 -17 17 6 13 31 -6 35 -12 2 -15 -2 -11
-18z"/>
<path d="M3631 2503 c0 -25 1 -26 9 -8 12 27 12 35 0 35 -5 0 -10 -12 -9 -27z"/>
<path d="M2975 2490 c-3 -5 -2 -10 4 -10 5 0 13 5 16 10 3 6 2 10 -4 10 -5 0
-13 -4 -16 -10z"/>
<path d="M2655 2375 c-33 -7 -87 -20 -120 -28 -33 -9 -62 -14 -65 -12 -3 2
-12 -1 -20 -6 -19 -13 60 -6 108 9 27 9 32 8 32 -6 0 -13 3 -12 15 5 9 13 30
23 57 27 24 4 50 11 58 16 19 12 10 11 -65 -5z"/>
<path d="M3230 2345 c-7 -8 -8 -15 -2 -15 5 0 15 7 22 15 7 8 8 15 2 15 -5 0
-15 -7 -22 -15z"/>
<path d="M3247 2311 c-36 -35 -45 -51 -29 -51 9 0 76 80 71 84 -2 2 -21 -13
-42 -33z"/>
<path d="M2370 2310 c-11 -8 -7 -9 15 -4 37 8 45 14 19 14 -10 0 -26 -5 -34
-10z"/>
<path d="M2495 2299 c-4 -6 -5 -12 -2 -15 2 -3 7 2 10 11 7 17 1 20 -8 4z"/>
<path d="M3136 2263 c-6 -14 -5 -15 5 -6 7 7 10 15 7 18 -3 3 -9 -2 -12 -12z"/>
<path d="M3786 2261 c5 -5 29 -5 54 -1 l45 7 -54 2 c-33 0 -51 -3 -45 -8z"/>
<path d="M3290 2234 c0 -8 5 -12 10 -9 6 4 8 11 5 16 -9 14 -15 11 -15 -7z"/>
<path d="M3340 2219 c-22 -18 -22 -19 -3 -10 12 6 25 16 28 21 9 15 3 12 -25
-11z"/>
<path d="M4045 2410 c3 -5 8 -10 11 -10 2 0 4 5 4 10 0 6 -5 10 -11 10 -5 0
-7 -4 -4 -10z"/>
<path d="M3986 2381 c-3 -5 3 -11 15 -14 16 -4 18 -3 8 9 -13 16 -16 17 -23 5z"/>
<path d="M530 2865 c7 -8 16 -15 21 -15 5 0 9 7 9 15 0 9 -9 15 -21 15 -18 0
-19 -2 -9 -15z"/>
<path d="M1058 2763 c7 -3 16 -2 19 1 4 3 -2 6 -13 5 -11 0 -14 -3 -6 -6z"/>
<path d="M2640 2759 c0 -5 5 -7 10 -4 6 3 10 8 10 11 0 2 -4 4 -10 4 -5 0 -10
-5 -10 -11z"/>
<path d="M1066 2663 c-3 -4 -1 -12 4 -18 8 -9 6 -14 -5 -19 -22 -8 -18 -21 10
-34 24 -11 25 -11 25 27 0 36 -18 59 -34 44z"/>
<path d="M2088 2513 c6 -2 18 -2 25 0 6 3 1 5 -13 5 -14 0 -19 -2 -12 -5z"/>
<path d="M2030 2498 c0 -11 12 -10 30 2 12 7 10 9 -8 7 -12 0 -22 -5 -22 -9z"/>
<path d="M6140 2395 c-10 -12 -10 -15 3 -15 19 0 31 16 18 24 -5 3 -14 -1 -21
-9z"/>
<path d="M1590 2350 c8 -5 24 -10 35 -10 17 0 17 2 5 10 -8 5 -24 10 -35 10
-17 0 -17 -2 -5 -10z"/>
<path d="M1269 2114 c-19 -14 -41 -29 -49 -34 -8 -5 -12 -11 -9 -14 3 -4 18 3
32 14 14 11 32 19 39 18 7 -2 12 3 11 10 -2 6 1 12 5 12 4 0 14 -6 22 -12 12
-11 12 -10 2 3 -6 9 -9 19 -5 22 17 18 -17 4 -48 -19z"/>
<path d="M670 1410 c0 -5 7 -10 16 -10 8 0 12 5 9 10 -3 6 -10 10 -16 10 -5 0
-9 -4 -9 -10z"/>
<path d="M555 1380 c-3 -5 3 -10 14 -10 12 0 21 5 21 10 0 6 -6 10 -14 10 -8
0 -18 -4 -21 -10z"/>
<path d="M535 1331 c19 -8 19 -8 0 -19 -15 -8 -16 -12 -5 -12 8 -1 2 -7 -15
-15 -16 -7 -24 -14 -17 -14 7 -1 30 8 51 19 50 25 58 16 18 -18 -42 -35 -76
-54 -86 -48 -5 3 -16 -3 -26 -14 -10 -11 -22 -20 -27 -20 -17 0 -93 -53 -81
-57 7 -3 41 13 75 34 35 21 84 48 110 60 49 23 93 73 70 81 -7 2 -9 8 -6 14 4
6 -2 8 -16 3 -15 -5 -20 -4 -16 4 5 7 -3 11 -21 10 -24 0 -25 -2 -8 -8z"/>
<path d="M1601 1204 c0 -11 3 -14 6 -6 3 7 2 16 -1 19 -3 4 -6 -2 -5 -13z"/>
<path d="M3352 1160 c0 -14 2 -19 5 -12 2 6 2 18 0 25 -3 6 -5 1 -5 -13z"/>
<path d="M1610 1132 c-8 -4 -16 -14 -18 -22 -3 -12 -1 -13 9 -2 16 15 33 16
23 0 -4 -7 -3 -8 4 -4 8 5 7 39 -2 35 0 0 -8 -3 -16 -7z"/>
<path d="M1688 988 c-21 -6 -38 -14 -38 -18 0 -5 20 -2 45 7 25 8 45 17 45 19
0 5 -7 4 -52 -8z"/>
<path d="M3020 937 c0 -8 9 -17 20 -20 11 -3 20 -1 20 4 0 4 -9 13 -20 19 -16
8 -20 8 -20 -3z"/>
<path d="M1195 900 c-3 -6 1 -7 9 -4 18 7 21 14 7 14 -6 0 -13 -4 -16 -10z"/>
<path d="M2912 903 c-6 -2 -10 -9 -6 -14 8 -14 21 -11 28 6 6 15 1 17 -22 8z"/>
<path d="M3020 899 c0 -5 5 -7 10 -4 6 3 10 8 10 11 0 2 -4 4 -10 4 -5 0 -10
-5 -10 -11z"/>
<path d="M2183 783 c9 -2 17 -13 17 -23 0 -10 4 -21 8 -24 5 -3 6 8 4 25 -3
22 -9 29 -26 28 -17 -1 -17 -2 -3 -6z"/>
</g>
</svg>
